<?xml version="1.0" encoding="UTF-8" standalone="no"?>
<svg
   xmlns:dc="http://purl.org/dc/elements/1.1/"
   xmlns:cc="http://creativecommons.org/ns#"
   xmlns:rdf="http://www.w3.org/1999/02/22-rdf-syntax-ns#"
   xmlns:svg="http://www.w3.org/2000/svg"
   xmlns="http://www.w3.org/2000/svg"
   xmlns:sodipodi="http://sodipodi.sourceforge.net/DTD/sodipodi-0.dtd"
   xmlns:inkscape="http://www.inkscape.org/namespaces/inkscape"
   id="svg1144"
   version="1.1"
   viewBox="0 0 210 297"
   height="297mm"
   width="210mm"
   sodipodi:docname="2mm_neu_OR.svg"
   inkscape:version="1.0beta2 (2b71d25, 2019-12-03)">
  <defs
     id="defs1138" />
  <sodipodi:namedview
     id="base"
     pagecolor="#ffffff"
     bordercolor="#666666"
     borderopacity="1.0"
     inkscape:pageopacity="0.0"
     inkscape:pageshadow="2"
     inkscape:zoom="0.78007862"
     inkscape:cx="211.5503"
     inkscape:cy="490.68858"
     inkscape:document-units="mm"
     inkscape:current-layer="layer1"
     inkscape:document-rotation="0"
     showgrid="false"
     inkscape:window-width="1440"
     inkscape:window-height="855"
     inkscape:window-x="0"
     inkscape:window-y="23"
     inkscape:window-maximized="0" />
  <metadata
     id="metadata1141">
    <rdf:RDF>
      <cc:Work
         rdf:about="">
        <dc:format>image/svg+xml</dc:format>
        <dc:type
           rdf:resource="http://purl.org/dc/dcmitype/StillImage" />
        <dc:title />
      </cc:Work>
    </rdf:RDF>
  </metadata>
  <g
     inkscape:label="Ebene 1"
     inkscape:groupmode="layer"
     id="layer1">
    <path
       id="path8500"
       style="fill:#ff0000;fill-opacity:1;fill-rule:evenodd;stroke:#000000;stroke-width:0.00794853;stroke-opacity:1"
       d="m 133.23518,148.49832 a 0.9960257,0.99602565 0 0 1 -0.99603,0.99602 0.9960257,0.99602565 0 0 1 -0.99603,-0.99602 0.9960257,0.99602565 0 0 1 0.99603,-0.99602 0.9960257,0.99602565 0 0 1 0.99603,0.99602 z"
       inkscape:connector-curvature="0" />
    <path
       id="path7648"
       style="fill:#ff0000;fill-opacity:1;fill-rule:evenodd;stroke:#000000;stroke-width:0.00794853;stroke-opacity:1"
       d="m 132.88188,152.87112 a 0.9960257,0.99602565 0 0 1 -0.99603,0.99602 0.9960257,0.99602565 0 0 1 -0.99603,-0.99602 0.9960257,0.99602565 0 0 1 0.99603,-0.99602 0.9960257,0.99602565 0 0 1 0.99603,0.99602 z"
       inkscape:connector-curvature="0" />
    <path
       id="path6610"
       style="fill:#ff0000;fill-opacity:1;fill-rule:evenodd;stroke:#000000;stroke-width:0.00794853;stroke-opacity:1"
       d="m 131.83308,157.13012 a 0.9960257,0.99602565 0 0 1 -0.99603,0.99602 0.9960257,0.99602565 0 0 1 -0.99603,-0.99602 0.9960257,0.99602565 0 0 1 0.99603,-0.99602 0.9960257,0.99602565 0 0 1 0.99603,0.99602 z"
       inkscape:connector-curvature="0" />
    <path
       id="path8384"
       style="fill:#ff0000;fill-opacity:1;fill-rule:evenodd;stroke:#000000;stroke-width:0.00794853;stroke-opacity:1"
       d="m 130.11508,161.16582 a 0.9960257,0.99602565 0 0 1 -0.99603,0.99602 0.9960257,0.99602565 0 0 1 -0.99603,-0.99602 0.9960257,0.99602565 0 0 1 0.99603,-0.99602 0.9960257,0.99602565 0 0 1 0.99603,0.99602 z"
       inkscape:connector-curvature="0" />
    <path
       id="path6910"
       style="fill:#ff0000;fill-opacity:1;fill-rule:evenodd;stroke:#000000;stroke-width:0.00794853;stroke-opacity:1"
       d="m 127.77358,164.87522 a 0.9960257,0.99602565 0 0 1 -0.99603,0.99602 0.9960257,0.99602565 0 0 1 -0.99603,-0.99602 0.9960257,0.99602565 0 0 1 0.99603,-0.99602 0.9960257,0.99602565 0 0 1 0.99603,0.99602 z"
       inkscape:connector-curvature="0" />
    <path
       id="path3086"
       style="fill:#ff0000;fill-opacity:1;fill-rule:evenodd;stroke:#000000;stroke-width:0.00794853;stroke-opacity:1"
       d="m 124.86128,168.15572 a 0.9960257,0.99602565 0 0 1 -0.99603,0.99602 0.9960257,0.99602565 0 0 1 -0.99603,-0.99602 0.9960257,0.99602565 0 0 1 0.99603,-0.99602 0.9960257,0.99602565 0 0 1 0.99603,0.99602 z"
       inkscape:connector-curvature="0" />
    <path
       id="path561"
       style="fill:#ff0000;fill-opacity:1;fill-rule:evenodd;stroke:#000000;stroke-width:0.00794853;stroke-opacity:1"
       d="m 121.46848,170.93582 a 0.9960257,0.99602565 0 0 1 -0.99603,0.99602 0.9960257,0.99602565 0 0 1 -0.99603,-0.99602 0.9960257,0.99602565 0 0 1 0.99603,-0.99602 0.9960257,0.99602565 0 0 1 0.99603,0.99602 z"
       inkscape:connector-curvature="0" />
    <path
       id="path4476"
       style="fill:#ff0000;fill-opacity:1;fill-rule:evenodd;stroke:#000000;stroke-width:0.00794853;stroke-opacity:1"
       d="m 117.67538,173.13902 a 0.9960257,0.99602565 0 0 1 -0.99603,0.99602 0.9960257,0.99602565 0 0 1 -0.99603,-0.99602 0.9960257,0.99602565 0 0 1 0.99603,-0.99602 0.9960257,0.99602565 0 0 1 0.99603,0.99602 z"
       inkscape:connector-curvature="0" />
    <path
       id="path6046"
       style="fill:#ff0000;fill-opacity:1;fill-rule:evenodd;stroke:#000000;stroke-width:0.00794853;stroke-opacity:1"
       d="m 113.57418,174.69482 a 0.9960257,0.99602565 0 0 1 -0.99603,0.99602 0.9960257,0.99602565 0 0 1 -0.99603,-0.99602 0.9960257,0.99602565 0 0 1 0.99603,-0.99602 0.9960257,0.99602565 0 0 1 0.99603,0.99602 z"
       inkscape:connector-curvature="0" />
    <path
       id="path6697"
       style="fill:#ff0000;fill-opacity:1;fill-rule:evenodd;stroke:#000000;stroke-width:0.00794853;stroke-opacity:1"
       d="m 109.27698,175.57322 a 0.9960257,0.99602565 0 0 1 -0.99603,0.99602 0.9960257,0.99602565 0 0 1 -0.99603,-0.99602 0.9960257,0.99602565 0 0 1 0.99603,-0.99602 0.9960257,0.99602565 0 0 1 0.99603,0.99602 z"
       inkscape:connector-curvature="0" />
    <path
       id="path8804"
       style="fill:#ff0000;fill-opacity:1;fill-rule:evenodd;stroke:#000000;stroke-width:0.00794853;stroke-opacity:1"
       d="m 104.89448,175.75542 a 0.9960257,0.99602565 0 0 1 -0.99603,0.99602 0.9960257,0.99602565 0 0 1 -0.99603,-0.99602 0.9960257,0.99602565 0 0 1 0.99603,-0.99602 0.9960257,0.99602565 0 0 1 0.99603,0.99602 z"
       inkscape:connector-curvature="0" />
    <path
       id="path565"
       style="fill:#ff0000;fill-opacity:1;fill-rule:evenodd;stroke:#000000;stroke-width:0.00794853;stroke-opacity:1"
       d="m 100.53788,175.24302 a 0.9960257,0.99602565 0 0 1 -0.99603,0.99602 0.9960257,0.99602565 0 0 1 -0.99603,-0.99602 0.9960257,0.99602565 0 0 1 0.99603,-0.99602 0.9960257,0.99602565 0 0 1 0.99603,0.99602 z"
       inkscape:connector-curvature="0" />
    <path
       id="path4168"
       style="fill:#ff0000;fill-opacity:1;fill-rule:evenodd;stroke:#000000;stroke-width:0.00794853;stroke-opacity:1"
       d="m 96.32268,174.02892 a 0.9960257,0.99602565 0 0 1 -0.99603,0.99602 0.9960257,0.99602565 0 0 1 -0.99603,-0.99602 0.9960257,0.99602565 0 0 1 0.99603,-0.99602 0.9960257,0.99602565 0 0 1 0.99603,0.99602 z"
       inkscape:connector-curvature="0" />
    <path
       id="path1141"
       style="fill:#ff0000;fill-opacity:1;fill-rule:evenodd;stroke:#000000;stroke-width:0.00794853;stroke-opacity:1"
       d="m 92.35868,172.15122 a 0.9960257,0.99602565 0 0 1 -0.99603,0.99602 0.9960257,0.99602565 0 0 1 -0.99603,-0.99602 0.9960257,0.99602565 0 0 1 0.99603,-0.99602 0.9960257,0.99602565 0 0 1 0.99603,0.99602 z"
       inkscape:connector-curvature="0" />
    <path
       id="path5603"
       style="fill:#ff0000;fill-opacity:1;fill-rule:evenodd;stroke:#000000;stroke-width:0.00794853;stroke-opacity:1"
       d="m 88.74328,169.66732 a 0.9960257,0.99602565 0 0 1 -0.99603,0.99602 0.9960257,0.99602565 0 0 1 -0.99603,-0.99602 0.9960257,0.99602565 0 0 1 0.99603,-0.99602 0.9960257,0.99602565 0 0 1 0.99603,0.99602 z"
       inkscape:connector-curvature="0" />
    <path
       id="path7859"
       style="fill:#ff0000;fill-opacity:1;fill-rule:evenodd;stroke:#000000;stroke-width:0.00794853;stroke-opacity:1"
       d="m 85.57428,166.63432 a 0.9960257,0.99602565 0 0 1 -0.99603,0.99602 0.9960257,0.99602565 0 0 1 -0.99603,-0.99602 0.9960257,0.99602565 0 0 1 0.99603,-0.99602 0.9960257,0.99602565 0 0 1 0.99603,0.99602 z"
       inkscape:connector-curvature="0" />
    <path
       id="path8648"
       style="fill:#ff0000;fill-opacity:1;fill-rule:evenodd;stroke:#000000;stroke-width:0.00794853;stroke-opacity:1"
       d="m 82.93048,163.13423 a 0.9960257,0.99602565 0 0 1 -0.99603,0.99601 0.9960257,0.99602565 0 0 1 -0.99603,-0.99601 0.9960257,0.99602565 0 0 1 0.99603,-0.99603 0.9960257,0.99602565 0 0 1 0.99603,0.99603 z"
       inkscape:connector-curvature="0" />
    <path
       id="path3884"
       style="fill:#ff0000;fill-opacity:1;fill-rule:evenodd;stroke:#000000;stroke-width:0.00794853;stroke-opacity:1"
       d="m 80.87518,159.25902 a 0.9960257,0.99602565 0 0 1 -0.99603,0.99602 0.9960257,0.99602565 0 0 1 -0.99603,-0.99602 0.9960257,0.99602565 0 0 1 0.99603,-0.99602 0.9960257,0.99602565 0 0 1 0.99603,0.99602 z"
       inkscape:connector-curvature="0" />
    <path
       id="path3886"
       style="fill:#ff0000;fill-opacity:1;fill-rule:evenodd;stroke:#000000;stroke-width:0.00794853;stroke-opacity:1"
       d="m 79.47678,155.10142 a 0.9960257,0.99602565 0 0 1 -0.99603,0.99602 0.9960257,0.99602565 0 0 1 -0.99603,-0.99602 0.9960257,0.99602565 0 0 1 0.99603,-0.99602 0.9960257,0.99602565 0 0 1 0.99603,0.99602 z"
       inkscape:connector-curvature="0" />
    <path
       id="path5386"
       style="fill:#ff0000;fill-opacity:1;fill-rule:evenodd;stroke:#000000;stroke-width:0.00794853;stroke-opacity:1"
       d="m 78.76918,150.77262 a 0.9960257,0.99602565 0 0 1 -0.99603,0.99602 0.9960257,0.99602565 0 0 1 -0.99603,-0.99602 0.9960257,0.99602565 0 0 1 0.99603,-0.99602 0.9960257,0.99602565 0 0 1 0.99603,0.99602 z"
       inkscape:connector-curvature="0" />
    <path
       id="path8774"
       style="fill:#ff0000;fill-opacity:1;fill-rule:evenodd;stroke:#000000;stroke-width:0.00794853;stroke-opacity:1"
       d="m 78.75688,146.38642 a 0.9960257,0.99602565 0 0 1 -0.99603,0.99602 0.9960257,0.99602565 0 0 1 -0.99603,-0.99602 0.9960257,0.99602565 0 0 1 0.99603,-0.99602 0.9960257,0.99602565 0 0 1 0.99603,0.99602 z"
       inkscape:connector-curvature="0" />
    <path
       id="path329"
       style="fill:#ff0000;fill-opacity:1;fill-rule:evenodd;stroke:#000000;stroke-width:0.00794853;stroke-opacity:1"
       d="m 79.44018,142.05392 a 0.9960257,0.99602565 0 0 1 -0.99603,0.99602 0.9960257,0.99602565 0 0 1 -0.99603,-0.99602 0.9960257,0.99602565 0 0 1 0.99603,-0.99602 0.9960257,0.99602565 0 0 1 0.99603,0.99602 z"
       inkscape:connector-curvature="0" />
    <path
       id="path4292"
       style="fill:#ff0000;fill-opacity:1;fill-rule:evenodd;stroke:#000000;stroke-width:0.00794853;stroke-opacity:1"
       d="m 80.80858,137.88617 a 0.9960257,0.99602565 0 0 1 -0.99603,0.99602 0.9960257,0.99602565 0 0 1 -0.99603,-0.99602 0.9960257,0.99602565 0 0 1 0.99603,-0.99602 0.9960257,0.99602565 0 0 1 0.99603,0.99602 z"
       inkscape:connector-curvature="0" />
    <path
       id="path1184"
       style="fill:#ff0000;fill-opacity:1;fill-rule:evenodd;stroke:#000000;stroke-width:0.00794853;stroke-opacity:1"
       d="m 82.84258,133.9996 a 0.9960257,0.99602565 0 0 1 -0.99603,0.99602 0.9960257,0.99602565 0 0 1 -0.99603,-0.99602 0.9960257,0.99602565 0 0 1 0.99603,-0.99602 0.9960257,0.99602565 0 0 1 0.99603,0.99602 z"
       inkscape:connector-curvature="0" />
    <path
       id="path9472"
       style="fill:#ff0000;fill-opacity:1;fill-rule:evenodd;stroke:#000000;stroke-width:0.00794853;stroke-opacity:1"
       d="m 85.46768,130.4855 a 0.9960257,0.99602565 0 0 1 -0.99603,0.99601 0.9960257,0.99602565 0 0 1 -0.99603,-0.99601 0.9960257,0.99602565 0 0 1 0.99603,-0.99602 0.9960257,0.99602565 0 0 1 0.99603,0.99602 z"
       inkscape:connector-curvature="0" />
    <path
       id="path8744"
       style="fill:#ff0000;fill-opacity:1;fill-rule:evenodd;stroke:#000000;stroke-width:0.00794853;stroke-opacity:1"
       d="m 88.61528,127.42998 a 0.9960257,0.99602565 0 0 1 -0.99603,0.99602 0.9960257,0.99602565 0 0 1 -0.99603,-0.99602 0.9960257,0.99602565 0 0 1 0.99603,-0.99602 0.9960257,0.99602565 0 0 1 0.99603,0.99602 z"
       inkscape:connector-curvature="0" />
    <path
       id="path4219"
       style="fill:#ff0000;fill-opacity:1;fill-rule:evenodd;stroke:#000000;stroke-width:0.00794853;stroke-opacity:1"
       d="m 92.21748,124.92661 a 0.9960257,0.99602565 0 0 1 -0.99603,0.99602 0.9960257,0.99602565 0 0 1 -0.99603,-0.99602 0.9960257,0.99602565 0 0 1 0.99603,-0.99602 0.9960257,0.99602565 0 0 1 0.99603,0.99602 z"
       inkscape:connector-curvature="0" />
    <path
       id="path2259"
       style="fill:#ff0000;fill-opacity:1;fill-rule:evenodd;stroke:#000000;stroke-width:0.00794853;stroke-opacity:1"
       d="m 96.17118,123.02749 a 0.9960257,0.99602565 0 0 1 -0.99603,0.99601 0.9960257,0.99602565 0 0 1 -0.99603,-0.99601 0.9960257,0.99602565 0 0 1 0.99603,-0.99603 0.9960257,0.99602565 0 0 1 0.99603,0.99603 z"
       inkscape:connector-curvature="0" />
    <path
       id="path2298"
       style="fill:#ff0000;fill-opacity:1;fill-rule:evenodd;stroke:#000000;stroke-width:0.00794853;stroke-opacity:1"
       d="m 100.37838,121.78603 a 0.9960257,0.99602565 0 0 1 -0.99603,0.99602 0.9960257,0.99602565 0 0 1 -0.99603,-0.99602 0.9960257,0.99602565 0 0 1 0.99603,-0.99602 0.9960257,0.99602565 0 0 1 0.99603,0.99602 z"
       inkscape:connector-curvature="0" />
    <path
       id="path7018"
       style="fill:#ff0000;fill-opacity:1;fill-rule:evenodd;stroke:#000000;stroke-width:0.00794853;stroke-opacity:1"
       d="m 104.73178,121.24541 a 0.9960257,0.99602565 0 0 1 -0.99603,0.99602 0.9960257,0.99602565 0 0 1 -0.99603,-0.99602 0.9960257,0.99602565 0 0 1 0.99603,-0.99602 0.9960257,0.99602565 0 0 1 0.99603,0.99602 z"
       inkscape:connector-curvature="0" />
    <path
       id="path1935"
       style="fill:#ff0000;fill-opacity:1;fill-rule:evenodd;stroke:#000000;stroke-width:0.00794853;stroke-opacity:1"
       d="m 109.11548,121.40303 a 0.9960257,0.99602565 0 0 1 -0.99603,0.99601 0.9960257,0.99602565 0 0 1 -0.99603,-0.99601 0.9960257,0.99602565 0 0 1 0.99603,-0.99603 0.9960257,0.99602565 0 0 1 0.99603,0.99603 z"
       inkscape:connector-curvature="0" />
    <path
       id="path2130"
       style="fill:#ff0000;fill-opacity:1;fill-rule:evenodd;stroke:#000000;stroke-width:0.00794853;stroke-opacity:1"
       d="m 113.41758,122.25742 a 0.9960257,0.99602565 0 0 1 -0.99603,0.99602 0.9960257,0.99602565 0 0 1 -0.99603,-0.99602 0.9960257,0.99602565 0 0 1 0.99603,-0.99602 0.9960257,0.99602565 0 0 1 0.99603,0.99602 z"
       inkscape:connector-curvature="0" />
    <path
       id="path5645"
       style="fill:#ff0000;fill-opacity:1;fill-rule:evenodd;stroke:#000000;stroke-width:0.00794853;stroke-opacity:1"
       d="m 117.52698,123.79068 a 0.9960257,0.99602565 0 0 1 -0.99603,0.99602 0.9960257,0.99602565 0 0 1 -0.99603,-0.99602 0.9960257,0.99602565 0 0 1 0.99603,-0.99602 0.9960257,0.99602565 0 0 1 0.99603,0.99602 z"
       inkscape:connector-curvature="0" />
    <path
       id="path126"
       style="fill:#ff0000;fill-opacity:1;fill-rule:evenodd;stroke:#000000;stroke-width:0.00794853;stroke-opacity:1"
       d="m 121.33588,125.96657 a 0.9960257,0.99602565 0 0 1 -0.99603,0.99601 0.9960257,0.99602565 0 0 1 -0.99603,-0.99601 0.9960257,0.99602565 0 0 1 0.99603,-0.99603 0.9960257,0.99602565 0 0 1 0.99603,0.99603 z"
       inkscape:connector-curvature="0" />
    <path
       id="path7957"
       style="fill:#ff0000;fill-opacity:1;fill-rule:evenodd;stroke:#000000;stroke-width:0.00794853;stroke-opacity:1"
       d="m 124.74348,128.7287 a 0.9960257,0.99602565 0 0 1 -0.99603,0.99602 0.9960257,0.99602565 0 0 1 -0.99603,-0.99602 0.9960257,0.99602565 0 0 1 0.99603,-0.99602 0.9960257,0.99602565 0 0 1 0.99603,0.99602 z"
       inkscape:connector-curvature="0" />
    <path
       id="path3455"
       style="fill:#ff0000;fill-opacity:1;fill-rule:evenodd;stroke:#000000;stroke-width:0.00794853;stroke-opacity:1"
       d="m 127.67298,131.99352 a 0.9960257,0.99602565 0 0 1 -0.99603,0.99602 0.9960257,0.99602565 0 0 1 -0.99603,-0.99602 0.9960257,0.99602565 0 0 1 0.99603,-0.99602 0.9960257,0.99602565 0 0 1 0.99603,0.99602 z"
       inkscape:connector-curvature="0" />
    <path
       id="path9239"
       style="fill:#ff0000;fill-opacity:1;fill-rule:evenodd;stroke:#000000;stroke-width:0.00794853;stroke-opacity:1"
       d="m 130.04088,135.68603 a 0.9960257,0.99602565 0 0 1 -0.99603,0.99602 0.9960257,0.99602565 0 0 1 -0.99603,-0.99602 0.9960257,0.99602565 0 0 1 0.99603,-0.99602 0.9960257,0.99602565 0 0 1 0.99603,0.99602 z"
       inkscape:connector-curvature="0" />
    <path
       id="path2228"
       style="fill:#ff0000;fill-opacity:1;fill-rule:evenodd;stroke:#000000;stroke-width:0.00794853;stroke-opacity:1"
       d="m 131.78088,139.7124 a 0.9960257,0.99602565 0 0 1 -0.99603,0.99602 0.9960257,0.99602565 0 0 1 -0.99603,-0.99602 0.9960257,0.99602565 0 0 1 0.99603,-0.99602 0.9960257,0.99602565 0 0 1 0.99603,0.99602 z"
       inkscape:connector-curvature="0" />
    <path
       id="path4774"
       style="fill:#ff0000;fill-opacity:1;fill-rule:evenodd;stroke:#000000;stroke-width:0.00794853;stroke-opacity:1"
       d="m 132.85328,143.96542 a 0.9960257,0.99602565 0 0 1 -0.99603,0.99602 0.9960257,0.99602565 0 0 1 -0.99603,-0.99602 0.9960257,0.99602565 0 0 1 0.99603,-0.99602 0.9960257,0.99602565 0 0 1 0.99603,0.99602 z"
       inkscape:connector-curvature="0" />
    <path
       id="path739"
       style="fill:#ff0000;fill-opacity:1;fill-rule:evenodd;stroke:#000000;stroke-width:0.00794853;stroke-opacity:1"
       d="m 133.23098,148.33562 a 0.9960257,0.99602565 0 0 1 -0.99603,0.99602 0.9960257,0.99602565 0 0 1 -0.99603,-0.99602 0.9960257,0.99602565 0 0 1 0.99603,-0.99602 0.9960257,0.99602565 0 0 1 0.99603,0.99602 z"
       inkscape:connector-curvature="0" />
    <path
       id="path6029"
       style="fill:#ff0000;fill-opacity:1;fill-rule:evenodd;stroke:#000000;stroke-width:0.00794853;stroke-opacity:1"
       d="m 133.23518,148.49832 a 0.9960257,0.99602565 0 0 1 -0.99603,0.99602 0.9960257,0.99602565 0 0 1 -0.99603,-0.99602 0.9960257,0.99602565 0 0 1 0.99603,-0.99602 0.9960257,0.99602565 0 0 1 0.99603,0.99602 z"
       inkscape:connector-curvature="0" />
    <path
       inkscape:connector-curvature="0"
       d="M 105.99604,148.50001 A 0.9960257,0.99602565 0 0 1 105,149.49602 0.9960257,0.99602565 0 0 1 104.00397,148.50001 0.9960257,0.99602565 0 0 1 105,147.50398 a 0.9960257,0.99602565 0 0 1 0.99604,0.99603 z"
       style="fill:#ff0000;fill-opacity:1;fill-rule:evenodd;stroke:#000000;stroke-width:0.00794853;stroke-opacity:1"
       id="path3148-8-0-1" />
    <path
       inkscape:connector-curvature="0"
       d="m 127.82179,148.4989 a 0.9960257,0.99602565 0 0 1 -0.99605,0.99602 0.9960257,0.99602565 0 0 1 -0.99603,-0.99602 0.9960257,0.99602565 0 0 1 0.99603,-0.99602 0.9960257,0.99602565 0 0 1 0.99605,0.99602 z"
       style="fill:#ff0000;fill-opacity:1;fill-rule:evenodd;stroke:#000000;stroke-width:0.00794853;stroke-opacity:1"
       id="path4394" />
    <path
       inkscape:connector-curvature="0"
       d="m 127.40089,152.7633 a 0.9960257,0.99602565 0 0 1 -0.99605,0.99602 0.9960257,0.99602565 0 0 1 -0.99603,-0.99602 0.9960257,0.99602565 0 0 1 0.99603,-0.99602 0.9960257,0.99602565 0 0 1 0.99605,0.99602 z"
       style="fill:#ff0000;fill-opacity:1;fill-rule:evenodd;stroke:#000000;stroke-width:0.00794853;stroke-opacity:1"
       id="path4039" />
    <path
       inkscape:connector-curvature="0"
       d="m 126.1551,156.8634 a 0.9960257,0.99602565 0 0 1 -0.99605,0.99602 0.9960257,0.99602565 0 0 1 -0.99604,-0.99602 0.9960257,0.99602565 0 0 1 0.99604,-0.99602 0.9960257,0.99602565 0 0 1 0.99605,0.99602 z"
       style="fill:#ff0000;fill-opacity:1;fill-rule:evenodd;stroke:#000000;stroke-width:0.00794853;stroke-opacity:1"
       id="path1777" />
    <path
       inkscape:connector-curvature="0"
       d="m 124.132,160.6407 a 0.9960257,0.99602565 0 0 1 -0.99605,0.99602 0.9960257,0.99602565 0 0 1 -0.99604,-0.99602 0.9960257,0.99602565 0 0 1 0.99604,-0.99602 0.9960257,0.99602565 0 0 1 0.99605,0.99602 z"
       style="fill:#ff0000;fill-opacity:1;fill-rule:evenodd;stroke:#000000;stroke-width:0.00794853;stroke-opacity:1"
       id="path6068" />
    <path
       inkscape:connector-curvature="0"
       d="m 121.41039,163.9505 a 0.9960257,0.99602565 0 0 1 -0.99605,0.99602 0.9960257,0.99602565 0 0 1 -0.99603,-0.99602 0.9960257,0.99602565 0 0 1 0.99603,-0.99602 0.9960257,0.99602565 0 0 1 0.99605,0.99602 z"
       style="fill:#ff0000;fill-opacity:1;fill-rule:evenodd;stroke:#000000;stroke-width:0.00794853;stroke-opacity:1"
       id="path2274" />
    <path
       inkscape:connector-curvature="0"
       d="m 118.09459,166.6649 a 0.9960257,0.99602565 0 0 1 -0.99604,0.99602 0.9960257,0.99602565 0 0 1 -0.99604,-0.99602 0.9960257,0.99602565 0 0 1 0.99604,-0.99602 0.9960257,0.99602565 0 0 1 0.99604,0.99602 z"
       style="fill:#ff0000;fill-opacity:1;fill-rule:evenodd;stroke:#000000;stroke-width:0.00794853;stroke-opacity:1"
       id="path1062" />
    <path
       inkscape:connector-curvature="0"
       d="m 114.31199,168.6782 a 0.9960257,0.99602565 0 0 1 -0.99604,0.99602 0.9960257,0.99602565 0 0 1 -0.99604,-0.99602 0.9960257,0.99602565 0 0 1 0.99604,-0.99602 0.9960257,0.99602565 0 0 1 0.99604,0.99602 z"
       style="fill:#ff0000;fill-opacity:1;fill-rule:evenodd;stroke:#000000;stroke-width:0.00794853;stroke-opacity:1"
       id="path1764" />
    <path
       inkscape:connector-curvature="0"
       d="m 110.20909,169.9138 a 0.9960257,0.99602565 0 0 1 -0.99605,0.99602 0.9960257,0.99602565 0 0 1 -0.99603,-0.99602 0.9960257,0.99602565 0 0 1 0.99603,-0.99602 0.9960257,0.99602565 0 0 1 0.99605,0.99602 z"
       style="fill:#ff0000;fill-opacity:1;fill-rule:evenodd;stroke:#000000;stroke-width:0.00794853;stroke-opacity:1"
       id="path4385" />
    <path
       inkscape:connector-curvature="0"
       d="m 105.94389,170.32461 a 0.9960257,0.99602565 0 0 1 -0.99604,0.99601 0.9960257,0.99602565 0 0 1 -0.99604,-0.99601 0.9960257,0.99602565 0 0 1 0.99604,-0.99603 0.9960257,0.99602565 0 0 1 0.99604,0.99603 z"
       style="fill:#ff0000;fill-opacity:1;fill-rule:evenodd;stroke:#000000;stroke-width:0.00794853;stroke-opacity:1"
       id="path4293" />
    <path
       inkscape:connector-curvature="0"
       d="m 101.68059,169.8945 a 0.9960257,0.99602565 0 0 1 -0.99604,0.99602 0.9960257,0.99602565 0 0 1 -0.996045,-0.99602 0.9960257,0.99602565 0 0 1 0.996045,-0.99602 0.9960257,0.99602565 0 0 1 0.99604,0.99602 z"
       style="fill:#ff0000;fill-opacity:1;fill-rule:evenodd;stroke:#000000;stroke-width:0.00794853;stroke-opacity:1"
       id="path5678" />
    <path
       inkscape:connector-curvature="0"
       d="m 97.583295,168.63871 a 0.9960257,0.99602565 0 0 1 -0.99605,0.99601 0.9960257,0.99602565 0 0 1 -0.99604,-0.99601 0.9960257,0.99602565 0 0 1 0.99604,-0.99603 0.9960257,0.99602565 0 0 1 0.99605,0.99603 z"
       style="fill:#ff0000;fill-opacity:1;fill-rule:evenodd;stroke:#000000;stroke-width:0.00794853;stroke-opacity:1"
       id="path997" />
    <path
       inkscape:connector-curvature="0"
       d="m 93.811295,166.6069 a 0.9960257,0.99602565 0 0 1 -0.99605,0.99602 0.9960257,0.99602565 0 0 1 -0.99604,-0.99602 0.9960257,0.99602565 0 0 1 0.99604,-0.99602 0.9960257,0.99602565 0 0 1 0.99605,0.99602 z"
       style="fill:#ff0000;fill-opacity:1;fill-rule:evenodd;stroke:#000000;stroke-width:0.00794853;stroke-opacity:1"
       id="path1814" />
    <path
       inkscape:connector-curvature="0"
       d="m 90.508295,163.8777 a 0.9960257,0.99602565 0 0 1 -0.99605,0.99602 0.9960257,0.99602565 0 0 1 -0.99604,-0.99602 0.9960257,0.99602565 0 0 1 0.99604,-0.99602 0.9960257,0.99602565 0 0 1 0.99605,0.99602 z"
       style="fill:#ff0000;fill-opacity:1;fill-rule:evenodd;stroke:#000000;stroke-width:0.00794853;stroke-opacity:1"
       id="path9200" />
    <path
       inkscape:connector-curvature="0"
       d="m 87.801295,160.5558 a 0.9960257,0.99602565 0 0 1 -0.99605,0.99602 0.9960257,0.99602565 0 0 1 -0.99604,-0.99602 0.9960257,0.99602565 0 0 1 0.99604,-0.99602 0.9960257,0.99602565 0 0 1 0.99605,0.99602 z"
       style="fill:#ff0000;fill-opacity:1;fill-rule:evenodd;stroke:#000000;stroke-width:0.00794853;stroke-opacity:1"
       id="path4518" />
    <path
       inkscape:connector-curvature="0"
       d="m 85.797295,156.7687 a 0.9960257,0.99602565 0 0 1 -0.99605,0.99602 0.9960257,0.99602565 0 0 1 -0.99604,-0.99602 0.9960257,0.99602565 0 0 1 0.99604,-0.99602 0.9960257,0.99602565 0 0 1 0.99605,0.99602 z"
       style="fill:#ff0000;fill-opacity:1;fill-rule:evenodd;stroke:#000000;stroke-width:0.00794853;stroke-opacity:1"
       id="path6476" />
    <path
       inkscape:connector-curvature="0"
       d="m 84.571295,152.6631 a 0.9960257,0.99602565 0 0 1 -0.99605,0.99602 0.9960257,0.99602565 0 0 1 -0.99604,-0.99602 0.9960257,0.99602565 0 0 1 0.99604,-0.99602 0.9960257,0.99602565 0 0 1 0.99605,0.99602 z"
       style="fill:#ff0000;fill-opacity:1;fill-rule:evenodd;stroke:#000000;stroke-width:0.00794853;stroke-opacity:1"
       id="path1333" />
    <path
       inkscape:connector-curvature="0"
       d="m 84.170295,148.3972 a 0.9960257,0.99602565 0 0 1 -0.99605,0.99602 0.9960257,0.99602565 0 0 1 -0.99604,-0.99602 0.9960257,0.99602565 0 0 1 0.99604,-0.99602 0.9960257,0.99602565 0 0 1 0.99605,0.99602 z"
       style="fill:#ff0000;fill-opacity:1;fill-rule:evenodd;stroke:#000000;stroke-width:0.00794853;stroke-opacity:1"
       id="path6860" />
    <path
       inkscape:connector-curvature="0"
       d="m 84.610295,144.1351 a 0.9960257,0.99602565 0 0 1 -0.99605,0.99602 0.9960257,0.99602565 0 0 1 -0.99604,-0.99602 0.9960257,0.99602565 0 0 1 0.99604,-0.99602 0.9960257,0.99602565 0 0 1 0.99605,0.99602 z"
       style="fill:#ff0000;fill-opacity:1;fill-rule:evenodd;stroke:#000000;stroke-width:0.00794853;stroke-opacity:1"
       id="path7816" />
    <path
       inkscape:connector-curvature="0"
       d="m 85.875295,140.0415 a 0.9960257,0.99602565 0 0 1 -0.99605,0.99602 0.9960257,0.99602565 0 0 1 -0.99604,-0.99602 0.9960257,0.99602565 0 0 1 0.99604,-0.99602 0.9960257,0.99602565 0 0 1 0.99605,0.99602 z"
       style="fill:#ff0000;fill-opacity:1;fill-rule:evenodd;stroke:#000000;stroke-width:0.00794853;stroke-opacity:1"
       id="path1470" />
    <path
       inkscape:connector-curvature="0"
       d="m 87.916295,136.27391 a 0.9960257,0.99602565 0 0 1 -0.99605,0.99601 0.9960257,0.99602565 0 0 1 -0.99604,-0.99601 0.9960257,0.99602565 0 0 1 0.99604,-0.99603 0.9960257,0.99602565 0 0 1 0.99605,0.99603 z"
       style="fill:#ff0000;fill-opacity:1;fill-rule:evenodd;stroke:#000000;stroke-width:0.00794853;stroke-opacity:1"
       id="path7705" />
    <path
       inkscape:connector-curvature="0"
       d="m 90.652295,132.9772 a 0.9960257,0.99602565 0 0 1 -0.99605,0.99602 0.9960257,0.99602565 0 0 1 -0.99604,-0.99602 0.9960257,0.99602565 0 0 1 0.99604,-0.99602 0.9960257,0.99602565 0 0 1 0.99605,0.99602 z"
       style="fill:#ff0000;fill-opacity:1;fill-rule:evenodd;stroke:#000000;stroke-width:0.00794853;stroke-opacity:1"
       id="path6312" />
    <path
       inkscape:connector-curvature="0"
       d="m 93.980295,130.2786 a 0.9960257,0.99602565 0 0 1 -0.99605,0.99602 0.9960257,0.99602565 0 0 1 -0.99604,-0.99602 0.9960257,0.99602565 0 0 1 0.99604,-0.99602 0.9960257,0.99602565 0 0 1 0.99605,0.99602 z"
       style="fill:#ff0000;fill-opacity:1;fill-rule:evenodd;stroke:#000000;stroke-width:0.00794853;stroke-opacity:1"
       id="path4874" />
    <path
       inkscape:connector-curvature="0"
       d="m 97.772295,128.283 a 0.9960257,0.99602565 0 0 1 -0.99605,0.99602 0.9960257,0.99602565 0 0 1 -0.99604,-0.99602 0.9960257,0.99602565 0 0 1 0.99604,-0.99602 0.9960257,0.99602565 0 0 1 0.99605,0.99602 z"
       style="fill:#ff0000;fill-opacity:1;fill-rule:evenodd;stroke:#000000;stroke-width:0.00794853;stroke-opacity:1"
       id="path6271" />
    <path
       inkscape:connector-curvature="0"
       d="m 101.88049,127.06651 a 0.9960257,0.99602565 0 0 1 -0.99604,0.99601 0.9960257,0.99602565 0 0 1 -0.996045,-0.99601 0.9960257,0.99602565 0 0 1 0.996045,-0.99603 0.9960257,0.99602565 0 0 1 0.99604,0.99603 z"
       style="fill:#ff0000;fill-opacity:1;fill-rule:evenodd;stroke:#000000;stroke-width:0.00794853;stroke-opacity:1"
       id="path2229" />
    <path
       inkscape:connector-curvature="0"
       d="m 106.14719,126.6756 a 0.9960257,0.99602565 0 0 1 -0.99604,0.99602 0.9960257,0.99602565 0 0 1 -0.99604,-0.99602 0.9960257,0.99602565 0 0 1 0.99604,-0.99602 0.9960257,0.99602565 0 0 1 0.99604,0.99602 z"
       style="fill:#ff0000;fill-opacity:1;fill-rule:evenodd;stroke:#000000;stroke-width:0.00794853;stroke-opacity:1"
       id="path6648" />
    <path
       inkscape:connector-curvature="0"
       d="m 110.408,127.12561 a 0.9960257,0.99602565 0 0 1 -0.99605,0.99601 0.9960257,0.99602565 0 0 1 -0.99604,-0.99601 0.9960257,0.99602565 0 0 1 0.99604,-0.99603 0.9960257,0.99602565 0 0 1 0.99605,0.99603 z"
       style="fill:#ff0000;fill-opacity:1;fill-rule:evenodd;stroke:#000000;stroke-width:0.00794853;stroke-opacity:1"
       id="path6874" />
    <path
       inkscape:connector-curvature="0"
       d="m 114.49859,128.4002 a 0.9960257,0.99602565 0 0 1 -0.99605,0.99602 0.9960257,0.99602565 0 0 1 -0.99603,-0.99602 0.9960257,0.99602565 0 0 1 0.99603,-0.99602 0.9960257,0.99602565 0 0 1 0.99605,0.99602 z"
       style="fill:#ff0000;fill-opacity:1;fill-rule:evenodd;stroke:#000000;stroke-width:0.00794853;stroke-opacity:1"
       id="path8486" />
    <path
       inkscape:connector-curvature="0"
       d="m 118.2613,130.4493 a 0.9960257,0.99602565 0 0 1 -0.99605,0.99602 0.9960257,0.99602565 0 0 1 -0.99604,-0.99602 0.9960257,0.99602565 0 0 1 0.99604,-0.99602 0.9960257,0.99602565 0 0 1 0.99605,0.99602 z"
       style="fill:#ff0000;fill-opacity:1;fill-rule:evenodd;stroke:#000000;stroke-width:0.00794853;stroke-opacity:1"
       id="path8308" />
    <path
       inkscape:connector-curvature="0"
       d="m 121.5514,133.1937 a 0.9960257,0.99602565 0 0 1 -0.99605,0.99602 0.9960257,0.99602565 0 0 1 -0.99604,-0.99602 0.9960257,0.99602565 0 0 1 0.99604,-0.99602 0.9960257,0.99602565 0 0 1 0.99605,0.99602 z"
       style="fill:#ff0000;fill-opacity:1;fill-rule:evenodd;stroke:#000000;stroke-width:0.00794853;stroke-opacity:1"
       id="path2038" />
    <path
       inkscape:connector-curvature="0"
       d="m 124.24219,136.5278 a 0.9960257,0.99602565 0 0 1 -0.99604,0.99602 0.9960257,0.99602565 0 0 1 -0.99604,-0.99602 0.9960257,0.99602565 0 0 1 0.99604,-0.99602 0.9960257,0.99602565 0 0 1 0.99604,0.99602 z"
       style="fill:#ff0000;fill-opacity:1;fill-rule:evenodd;stroke:#000000;stroke-width:0.00794853;stroke-opacity:1"
       id="path4319" />
    <path
       inkscape:connector-curvature="0"
       d="m 126.22889,140.3238 a 0.9960257,0.99602565 0 0 1 -0.99605,0.99602 0.9960257,0.99602565 0 0 1 -0.99603,-0.99602 0.9960257,0.99602565 0 0 1 0.99603,-0.99602 0.9960257,0.99602565 0 0 1 0.99605,0.99602 z"
       style="fill:#ff0000;fill-opacity:1;fill-rule:evenodd;stroke:#000000;stroke-width:0.00794853;stroke-opacity:1"
       id="path2923" />
    <path
       inkscape:connector-curvature="0"
       d="m 127.4358,144.4347 a 0.9960257,0.99602565 0 0 1 -0.99605,0.99602 0.9960257,0.99602565 0 0 1 -0.99604,-0.99602 0.9960257,0.99602565 0 0 1 0.99604,-0.99602 0.9960257,0.99602565 0 0 1 0.99605,0.99602 z"
       style="fill:#ff0000;fill-opacity:1;fill-rule:evenodd;stroke:#000000;stroke-width:0.00794853;stroke-opacity:1"
       id="path7910" />
    <path
       id="path6161"
       style="fill:#ff0000;fill-opacity:1;fill-rule:evenodd;stroke:#000000;stroke-width:0.00794853;stroke-opacity:1"
       d="m 122.3023,148.516 a 0.9960257,0.99602565 0 0 1 -0.99606,0.99602 0.9960257,0.99602565 0 0 1 -0.99604,-0.99602 0.9960257,0.99602565 0 0 1 0.99604,-0.99602 0.9960257,0.99602565 0 0 1 0.99606,0.99602 z"
       inkscape:connector-curvature="0" />
    <path
       id="path3192"
       style="fill:#ff0000;fill-opacity:1;fill-rule:evenodd;stroke:#000000;stroke-width:0.00794853;stroke-opacity:1"
       d="m 121.6853,152.95071 a 0.9960257,0.99602565 0 0 1 -0.99606,0.99601 0.9960257,0.99602565 0 0 1 -0.99604,-0.99601 0.9960257,0.99602565 0 0 1 0.99604,-0.99603 0.9960257,0.99602565 0 0 1 0.99606,0.99603 z"
       inkscape:connector-curvature="0" />
    <path
       id="path6205"
       style="fill:#ff0000;fill-opacity:1;fill-rule:evenodd;stroke:#000000;stroke-width:0.00794853;stroke-opacity:1"
       d="m 119.8957,157.0543 a 0.9960257,0.99602565 0 0 1 -0.99606,0.99602 0.9960257,0.99602565 0 0 1 -0.99604,-0.99602 0.9960257,0.99602565 0 0 1 0.99604,-0.99602 0.9960257,0.99602565 0 0 1 0.99606,0.99602 z"
       inkscape:connector-curvature="0" />
    <path
       id="path972"
       style="fill:#ff0000;fill-opacity:1;fill-rule:evenodd;stroke:#000000;stroke-width:0.00794853;stroke-opacity:1"
       d="m 117.0591,160.5183 a 0.9960257,0.99602565 0 0 1 -0.99606,0.99602 0.9960257,0.99602565 0 0 1 -0.99604,-0.99602 0.9960257,0.99602565 0 0 1 0.99604,-0.99602 0.9960257,0.99602565 0 0 1 0.99606,0.99602 z"
       inkscape:connector-curvature="0" />
    <path
       id="path167"
       style="fill:#ff0000;fill-opacity:1;fill-rule:evenodd;stroke:#000000;stroke-width:0.00794853;stroke-opacity:1"
       d="m 113.3902,163.0837 a 0.9960257,0.99602565 0 0 1 -0.99606,0.99602 0.9960257,0.99602565 0 0 1 -0.99604,-0.99602 0.9960257,0.99602565 0 0 1 0.99604,-0.99602 0.9960257,0.99602565 0 0 1 0.99606,0.99602 z"
       inkscape:connector-curvature="0" />
    <path
       id="path7865"
       style="fill:#ff0000;fill-opacity:1;fill-rule:evenodd;stroke:#000000;stroke-width:0.00794853;stroke-opacity:1"
       d="m 109.1644,164.5634 a 0.9960257,0.99602565 0 0 1 -0.99606,0.99602 0.9960257,0.99602565 0 0 1 -0.99604,-0.99602 0.9960257,0.99602565 0 0 1 0.99604,-0.99602 0.9960257,0.99602565 0 0 1 0.99606,0.99602 z"
       inkscape:connector-curvature="0" />
    <path
       id="path7423"
       style="fill:#ff0000;fill-opacity:1;fill-rule:evenodd;stroke:#000000;stroke-width:0.00794853;stroke-opacity:1"
       d="m 104.6954,164.8345 a 0.9960257,0.99602565 0 0 1 -0.99606,0.99602 0.9960257,0.99602565 0 0 1 -0.99604,-0.99602 0.9960257,0.99602565 0 0 1 0.99604,-0.99602 0.9960257,0.99602565 0 0 1 0.99606,0.99602 z"
       inkscape:connector-curvature="0" />
    <path
       id="path7301"
       style="fill:#ff0000;fill-opacity:1;fill-rule:evenodd;stroke:#000000;stroke-width:0.00794853;stroke-opacity:1"
       d="m 100.3188,163.89161 a 0.9960257,0.99602565 0 0 1 -0.996058,0.99601 0.9960257,0.99602565 0 0 1 -0.99604,-0.99601 0.9960257,0.99602565 0 0 1 0.99604,-0.99603 0.9960257,0.99602565 0 0 1 0.996058,0.99603 z"
       inkscape:connector-curvature="0" />
    <path
       id="path9568"
       style="fill:#ff0000;fill-opacity:1;fill-rule:evenodd;stroke:#000000;stroke-width:0.00794853;stroke-opacity:1"
       d="m 96.363297,161.79401 a 0.9960257,0.99602565 0 0 1 -0.996055,0.99601 0.9960257,0.99602565 0 0 1 -0.99604,-0.99601 0.9960257,0.99602565 0 0 1 0.99604,-0.99603 0.9960257,0.99602565 0 0 1 0.996055,0.99603 z"
       inkscape:connector-curvature="0" />
    <path
       id="path8424"
       style="fill:#ff0000;fill-opacity:1;fill-rule:evenodd;stroke:#000000;stroke-width:0.00794853;stroke-opacity:1"
       d="m 93.123597,158.7042 a 0.9960257,0.99602565 0 0 1 -0.996055,0.99602 0.9960257,0.99602565 0 0 1 -0.99604,-0.99602 0.9960257,0.99602565 0 0 1 0.99604,-0.99602 0.9960257,0.99602565 0 0 1 0.996055,0.99602 z"
       inkscape:connector-curvature="0" />
    <path
       id="path7877"
       style="fill:#ff0000;fill-opacity:1;fill-rule:evenodd;stroke:#000000;stroke-width:0.00794853;stroke-opacity:1"
       d="m 90.839997,154.85311 a 0.9960257,0.99602565 0 0 1 -0.996055,0.99601 0.9960257,0.99602565 0 0 1 -0.99604,-0.99601 0.9960257,0.99602565 0 0 1 0.99604,-0.99603 0.9960257,0.99602565 0 0 1 0.996055,0.99603 z"
       inkscape:connector-curvature="0" />
    <path
       id="path7048"
       style="fill:#ff0000;fill-opacity:1;fill-rule:evenodd;stroke:#000000;stroke-width:0.00794853;stroke-opacity:1"
       d="m 89.690497,150.5261 a 0.9960257,0.99602565 0 0 1 -0.996055,0.99602 0.9960257,0.99602565 0 0 1 -0.99604,-0.99602 0.9960257,0.99602565 0 0 1 0.99604,-0.99602 0.9960257,0.99602565 0 0 1 0.996055,0.99602 z"
       inkscape:connector-curvature="0" />
    <path
       id="path9063"
       style="fill:#ff0000;fill-opacity:1;fill-rule:evenodd;stroke:#000000;stroke-width:0.00794853;stroke-opacity:1"
       d="m 89.749697,146.0493 a 0.9960257,0.99602565 0 0 1 -0.996055,0.99602 0.9960257,0.99602565 0 0 1 -0.99604,-0.99602 0.9960257,0.99602565 0 0 1 0.99604,-0.99602 0.9960257,0.99602565 0 0 1 0.996055,0.99602 z"
       inkscape:connector-curvature="0" />
    <path
       id="path3575"
       style="fill:#ff0000;fill-opacity:1;fill-rule:evenodd;stroke:#000000;stroke-width:0.00794853;stroke-opacity:1"
       d="m 91.026497,141.7579 a 0.9960257,0.99602565 0 0 1 -0.996055,0.99602 0.9960257,0.99602565 0 0 1 -0.99604,-0.99602 0.9960257,0.99602565 0 0 1 0.99604,-0.99602 0.9960257,0.99602565 0 0 1 0.996055,0.99602 z"
       inkscape:connector-curvature="0" />
    <path
       id="path3469"
       style="fill:#ff0000;fill-opacity:1;fill-rule:evenodd;stroke:#000000;stroke-width:0.00794853;stroke-opacity:1"
       d="m 93.415197,137.9716 a 0.9960257,0.99602565 0 0 1 -0.996055,0.99602 0.9960257,0.99602565 0 0 1 -0.99604,-0.99602 0.9960257,0.99602565 0 0 1 0.99604,-0.99602 0.9960257,0.99602565 0 0 1 0.996055,0.99602 z"
       inkscape:connector-curvature="0" />
    <path
       id="path3478"
       style="fill:#ff0000;fill-opacity:1;fill-rule:evenodd;stroke:#000000;stroke-width:0.00794853;stroke-opacity:1"
       d="m 96.740097,134.9732 a 0.9960257,0.99602565 0 0 1 -0.996055,0.99602 0.9960257,0.99602565 0 0 1 -0.99604,-0.99602 0.9960257,0.99602565 0 0 1 0.99604,-0.99602 0.9960257,0.99602565 0 0 1 0.996055,0.99602 z"
       inkscape:connector-curvature="0" />
    <path
       id="path3982"
       style="fill:#ff0000;fill-opacity:1;fill-rule:evenodd;stroke:#000000;stroke-width:0.00794853;stroke-opacity:1"
       d="m 100.7544,132.9912 a 0.9960257,0.99602565 0 0 1 -0.996058,0.99602 0.9960257,0.99602565 0 0 1 -0.99604,-0.99602 0.9960257,0.99602565 0 0 1 0.99604,-0.99602 0.9960257,0.99602565 0 0 1 0.996058,0.99602 z"
       inkscape:connector-curvature="0" />
    <path
       id="path2586"
       style="fill:#ff0000;fill-opacity:1;fill-rule:evenodd;stroke:#000000;stroke-width:0.00794853;stroke-opacity:1"
       d="m 105.1547,132.165 a 0.9960257,0.99602565 0 0 1 -0.99606,0.99602 0.9960257,0.99602565 0 0 1 -0.99604,-0.99602 0.9960257,0.99602565 0 0 1 0.99604,-0.99602 0.9960257,0.99602565 0 0 1 0.99606,0.99602 z"
       inkscape:connector-curvature="0" />
    <path
       id="path8667"
       style="fill:#ff0000;fill-opacity:1;fill-rule:evenodd;stroke:#000000;stroke-width:0.00794853;stroke-opacity:1"
       d="m 109.6136,132.5698 a 0.9960257,0.99602565 0 0 1 -0.99606,0.99602 0.9960257,0.99602565 0 0 1 -0.99604,-0.99602 0.9960257,0.99602565 0 0 1 0.99604,-0.99602 0.9960257,0.99602565 0 0 1 0.99606,0.99602 z"
       inkscape:connector-curvature="0" />
    <path
       id="path4992"
       style="fill:#ff0000;fill-opacity:1;fill-rule:evenodd;stroke:#000000;stroke-width:0.00794853;stroke-opacity:1"
       d="m 113.7975,134.16291 a 0.9960257,0.99602565 0 0 1 -0.99606,0.99601 0.9960257,0.99602565 0 0 1 -0.99604,-0.99601 0.9960257,0.99602565 0 0 1 0.99604,-0.99603 0.9960257,0.99602565 0 0 1 0.99606,0.99603 z"
       inkscape:connector-curvature="0" />
    <path
       id="path491"
       style="fill:#ff0000;fill-opacity:1;fill-rule:evenodd;stroke:#000000;stroke-width:0.00794853;stroke-opacity:1"
       d="m 117.3927,136.8311 a 0.9960257,0.99602565 0 0 1 -0.99606,0.99602 0.9960257,0.99602565 0 0 1 -0.99604,-0.99602 0.9960257,0.99602565 0 0 1 0.99604,-0.99602 0.9960257,0.99602565 0 0 1 0.99606,0.99602 z"
       inkscape:connector-curvature="0" />
    <path
       id="path219"
       style="fill:#ff0000;fill-opacity:1;fill-rule:evenodd;stroke:#000000;stroke-width:0.00794853;stroke-opacity:1"
       d="m 120.129,140.3745 a 0.9960257,0.99602565 0 0 1 -0.99606,0.99602 0.9960257,0.99602565 0 0 1 -0.99604,-0.99602 0.9960257,0.99602565 0 0 1 0.99604,-0.99602 0.9960257,0.99602565 0 0 1 0.99606,0.99602 z"
       inkscape:connector-curvature="0" />
    <path
       id="path2560"
       style="fill:#ff0000;fill-opacity:1;fill-rule:evenodd;stroke:#000000;stroke-width:0.00794853;stroke-opacity:1"
       d="m 121.8084,144.52501 a 0.9960257,0.99602565 0 0 1 -0.99606,0.99601 0.9960257,0.99602565 0 0 1 -0.99604,-0.99601 0.9960257,0.99602565 0 0 1 0.99604,-0.99603 0.9960257,0.99602565 0 0 1 0.99606,0.99603 z"
       inkscape:connector-curvature="0" />
    <path
       id="path6812"
       style="fill:#ff0000;fill-opacity:1;fill-rule:evenodd;stroke:#000000;stroke-width:0.00794853;stroke-opacity:1"
       d="m 116.90843,148.49885 a 0.9960257,0.99602565 0 0 1 -0.99603,0.99601 0.9960257,0.99602565 0 0 1 -0.99603,-0.99601 0.9960257,0.99602565 0 0 1 0.99603,-0.99603 0.9960257,0.99602565 0 0 1 0.99603,0.99603 z"
       inkscape:connector-curvature="0" />
    <path
       id="path4216"
       style="fill:#ff0000;fill-opacity:1;fill-rule:evenodd;stroke:#000000;stroke-width:0.00794853;stroke-opacity:1"
       d="m 116.07513,152.68038 a 0.9960257,0.99602565 0 0 1 -0.99603,0.99602 0.9960257,0.99602565 0 0 1 -0.99603,-0.99602 0.9960257,0.99602565 0 0 1 0.99603,-0.99602 0.9960257,0.99602565 0 0 1 0.99603,0.99602 z"
       inkscape:connector-curvature="0" />
    <path
       id="path316"
       style="fill:#ff0000;fill-opacity:1;fill-rule:evenodd;stroke:#000000;stroke-width:0.00794853;stroke-opacity:1"
       d="m 113.70343,156.22355 a 0.9960257,0.99602565 0 0 1 -0.99603,0.99602 0.9960257,0.99602565 0 0 1 -0.99603,-0.99602 0.9960257,0.99602565 0 0 1 0.99603,-0.99602 0.9960257,0.99602565 0 0 1 0.99603,0.99602 z"
       inkscape:connector-curvature="0" />
    <path
       id="path867"
       style="fill:#ff0000;fill-opacity:1;fill-rule:evenodd;stroke:#000000;stroke-width:0.00794853;stroke-opacity:1"
       d="m 110.15483,158.5869 a 0.9960257,0.99602565 0 0 1 -0.99603,0.99602 0.9960257,0.99602565 0 0 1 -0.99603,-0.99602 0.9960257,0.99602565 0 0 1 0.99603,-0.99602 0.9960257,0.99602565 0 0 1 0.99603,0.99602 z"
       inkscape:connector-curvature="0" />
    <path
       id="path4541"
       style="fill:#ff0000;fill-opacity:1;fill-rule:evenodd;stroke:#000000;stroke-width:0.00794853;stroke-opacity:1"
       d="m 105.97193,159.41116 a 0.9960257,0.99602565 0 0 1 -0.99603,0.99602 0.9960257,0.99602565 0 0 1 -0.99603,-0.99602 0.9960257,0.99602565 0 0 1 0.99603,-0.99602 0.9960257,0.99602565 0 0 1 0.99603,0.99602 z"
       inkscape:connector-curvature="0" />
    <path
       id="path16"
       style="fill:#ff0000;fill-opacity:1;fill-rule:evenodd;stroke:#000000;stroke-width:0.00794853;stroke-opacity:1"
       d="m 101.79183,158.57113 a 0.9960257,0.99602565 0 0 1 -0.99603,0.99602 0.9960257,0.99602565 0 0 1 -0.99603,-0.99602 0.9960257,0.99602565 0 0 1 0.99603,-0.99602 0.9960257,0.99602565 0 0 1 0.99603,0.99602 z"
       inkscape:connector-curvature="0" />
    <path
       id="path5055"
       style="fill:#ff0000;fill-opacity:1;fill-rule:evenodd;stroke:#000000;stroke-width:0.00794853;stroke-opacity:1"
       d="m 98.25473,156.19038 a 0.9960257,0.99602565 0 0 1 -0.99603,0.99601 0.9960257,0.99602565 0 0 1 -0.99603,-0.99601 0.9960257,0.99602565 0 0 1 0.99603,-0.99603 0.9960257,0.99602565 0 0 1 0.99603,0.99603 z"
       inkscape:connector-curvature="0" />
    <path
       id="path1961"
       style="fill:#ff0000;fill-opacity:1;fill-rule:evenodd;stroke:#000000;stroke-width:0.00794853;stroke-opacity:1"
       d="m 95.89893,152.63729 a 0.9960257,0.99602565 0 0 1 -0.99603,0.99601 0.9960257,0.99602565 0 0 1 -0.99603,-0.99601 0.9960257,0.99602565 0 0 1 0.99603,-0.99602 0.9960257,0.99602565 0 0 1 0.99603,0.99602 z"
       inkscape:connector-curvature="0" />
    <path
       id="path9945"
       style="fill:#ff0000;fill-opacity:1;fill-rule:evenodd;stroke:#000000;stroke-width:0.00794853;stroke-opacity:1"
       d="m 95.08363,148.45301 a 0.9960257,0.99602565 0 0 1 -0.99603,0.99602 0.9960257,0.99602565 0 0 1 -0.99603,-0.99602 0.9960257,0.99602565 0 0 1 0.99603,-0.99602 0.9960257,0.99602565 0 0 1 0.99603,0.99602 z"
       inkscape:connector-curvature="0" />
    <path
       id="path6580"
       style="fill:#ff0000;fill-opacity:1;fill-rule:evenodd;stroke:#000000;stroke-width:0.00794853;stroke-opacity:1"
       d="m 95.93443,144.27521 a 0.9960257,0.99602565 0 0 1 -0.99603,0.99602 0.9960257,0.99602565 0 0 1 -0.99603,-0.99602 0.9960257,0.99602565 0 0 1 0.99603,-0.99602 0.9960257,0.99602565 0 0 1 0.99603,0.99602 z"
       inkscape:connector-curvature="0" />
    <path
       id="path6367"
       style="fill:#ff0000;fill-opacity:1;fill-rule:evenodd;stroke:#000000;stroke-width:0.00794853;stroke-opacity:1"
       d="m 98.32123,140.74254 a 0.9960257,0.99602565 0 0 1 -0.99603,0.99602 0.9960257,0.99602565 0 0 1 -0.99603,-0.99602 0.9960257,0.99602565 0 0 1 0.99603,-0.99602 0.9960257,0.99602565 0 0 1 0.99603,0.99602 z"
       inkscape:connector-curvature="0" />
    <path
       id="path2513"
       style="fill:#ff0000;fill-opacity:1;fill-rule:evenodd;stroke:#000000;stroke-width:0.00794853;stroke-opacity:1"
       d="m 101.87943,138.39414 a 0.9960257,0.99602565 0 0 1 -0.99603,0.99602 0.9960257,0.99602565 0 0 1 -0.99603,-0.99602 0.9960257,0.99602565 0 0 1 0.99603,-0.99602 0.9960257,0.99602565 0 0 1 0.99603,0.99602 z"
       inkscape:connector-curvature="0" />
    <path
       id="path2992"
       style="fill:#ff0000;fill-opacity:1;fill-rule:evenodd;stroke:#000000;stroke-width:0.00794853;stroke-opacity:1"
       d="m 106.06593,137.58884 a 0.9960257,0.99602565 0 0 1 -0.99603,0.99602 0.9960257,0.99602565 0 0 1 -0.99603,-0.99602 0.9960257,0.99602565 0 0 1 0.99603,-0.99602 0.9960257,0.99602565 0 0 1 0.99603,0.99602 z"
       inkscape:connector-curvature="0" />
    <path
       id="path9506"
       style="fill:#ff0000;fill-opacity:1;fill-rule:evenodd;stroke:#000000;stroke-width:0.00794853;stroke-opacity:1"
       d="m 110.24133,138.44914 a 0.9960257,0.99602565 0 0 1 -0.99603,0.99602 0.9960257,0.99602565 0 0 1 -0.99603,-0.99602 0.9960257,0.99602565 0 0 1 0.99603,-0.99602 0.9960257,0.99602565 0 0 1 0.99603,0.99602 z"
       inkscape:connector-curvature="0" />
    <path
       id="path9417"
       style="fill:#ff0000;fill-opacity:1;fill-rule:evenodd;stroke:#000000;stroke-width:0.00794853;stroke-opacity:1"
       d="m 113.76813,140.84384 a 0.9960257,0.99602565 0 0 1 -0.99603,0.99602 0.9960257,0.99602565 0 0 1 -0.99603,-0.99602 0.9960257,0.99602565 0 0 1 0.99603,-0.99602 0.9960257,0.99602565 0 0 1 0.99603,0.99602 z"
       inkscape:connector-curvature="0" />
    <path
       id="path4412"
       style="fill:#ff0000;fill-opacity:1;fill-rule:evenodd;stroke:#000000;stroke-width:0.00794853;stroke-opacity:1"
       d="m 116.10803,144.40719 a 0.9960257,0.99602565 0 0 1 -0.99603,0.99602 0.9960257,0.99602565 0 0 1 -0.99603,-0.99602 0.9960257,0.99602565 0 0 1 0.99603,-0.99602 0.9960257,0.99602565 0 0 1 0.99603,0.99602 z"
       inkscape:connector-curvature="0" />
    <path
       inkscape:connector-curvature="0"
       d="m 111.45223,148.49942 a 0.9960257,0.99602565 0 0 1 -0.99603,0.99601 0.9960257,0.99602565 0 0 1 -0.99603,-0.99601 0.9960257,0.99602565 0 0 1 0.99603,-0.99602 0.9960257,0.99602565 0 0 1 0.99603,0.99602 z"
       style="fill:#ff0000;fill-opacity:1;fill-rule:evenodd;stroke:#000000;stroke-width:0.00794853;stroke-opacity:1"
       id="path3417" />
    <path
       inkscape:connector-curvature="0"
       d="m 109.84973,152.36179 a 0.9960257,0.99602565 0 0 1 -0.99603,0.99601 0.9960257,0.99602565 0 0 1 -0.99603,-0.99601 0.9960257,0.99602565 0 0 1 0.99603,-0.99602 0.9960257,0.99602565 0 0 1 0.99603,0.99602 z"
       style="fill:#ff0000;fill-opacity:1;fill-rule:evenodd;stroke:#000000;stroke-width:0.00794853;stroke-opacity:1"
       id="path578" />
    <path
       inkscape:connector-curvature="0"
       d="m 105.98403,153.95559 a 0.9960257,0.99602565 0 0 1 -0.99603,0.99601 0.9960257,0.99602565 0 0 1 -0.99603,-0.99601 0.9960257,0.99602565 0 0 1 0.99603,-0.99602 0.9960257,0.99602565 0 0 1 0.99603,0.99602 z"
       style="fill:#ff0000;fill-opacity:1;fill-rule:evenodd;stroke:#000000;stroke-width:0.00794853;stroke-opacity:1"
       id="path99" />
    <path
       inkscape:connector-curvature="0"
       d="m 102.12543,152.3452 a 0.9960257,0.99602565 0 0 1 -0.99603,0.99601 0.9960257,0.99602565 0 0 1 -0.99603,-0.99601 0.9960257,0.99602565 0 0 1 0.99603,-0.99602 0.9960257,0.99602565 0 0 1 0.99603,0.99602 z"
       style="fill:#ff0000;fill-opacity:1;fill-rule:evenodd;stroke:#000000;stroke-width:0.00794853;stroke-opacity:1"
       id="path5624" />
    <path
       inkscape:connector-curvature="0"
       d="m 100.53983,148.47652 a 0.9960257,0.99602565 0 0 1 -0.99603,0.99601 0.9960257,0.99602565 0 0 1 -0.99603,-0.99601 0.9960257,0.99602565 0 0 1 0.99603,-0.99602 0.9960257,0.99602565 0 0 1 0.99603,0.99602 z"
       style="fill:#ff0000;fill-opacity:1;fill-rule:evenodd;stroke:#000000;stroke-width:0.00794853;stroke-opacity:1"
       id="path7353" />
    <path
       inkscape:connector-curvature="0"
       d="m 102.15863,144.62132 a 0.9960257,0.99602565 0 0 1 -0.99603,0.99601 0.9960257,0.99602565 0 0 1 -0.99603,-0.99601 0.9960257,0.99602565 0 0 1 0.99603,-0.99602 0.9960257,0.99602565 0 0 1 0.99603,0.99602 z"
       style="fill:#ff0000;fill-opacity:1;fill-rule:evenodd;stroke:#000000;stroke-width:0.00794853;stroke-opacity:1"
       id="path9433" />
    <path
       inkscape:connector-curvature="0"
       d="m 106.03103,143.04442 a 0.9960257,0.99602565 0 0 1 -0.99603,0.99601 0.9960257,0.99602565 0 0 1 -0.99603,-0.99601 0.9960257,0.99602565 0 0 1 0.99603,-0.99602 0.9960257,0.99602565 0 0 1 0.99603,0.99602 z"
       style="fill:#ff0000;fill-opacity:1;fill-rule:evenodd;stroke:#000000;stroke-width:0.00794853;stroke-opacity:1"
       id="path9170" />
    <path
       inkscape:connector-curvature="0"
       d="m 109.88213,144.67192 a 0.9960257,0.99602565 0 0 1 -0.99603,0.99601 0.9960257,0.99602565 0 0 1 -0.99603,-0.99601 0.9960257,0.99602565 0 0 1 0.99603,-0.99602 0.9960257,0.99602565 0 0 1 0.99603,0.99602 z"
       style="fill:#ff0000;fill-opacity:1;fill-rule:evenodd;stroke:#000000;stroke-width:0.00794853;stroke-opacity:1"
       id="path7006" />
    <rect
       style="fill:none;fill-opacity:1;stroke:#000000;stroke-width:0.264583;stroke-opacity:1"
       id="rect13856"
       width="152"
       height="161"
       x="29"
       y="68" />
    <circle
       r="45"
       cy="148.5"
       cx="105"
       id="path15190"
       style="fill:none;fill-rule:evenodd;stroke:#000000;stroke-width:0.446067;stroke-opacity:1" />
    <circle
       r="36.5"
       cy="148.5"
       cx="105"
       id="path15192"
       style="fill:none;fill-rule:evenodd;stroke:#000000;stroke-width:0.446072;stroke-opacity:1" />
  </g>
</svg>
