%TF.GenerationSoftware,KiCad,Pcbnew,(5.1.8-0-10_14)*%
%TF.CreationDate,2021-01-10T22:50:04+01:00*%
%TF.ProjectId,Tonuino-ESP32_2,546f6e75-696e-46f2-9d45-535033325f32,rev?*%
%TF.SameCoordinates,Original*%
%TF.FileFunction,Soldermask,Bot*%
%TF.FilePolarity,Negative*%
%FSLAX46Y46*%
G04 Gerber Fmt 4.6, Leading zero omitted, Abs format (unit mm)*
G04 Created by KiCad (PCBNEW (5.1.8-0-10_14)) date 2021-01-10 22:50:04*
%MOMM*%
%LPD*%
G01*
G04 APERTURE LIST*
%ADD10C,5.700000*%
%ADD11C,1.530000*%
%ADD12R,1.530000X1.530000*%
%ADD13O,1.700000X1.700000*%
%ADD14R,1.700000X1.700000*%
%ADD15C,1.676400*%
%ADD16O,2.000000X1.905000*%
%ADD17R,2.000000X1.905000*%
%ADD18R,1.500000X1.500000*%
%ADD19C,1.500000*%
G04 APERTURE END LIST*
D10*
%TO.C,REF\u002A\u002A*%
X201554080Y-108699300D03*
%TD*%
%TO.C,REF\u002A\u002A*%
X137579100Y-34841180D03*
%TD*%
D11*
%TO.C,U1*%
X166370000Y-62240000D03*
X166370000Y-64780000D03*
X166370000Y-67320000D03*
X166370000Y-69860000D03*
X166370000Y-72400000D03*
X166370000Y-74940000D03*
X166370000Y-77480000D03*
X166370000Y-80020000D03*
X166370000Y-82560000D03*
X166370000Y-85100000D03*
X166370000Y-87640000D03*
X166370000Y-90180000D03*
X166370000Y-92720000D03*
X166370000Y-95260000D03*
X166370000Y-97800000D03*
X166370000Y-100340000D03*
X166370000Y-102880000D03*
X166370000Y-105420000D03*
X166370000Y-107960000D03*
X140970000Y-107960000D03*
X140970000Y-105420000D03*
X140970000Y-102880000D03*
X140970000Y-100340000D03*
X140970000Y-97800000D03*
X140970000Y-95260000D03*
X140970000Y-92720000D03*
X140970000Y-90180000D03*
X140970000Y-87640000D03*
X140970000Y-85100000D03*
X140970000Y-82560000D03*
X140970000Y-80020000D03*
X140970000Y-77480000D03*
X140970000Y-74940000D03*
X140970000Y-72400000D03*
X140970000Y-69860000D03*
X140970000Y-67320000D03*
X140970000Y-64780000D03*
D12*
X140970000Y-62240000D03*
%TD*%
D13*
%TO.C,J1*%
X177800000Y-68580000D03*
X180340000Y-68580000D03*
X182880000Y-68580000D03*
X185420000Y-68580000D03*
X187960000Y-68580000D03*
D14*
X190500000Y-68580000D03*
%TD*%
D13*
%TO.C,J9*%
X177800000Y-35560000D03*
D14*
X175260000Y-35560000D03*
%TD*%
D13*
%TO.C,J8*%
X199390000Y-35560000D03*
X199390000Y-38100000D03*
D14*
X199390000Y-40640000D03*
%TD*%
D13*
%TO.C,J7*%
X189230000Y-40640000D03*
D14*
X186690000Y-40640000D03*
%TD*%
D13*
%TO.C,J6*%
X189230000Y-35560000D03*
D14*
X186690000Y-35560000D03*
%TD*%
D13*
%TO.C,J5*%
X189230000Y-45720000D03*
D14*
X186690000Y-45720000D03*
%TD*%
D13*
%TO.C,J2*%
X199390000Y-48260000D03*
X199390000Y-50800000D03*
X199390000Y-53340000D03*
X199390000Y-55880000D03*
X199390000Y-58420000D03*
X199390000Y-60960000D03*
X199390000Y-63500000D03*
D14*
X199390000Y-66040000D03*
%TD*%
D13*
%TO.C,J3*%
X139766040Y-50185320D03*
X142306040Y-50185320D03*
X144846040Y-50185320D03*
X147386040Y-50185320D03*
X149926040Y-50185320D03*
X152466040Y-50185320D03*
D14*
X155006040Y-50185320D03*
%TD*%
D13*
%TO.C,J4*%
X190500000Y-53340000D03*
X187960000Y-53340000D03*
X185420000Y-53340000D03*
X182880000Y-53340000D03*
D14*
X180340000Y-53340000D03*
%TD*%
D15*
%TO.C,R5*%
X181102000Y-46990000D03*
X171958000Y-46990000D03*
%TD*%
%TO.C,R4*%
X181102000Y-40640000D03*
X171958000Y-40640000D03*
%TD*%
%TO.C,R1*%
X160020000Y-46990000D03*
X169164000Y-46990000D03*
%TD*%
D16*
%TO.C,Q2*%
X166370000Y-36830000D03*
X166370000Y-39370000D03*
D17*
X166370000Y-41910000D03*
%TD*%
D18*
%TO.C,Q1*%
X172720000Y-53340000D03*
D19*
X167640000Y-53340000D03*
X170180000Y-53340000D03*
%TD*%
M02*
