M48
; DRILL file {KiCad (5.1.8-0-10_14)} date Sunday, January 10, 2021 at 10:49:59 PM
; FORMAT={-:-/ absolute / metric / decimal}
; #@! TF.CreationDate,2021-01-10T22:49:59+01:00
; #@! TF.GenerationSoftware,Kicad,Pcbnew,(5.1.8-0-10_14)
; #@! TF.FileFunction,Plated,1,2,PTH
FMAT,2
METRIC
T1C0.400
T2C0.800
T3C0.813
T4C1.000
T5C1.020
T6C1.100
T7C3.200
%
G90
G05
T1
X153.67Y-72.39
X157.48Y-78.74
X162.56Y-85.09
X171.45Y-71.12
X180.34Y-72.39
X193.04Y-64.77
T2
X167.64Y-53.34
X170.18Y-53.34
X172.72Y-53.34
T3
X160.02Y-46.99
X169.164Y-46.99
X171.958Y-40.64
X181.102Y-40.64
X171.958Y-46.99
X181.102Y-46.99
T4
X199.39Y-48.26
X199.39Y-50.8
X199.39Y-53.34
X199.39Y-55.88
X199.39Y-58.42
X199.39Y-60.96
X199.39Y-63.5
X199.39Y-66.04
X175.26Y-35.56
X177.8Y-35.56
X186.69Y-40.64
X189.23Y-40.64
X186.69Y-35.56
X189.23Y-35.56
X177.8Y-68.58
X180.34Y-68.58
X182.88Y-68.58
X185.42Y-68.58
X187.96Y-68.58
X190.5Y-68.58
X199.39Y-35.56
X199.39Y-38.1
X199.39Y-40.64
X180.34Y-53.34
X182.88Y-53.34
X185.42Y-53.34
X187.96Y-53.34
X190.5Y-53.34
X139.766Y-50.185
X142.306Y-50.185
X144.846Y-50.185
X147.386Y-50.185
X149.926Y-50.185
X152.466Y-50.185
X155.006Y-50.185
X186.69Y-45.72
X189.23Y-45.72
T5
X140.97Y-62.24
X140.97Y-64.78
X140.97Y-67.32
X140.97Y-69.86
X140.97Y-72.4
X140.97Y-74.94
X140.97Y-77.48
X140.97Y-80.02
X140.97Y-82.56
X140.97Y-85.1
X140.97Y-87.64
X140.97Y-90.18
X140.97Y-92.72
X140.97Y-95.26
X140.97Y-97.8
X140.97Y-100.34
X140.97Y-102.88
X140.97Y-105.42
X140.97Y-107.96
X166.37Y-62.24
X166.37Y-64.78
X166.37Y-67.32
X166.37Y-69.86
X166.37Y-72.4
X166.37Y-74.94
X166.37Y-77.48
X166.37Y-80.02
X166.37Y-82.56
X166.37Y-85.1
X166.37Y-87.64
X166.37Y-90.18
X166.37Y-92.72
X166.37Y-95.26
X166.37Y-97.8
X166.37Y-100.34
X166.37Y-102.88
X166.37Y-105.42
X166.37Y-107.96
T6
X166.37Y-36.83
X166.37Y-39.37
X166.37Y-41.91
T7
X201.554Y-108.699
X137.579Y-34.841
T0
M30
