%TF.GenerationSoftware,KiCad,Pcbnew,(5.1.8-0-10_14)*%
%TF.CreationDate,2021-01-10T22:50:04+01:00*%
%TF.ProjectId,Tonuino-ESP32_2,546f6e75-696e-46f2-9d45-535033325f32,rev?*%
%TF.SameCoordinates,Original*%
%TF.FileFunction,Copper,L2,Bot*%
%TF.FilePolarity,Positive*%
%FSLAX46Y46*%
G04 Gerber Fmt 4.6, Leading zero omitted, Abs format (unit mm)*
G04 Created by KiCad (PCBNEW (5.1.8-0-10_14)) date 2021-01-10 22:50:04*
%MOMM*%
%LPD*%
G01*
G04 APERTURE LIST*
%TA.AperFunction,ComponentPad*%
%ADD10C,5.700000*%
%TD*%
%TA.AperFunction,ComponentPad*%
%ADD11C,1.530000*%
%TD*%
%TA.AperFunction,ComponentPad*%
%ADD12R,1.530000X1.530000*%
%TD*%
%TA.AperFunction,ComponentPad*%
%ADD13O,1.700000X1.700000*%
%TD*%
%TA.AperFunction,ComponentPad*%
%ADD14R,1.700000X1.700000*%
%TD*%
%TA.AperFunction,ComponentPad*%
%ADD15C,1.676400*%
%TD*%
%TA.AperFunction,ComponentPad*%
%ADD16O,2.000000X1.905000*%
%TD*%
%TA.AperFunction,ComponentPad*%
%ADD17R,2.000000X1.905000*%
%TD*%
%TA.AperFunction,ComponentPad*%
%ADD18R,1.500000X1.500000*%
%TD*%
%TA.AperFunction,ComponentPad*%
%ADD19C,1.500000*%
%TD*%
%TA.AperFunction,ViaPad*%
%ADD20C,0.800000*%
%TD*%
%TA.AperFunction,Conductor*%
%ADD21C,0.400000*%
%TD*%
%TA.AperFunction,Conductor*%
%ADD22C,0.254000*%
%TD*%
%TA.AperFunction,Conductor*%
%ADD23C,0.100000*%
%TD*%
G04 APERTURE END LIST*
D10*
%TO.P,REF\u002A\u002A,1*%
%TO.N,N/C*%
X201554080Y-108699300D03*
%TD*%
%TO.P,REF\u002A\u002A,1*%
%TO.N,N/C*%
X137579100Y-34841180D03*
%TD*%
D11*
%TO.P,U1,38*%
%TO.N,GND*%
X166370000Y-62240000D03*
%TO.P,U1,37*%
%TO.N,RFID_MOSI*%
X166370000Y-64780000D03*
%TO.P,U1,36*%
%TO.N,RFID_RST*%
X166370000Y-67320000D03*
%TO.P,U1,35*%
%TO.N,Net-(U1-Pad35)*%
X166370000Y-69860000D03*
%TO.P,U1,34*%
%TO.N,Net-(U1-Pad34)*%
X166370000Y-72400000D03*
%TO.P,U1,33*%
%TO.N,RFID_SDA*%
X166370000Y-74940000D03*
%TO.P,U1,32*%
%TO.N,GND*%
X166370000Y-77480000D03*
%TO.P,U1,31*%
%TO.N,RFID_MISO*%
X166370000Y-80020000D03*
%TO.P,U1,30*%
%TO.N,RFID_SCK*%
X166370000Y-82560000D03*
%TO.P,U1,29*%
%TO.N,BUTTON_PLAY_PAUSE_PIN*%
X166370000Y-85100000D03*
%TO.P,U1,28*%
%TO.N,GPIO-17*%
X166370000Y-87640000D03*
%TO.P,U1,27*%
%TO.N,SD-CARD_MISO*%
X166370000Y-90180000D03*
%TO.P,U1,26*%
%TO.N,BUTTON_NEXT_PIN*%
X166370000Y-92720000D03*
%TO.P,U1,25*%
%TO.N,Net-(U1-Pad25)*%
X166370000Y-95260000D03*
%TO.P,U1,24*%
%TO.N,Net-(U1-Pad24)*%
X166370000Y-97800000D03*
%TO.P,U1,23*%
%TO.N,SD-CARD_CS*%
X166370000Y-100340000D03*
%TO.P,U1,22*%
%TO.N,Net-(U1-Pad22)*%
X166370000Y-102880000D03*
%TO.P,U1,21*%
%TO.N,Net-(U1-Pad21)*%
X166370000Y-105420000D03*
%TO.P,U1,20*%
%TO.N,Net-(U1-Pad20)*%
X166370000Y-107960000D03*
%TO.P,U1,19*%
%TO.N,VCC*%
X140970000Y-107960000D03*
%TO.P,U1,18*%
%TO.N,Net-(U1-Pad18)*%
X140970000Y-105420000D03*
%TO.P,U1,17*%
%TO.N,Net-(U1-Pad17)*%
X140970000Y-102880000D03*
%TO.P,U1,16*%
%TO.N,Net-(U1-Pad16)*%
X140970000Y-100340000D03*
%TO.P,U1,15*%
%TO.N,SD-CARD_MOSI*%
X140970000Y-97800000D03*
%TO.P,U1,14*%
%TO.N,GND*%
X140970000Y-95260000D03*
%TO.P,U1,13*%
%TO.N,NEOPIXEL_DI*%
X140970000Y-92720000D03*
%TO.P,U1,12*%
%TO.N,SD-CARD_SCK*%
X140970000Y-90180000D03*
%TO.P,U1,11*%
%TO.N,MAX98357_BLCK*%
X140970000Y-87640000D03*
%TO.P,U1,10*%
%TO.N,MAX98357_LRC*%
X140970000Y-85100000D03*
%TO.P,U1,9*%
%TO.N,MAX98357_DIN*%
X140970000Y-82560000D03*
%TO.P,U1,8*%
%TO.N,BUTTON_PREVIOUS_PIN*%
X140970000Y-80020000D03*
%TO.P,U1,7*%
%TO.N,ROTARY_BUTTON*%
X140970000Y-77480000D03*
%TO.P,U1,6*%
%TO.N,ROTARY_DT*%
X140970000Y-74940000D03*
%TO.P,U1,5*%
%TO.N,ROTARY_CLR*%
X140970000Y-72400000D03*
%TO.P,U1,4*%
%TO.N,Net-(U1-Pad4)*%
X140970000Y-69860000D03*
%TO.P,U1,3*%
%TO.N,Net-(U1-Pad3)*%
X140970000Y-67320000D03*
%TO.P,U1,2*%
%TO.N,Net-(U1-Pad2)*%
X140970000Y-64780000D03*
D12*
%TO.P,U1,1*%
%TO.N,3.3V*%
X140970000Y-62240000D03*
%TD*%
D13*
%TO.P,J1,6*%
%TO.N,SD-CARD_CS*%
X177800000Y-68580000D03*
%TO.P,J1,5*%
%TO.N,SD-CARD_SCK*%
X180340000Y-68580000D03*
%TO.P,J1,4*%
%TO.N,SD-CARD_MOSI*%
X182880000Y-68580000D03*
%TO.P,J1,3*%
%TO.N,SD-CARD_MISO*%
X185420000Y-68580000D03*
%TO.P,J1,2*%
%TO.N,SWITCHED_VCC*%
X187960000Y-68580000D03*
D14*
%TO.P,J1,1*%
%TO.N,GND*%
X190500000Y-68580000D03*
%TD*%
D13*
%TO.P,J9,2*%
%TO.N,VCC*%
X177800000Y-35560000D03*
D14*
%TO.P,J9,1*%
%TO.N,GND*%
X175260000Y-35560000D03*
%TD*%
D13*
%TO.P,J8,3*%
%TO.N,SWITCHED_VCC*%
X199390000Y-35560000D03*
%TO.P,J8,2*%
%TO.N,NEOPIXEL_DI*%
X199390000Y-38100000D03*
D14*
%TO.P,J8,1*%
%TO.N,GND*%
X199390000Y-40640000D03*
%TD*%
D13*
%TO.P,J7,2*%
%TO.N,BUTTON_PLAY_PAUSE_PIN*%
X189230000Y-40640000D03*
D14*
%TO.P,J7,1*%
%TO.N,GND*%
X186690000Y-40640000D03*
%TD*%
D13*
%TO.P,J6,2*%
%TO.N,BUTTON_NEXT_PIN*%
X189230000Y-35560000D03*
D14*
%TO.P,J6,1*%
%TO.N,GND*%
X186690000Y-35560000D03*
%TD*%
D13*
%TO.P,J5,2*%
%TO.N,BUTTON_PREVIOUS_PIN*%
X189230000Y-45720000D03*
D14*
%TO.P,J5,1*%
%TO.N,GND*%
X186690000Y-45720000D03*
%TD*%
D13*
%TO.P,J2,8*%
%TO.N,RFID_SDA*%
X199390000Y-48260000D03*
%TO.P,J2,7*%
%TO.N,RFID_SCK*%
X199390000Y-50800000D03*
%TO.P,J2,6*%
%TO.N,RFID_MOSI*%
X199390000Y-53340000D03*
%TO.P,J2,5*%
%TO.N,RFID_MISO*%
X199390000Y-55880000D03*
%TO.P,J2,4*%
%TO.N,Net-(J2-Pad4)*%
X199390000Y-58420000D03*
%TO.P,J2,3*%
%TO.N,GND*%
X199390000Y-60960000D03*
%TO.P,J2,2*%
%TO.N,RFID_RST*%
X199390000Y-63500000D03*
D14*
%TO.P,J2,1*%
%TO.N,GPIO-17*%
X199390000Y-66040000D03*
%TD*%
D13*
%TO.P,J3,7*%
%TO.N,MAX98357_LRC*%
X139766040Y-50185320D03*
%TO.P,J3,6*%
%TO.N,MAX98357_BLCK*%
X142306040Y-50185320D03*
%TO.P,J3,5*%
%TO.N,MAX98357_DIN*%
X144846040Y-50185320D03*
%TO.P,J3,4*%
%TO.N,Net-(J3-Pad4)*%
X147386040Y-50185320D03*
%TO.P,J3,3*%
%TO.N,Net-(J3-Pad3)*%
X149926040Y-50185320D03*
%TO.P,J3,2*%
%TO.N,GND*%
X152466040Y-50185320D03*
D14*
%TO.P,J3,1*%
%TO.N,SWITCHED_VCC*%
X155006040Y-50185320D03*
%TD*%
D13*
%TO.P,J4,5*%
%TO.N,ROTARY_BUTTON*%
X190500000Y-53340000D03*
%TO.P,J4,4*%
%TO.N,ROTARY_DT*%
X187960000Y-53340000D03*
%TO.P,J4,3*%
%TO.N,ROTARY_CLR*%
X185420000Y-53340000D03*
%TO.P,J4,2*%
%TO.N,3.3V*%
X182880000Y-53340000D03*
D14*
%TO.P,J4,1*%
%TO.N,GND*%
X180340000Y-53340000D03*
%TD*%
D15*
%TO.P,R5,2*%
%TO.N,GPIO-17*%
X181102000Y-46990000D03*
%TO.P,R5,1*%
%TO.N,Net-(Q1-Pad2)*%
X171958000Y-46990000D03*
%TD*%
%TO.P,R4,2*%
%TO.N,GND*%
X181102000Y-40640000D03*
%TO.P,R4,1*%
%TO.N,Net-(Q1-Pad2)*%
X171958000Y-40640000D03*
%TD*%
%TO.P,R1,2*%
%TO.N,Net-(Q1-Pad1)*%
X160020000Y-46990000D03*
%TO.P,R1,1*%
%TO.N,VCC*%
X169164000Y-46990000D03*
%TD*%
D16*
%TO.P,Q2,3*%
%TO.N,VCC*%
X166370000Y-36830000D03*
%TO.P,Q2,2*%
%TO.N,SWITCHED_VCC*%
X166370000Y-39370000D03*
D17*
%TO.P,Q2,1*%
%TO.N,Net-(Q1-Pad1)*%
X166370000Y-41910000D03*
%TD*%
D18*
%TO.P,Q1,1*%
%TO.N,Net-(Q1-Pad1)*%
X172720000Y-53340000D03*
D19*
%TO.P,Q1,3*%
%TO.N,GND*%
X167640000Y-53340000D03*
%TO.P,Q1,2*%
%TO.N,Net-(Q1-Pad2)*%
X170180000Y-53340000D03*
%TD*%
D20*
%TO.N,GND*%
X193040000Y-64770000D03*
X153670000Y-72390000D03*
%TO.N,GPIO-17*%
X157480000Y-78740000D03*
X162560000Y-85090000D03*
%TO.N,RFID_RST*%
X180340000Y-72390000D03*
X171450000Y-71120000D03*
%TD*%
D21*
%TO.N,Net-(Q1-Pad2)*%
X171958000Y-40640000D02*
X171958000Y-46990000D01*
X170180000Y-53340000D02*
X170180000Y-50800000D01*
X171958000Y-49022000D02*
X171958000Y-46990000D01*
X170180000Y-50800000D02*
X171958000Y-49022000D01*
%TO.N,GPIO-17*%
X157480000Y-80010000D02*
X162560000Y-85090000D01*
X157480000Y-78740000D02*
X157480000Y-80010000D01*
X181102000Y-46990000D02*
X182372000Y-48260000D01*
X182372000Y-48260000D02*
X195580000Y-48260000D01*
X195580000Y-48260000D02*
X198120000Y-45720000D01*
X198120000Y-45720000D02*
X200660000Y-45720000D01*
X200660000Y-45720000D02*
X201930000Y-46990000D01*
X201930000Y-46990000D02*
X201930000Y-64770000D01*
X201930000Y-64770000D02*
X200660000Y-66040000D01*
X199390000Y-66040000D02*
X200660000Y-66040000D01*
%TO.N,SD-CARD_SCK*%
X179070000Y-86360000D02*
X182880000Y-82550000D01*
X153670000Y-86360000D02*
X179070000Y-86360000D01*
X149850000Y-90180000D02*
X153670000Y-86360000D01*
X140970000Y-90180000D02*
X149850000Y-90180000D01*
X182880000Y-71120000D02*
X180340000Y-68580000D01*
X182880000Y-82550000D02*
X182880000Y-71120000D01*
%TO.N,SD-CARD_MOSI*%
X177800000Y-88900000D02*
X152400000Y-88900000D01*
X143500000Y-97800000D02*
X140970000Y-97800000D01*
X152400000Y-88900000D02*
X143500000Y-97800000D01*
X182880000Y-68580000D02*
X182880000Y-69850000D01*
X182880000Y-69850000D02*
X184150000Y-71120000D01*
X184150000Y-82550000D02*
X177800000Y-88900000D01*
X184150000Y-71120000D02*
X184150000Y-82550000D01*
%TO.N,SD-CARD_MISO*%
X166370000Y-90180000D02*
X177790000Y-90180000D01*
X177790000Y-90180000D02*
X185420000Y-82550000D01*
X185420000Y-82550000D02*
X185420000Y-68580000D01*
%TO.N,SWITCHED_VCC*%
X154940000Y-50119280D02*
X155006040Y-50185320D01*
X199390000Y-35560000D02*
X195580000Y-31750000D01*
X195580000Y-31750000D02*
X165928040Y-31750000D01*
X165928040Y-31750000D02*
X163520120Y-34157920D01*
X163520120Y-34157920D02*
X163520120Y-38343840D01*
X164546280Y-39370000D02*
X166370000Y-39370000D01*
X163520120Y-38343840D02*
X164546280Y-39370000D01*
%TO.N,RFID_SDA*%
X199390000Y-48260000D02*
X185420000Y-62230000D01*
X185420000Y-62230000D02*
X168910000Y-62230000D01*
X168910000Y-62230000D02*
X167640000Y-63500000D01*
X167640000Y-63500000D02*
X165100000Y-63500000D01*
X165100000Y-63500000D02*
X163830000Y-64770000D01*
X163830000Y-64770000D02*
X163830000Y-73660000D01*
X165110000Y-74940000D02*
X166370000Y-74940000D01*
X163830000Y-73660000D02*
X165110000Y-74940000D01*
%TO.N,RFID_SCK*%
X199950003Y-54629999D02*
X195560001Y-54629999D01*
X200640001Y-53940001D02*
X199950003Y-54629999D01*
X200640001Y-52050001D02*
X200640001Y-53940001D01*
X199390000Y-50800000D02*
X200640001Y-52050001D01*
X195560001Y-54629999D02*
X185420000Y-64770000D01*
X185420000Y-64770000D02*
X170180000Y-64770000D01*
X170180000Y-64770000D02*
X168910000Y-66040000D01*
X168910000Y-66040000D02*
X168910000Y-81280000D01*
X167630000Y-82560000D02*
X166370000Y-82560000D01*
X168910000Y-81280000D02*
X167630000Y-82560000D01*
%TO.N,RFID_MOSI*%
X199390000Y-53340000D02*
X195580000Y-53340000D01*
X195580000Y-53340000D02*
X185420000Y-63500000D01*
X185420000Y-63500000D02*
X168910000Y-63500000D01*
X167630000Y-64780000D02*
X166370000Y-64780000D01*
X168910000Y-63500000D02*
X167630000Y-64780000D01*
%TO.N,RFID_MISO*%
X199390000Y-55880000D02*
X195580000Y-55880000D01*
X195580000Y-55880000D02*
X185420000Y-66040000D01*
X185420000Y-66040000D02*
X171450000Y-66040000D01*
X171450000Y-66040000D02*
X170180000Y-67310000D01*
X170180000Y-67310000D02*
X170180000Y-81280000D01*
X170180000Y-81280000D02*
X167640000Y-83820000D01*
X167640000Y-83820000D02*
X165100000Y-83820000D01*
X165100000Y-83820000D02*
X163830000Y-82550000D01*
X163830000Y-82550000D02*
X163830000Y-81280000D01*
X165090000Y-80020000D02*
X166370000Y-80020000D01*
X163830000Y-81280000D02*
X165090000Y-80020000D01*
%TO.N,RFID_RST*%
X172720000Y-72390000D02*
X171450000Y-71120000D01*
X180340000Y-72390000D02*
X172720000Y-72390000D01*
%TO.N,3.3V*%
X182880000Y-53340000D02*
X185420000Y-50800000D01*
X185420000Y-50800000D02*
X191770000Y-50800000D01*
X191770000Y-50800000D02*
X193040000Y-52070000D01*
X193040000Y-52070000D02*
X193040000Y-53340000D01*
X193040000Y-53340000D02*
X185420000Y-60960000D01*
X185420000Y-60960000D02*
X148590000Y-60960000D01*
X148590000Y-60960000D02*
X147320000Y-62230000D01*
X147320000Y-62230000D02*
X147320000Y-73660000D01*
X147320000Y-73660000D02*
X142240000Y-78740000D01*
X142240000Y-78740000D02*
X139700000Y-78740000D01*
X139700000Y-78740000D02*
X138430000Y-77470000D01*
X138430000Y-64780000D02*
X140970000Y-62240000D01*
X138430000Y-77470000D02*
X138430000Y-64780000D01*
%TO.N,ROTARY_CLR*%
X143510000Y-69860000D02*
X140970000Y-72400000D01*
X144780000Y-57150000D02*
X143510000Y-58420000D01*
X143510000Y-58420000D02*
X143510000Y-69860000D01*
X185420000Y-53340000D02*
X181610000Y-57150000D01*
X181610000Y-57150000D02*
X144780000Y-57150000D01*
%TO.N,ROTARY_DT*%
X144780000Y-71130000D02*
X140970000Y-74940000D01*
X182880000Y-58420000D02*
X146050000Y-58420000D01*
X144780000Y-59690000D02*
X144780000Y-71130000D01*
X146050000Y-58420000D02*
X144780000Y-59690000D01*
X187960000Y-53340000D02*
X182880000Y-58420000D01*
%TO.N,ROTARY_BUTTON*%
X146050000Y-72400000D02*
X140970000Y-77480000D01*
X147320000Y-59690000D02*
X146050000Y-60960000D01*
X184150000Y-59690000D02*
X147320000Y-59690000D01*
X146050000Y-60960000D02*
X146050000Y-72400000D01*
X190500000Y-53340000D02*
X184150000Y-59690000D01*
%TO.N,BUTTON_PLAY_PAUSE_PIN*%
X189230000Y-40640000D02*
X189230000Y-41910000D01*
%TO.N,VCC*%
X168910000Y-39370000D02*
X170180000Y-38100000D01*
X170180000Y-38100000D02*
X176530000Y-38100000D01*
X177800000Y-36830000D02*
X177800000Y-35560000D01*
X176530000Y-38100000D02*
X177800000Y-36830000D01*
X168910000Y-46736000D02*
X169164000Y-46990000D01*
X168910000Y-39370000D02*
X168910000Y-46736000D01*
X167640000Y-38100000D02*
X166794271Y-37254271D01*
X170180000Y-38100000D02*
X167640000Y-38100000D01*
%TO.N,MAX98357_LRC*%
X138242040Y-50185320D02*
X139766040Y-50185320D01*
X137160000Y-82550000D02*
X137160000Y-51267360D01*
X137160000Y-51267360D02*
X138242040Y-50185320D01*
X139710000Y-85100000D02*
X137160000Y-82550000D01*
X140970000Y-85100000D02*
X139710000Y-85100000D01*
%TO.N,MAX98357_DIN*%
X144846040Y-47525940D02*
X144846040Y-50185320D01*
X144160240Y-46840140D02*
X144846040Y-47525940D01*
X140970000Y-82560000D02*
X142230000Y-82560000D01*
X134620000Y-48320960D02*
X136100820Y-46840140D01*
X138430000Y-88900000D02*
X134620000Y-85090000D01*
X143510000Y-87630000D02*
X142240000Y-88900000D01*
X142230000Y-82560000D02*
X142240000Y-82550000D01*
X134620000Y-85090000D02*
X134620000Y-48320960D01*
X142240000Y-82550000D02*
X143510000Y-83820000D01*
X136100820Y-46840140D02*
X144160240Y-46840140D01*
X142240000Y-88900000D02*
X138430000Y-88900000D01*
X143510000Y-83820000D02*
X143510000Y-87630000D01*
%TO.N,MAX98357_BLCK*%
X142306040Y-48839120D02*
X142306040Y-50185320D01*
X141566900Y-48099980D02*
X142306040Y-48839120D01*
X140970000Y-87640000D02*
X139710000Y-87640000D01*
X136895840Y-48099980D02*
X141566900Y-48099980D01*
X135890000Y-83820000D02*
X135890000Y-49105820D01*
X139710000Y-87640000D02*
X135890000Y-83820000D01*
X135890000Y-49105820D02*
X136895840Y-48099980D01*
%TO.N,Net-(Q1-Pad1)*%
X160020000Y-46990000D02*
X160020000Y-45720000D01*
X163830000Y-41910000D02*
X166370000Y-41910000D01*
X160020000Y-45720000D02*
X163830000Y-41910000D01*
%TD*%
D22*
%TO.N,GND*%
X165334749Y-31156709D02*
X165308599Y-31188573D01*
X162958699Y-33538474D01*
X162926829Y-33564629D01*
X162822485Y-33691774D01*
X162822484Y-33691775D01*
X162744948Y-33836834D01*
X162697202Y-33994232D01*
X162681080Y-34157920D01*
X162685120Y-34198939D01*
X162685121Y-38302812D01*
X162681080Y-38343840D01*
X162697202Y-38507528D01*
X162744948Y-38664926D01*
X162822484Y-38809985D01*
X162822485Y-38809986D01*
X162926830Y-38937131D01*
X162958694Y-38963281D01*
X163926838Y-39931426D01*
X163952989Y-39963291D01*
X164080134Y-40067636D01*
X164225193Y-40145172D01*
X164382591Y-40192918D01*
X164505261Y-40205000D01*
X164505271Y-40205000D01*
X164546279Y-40209039D01*
X164587287Y-40205000D01*
X164968769Y-40205000D01*
X164996155Y-40256235D01*
X165099446Y-40382095D01*
X165015506Y-40426963D01*
X164918815Y-40506315D01*
X164839463Y-40603006D01*
X164780498Y-40713320D01*
X164744188Y-40833018D01*
X164731928Y-40957500D01*
X164731928Y-41075000D01*
X163871018Y-41075000D01*
X163830000Y-41070960D01*
X163788982Y-41075000D01*
X163788981Y-41075000D01*
X163666311Y-41087082D01*
X163508913Y-41134828D01*
X163363854Y-41212364D01*
X163236709Y-41316709D01*
X163210563Y-41348568D01*
X159458574Y-45100559D01*
X159426710Y-45126709D01*
X159400562Y-45158571D01*
X159322364Y-45253855D01*
X159244828Y-45398914D01*
X159197082Y-45556312D01*
X159180960Y-45720000D01*
X159185001Y-45761028D01*
X159185001Y-45776126D01*
X159080890Y-45845691D01*
X158875691Y-46050890D01*
X158714467Y-46292178D01*
X158603414Y-46560283D01*
X158546800Y-46844902D01*
X158546800Y-47135098D01*
X158603414Y-47419717D01*
X158714467Y-47687822D01*
X158875691Y-47929110D01*
X159080890Y-48134309D01*
X159322178Y-48295533D01*
X159590283Y-48406586D01*
X159874902Y-48463200D01*
X160165098Y-48463200D01*
X160449717Y-48406586D01*
X160717822Y-48295533D01*
X160959110Y-48134309D01*
X161164309Y-47929110D01*
X161325533Y-47687822D01*
X161436586Y-47419717D01*
X161493200Y-47135098D01*
X161493200Y-46844902D01*
X161436586Y-46560283D01*
X161325533Y-46292178D01*
X161164309Y-46050890D01*
X161017143Y-45903724D01*
X164175869Y-42745000D01*
X164731928Y-42745000D01*
X164731928Y-42862500D01*
X164744188Y-42986982D01*
X164780498Y-43106680D01*
X164839463Y-43216994D01*
X164918815Y-43313685D01*
X165015506Y-43393037D01*
X165125820Y-43452002D01*
X165245518Y-43488312D01*
X165370000Y-43500572D01*
X167370000Y-43500572D01*
X167494482Y-43488312D01*
X167614180Y-43452002D01*
X167724494Y-43393037D01*
X167821185Y-43313685D01*
X167900537Y-43216994D01*
X167959502Y-43106680D01*
X167995812Y-42986982D01*
X168008072Y-42862500D01*
X168008072Y-40957500D01*
X167995812Y-40833018D01*
X167959502Y-40713320D01*
X167900537Y-40603006D01*
X167821185Y-40506315D01*
X167724494Y-40426963D01*
X167640554Y-40382095D01*
X167743845Y-40256235D01*
X167891255Y-39980449D01*
X167982030Y-39681204D01*
X168012681Y-39370000D01*
X167982030Y-39058796D01*
X167944477Y-38935000D01*
X168195717Y-38935000D01*
X168134828Y-39048914D01*
X168087082Y-39206312D01*
X168070960Y-39370000D01*
X168075000Y-39411019D01*
X168075001Y-45995580D01*
X168019691Y-46050890D01*
X167858467Y-46292178D01*
X167747414Y-46560283D01*
X167690800Y-46844902D01*
X167690800Y-47135098D01*
X167747414Y-47419717D01*
X167858467Y-47687822D01*
X168019691Y-47929110D01*
X168224890Y-48134309D01*
X168466178Y-48295533D01*
X168734283Y-48406586D01*
X169018902Y-48463200D01*
X169309098Y-48463200D01*
X169593717Y-48406586D01*
X169861822Y-48295533D01*
X170103110Y-48134309D01*
X170308309Y-47929110D01*
X170469533Y-47687822D01*
X170561000Y-47467002D01*
X170652467Y-47687822D01*
X170813691Y-47929110D01*
X171018890Y-48134309D01*
X171123000Y-48203874D01*
X171123000Y-48676131D01*
X169618574Y-50180559D01*
X169586710Y-50206709D01*
X169560562Y-50238571D01*
X169482364Y-50333855D01*
X169404828Y-50478914D01*
X169357082Y-50636312D01*
X169340960Y-50800000D01*
X169345001Y-50841028D01*
X169345000Y-52232204D01*
X169297114Y-52264201D01*
X169104201Y-52457114D01*
X168952629Y-52683957D01*
X168911489Y-52783279D01*
X168896277Y-52741168D01*
X168835860Y-52628137D01*
X168596993Y-52562612D01*
X167819605Y-53340000D01*
X168596993Y-54117388D01*
X168835860Y-54051863D01*
X168910164Y-53893523D01*
X168952629Y-53996043D01*
X169104201Y-54222886D01*
X169297114Y-54415799D01*
X169523957Y-54567371D01*
X169776011Y-54671775D01*
X170043589Y-54725000D01*
X170316411Y-54725000D01*
X170583989Y-54671775D01*
X170836043Y-54567371D01*
X171062886Y-54415799D01*
X171255799Y-54222886D01*
X171333555Y-54106517D01*
X171344188Y-54214482D01*
X171380498Y-54334180D01*
X171439463Y-54444494D01*
X171518815Y-54541185D01*
X171615506Y-54620537D01*
X171725820Y-54679502D01*
X171845518Y-54715812D01*
X171970000Y-54728072D01*
X173470000Y-54728072D01*
X173594482Y-54715812D01*
X173714180Y-54679502D01*
X173824494Y-54620537D01*
X173921185Y-54541185D01*
X174000537Y-54444494D01*
X174059502Y-54334180D01*
X174095812Y-54214482D01*
X174098223Y-54190000D01*
X178851928Y-54190000D01*
X178864188Y-54314482D01*
X178900498Y-54434180D01*
X178959463Y-54544494D01*
X179038815Y-54641185D01*
X179135506Y-54720537D01*
X179245820Y-54779502D01*
X179365518Y-54815812D01*
X179490000Y-54828072D01*
X180054250Y-54825000D01*
X180213000Y-54666250D01*
X180213000Y-53467000D01*
X179013750Y-53467000D01*
X178855000Y-53625750D01*
X178851928Y-54190000D01*
X174098223Y-54190000D01*
X174108072Y-54090000D01*
X174108072Y-52590000D01*
X174098224Y-52490000D01*
X178851928Y-52490000D01*
X178855000Y-53054250D01*
X179013750Y-53213000D01*
X180213000Y-53213000D01*
X180213000Y-52013750D01*
X180054250Y-51855000D01*
X179490000Y-51851928D01*
X179365518Y-51864188D01*
X179245820Y-51900498D01*
X179135506Y-51959463D01*
X179038815Y-52038815D01*
X178959463Y-52135506D01*
X178900498Y-52245820D01*
X178864188Y-52365518D01*
X178851928Y-52490000D01*
X174098224Y-52490000D01*
X174095812Y-52465518D01*
X174059502Y-52345820D01*
X174000537Y-52235506D01*
X173921185Y-52138815D01*
X173824494Y-52059463D01*
X173714180Y-52000498D01*
X173594482Y-51964188D01*
X173470000Y-51951928D01*
X171970000Y-51951928D01*
X171845518Y-51964188D01*
X171725820Y-52000498D01*
X171615506Y-52059463D01*
X171518815Y-52138815D01*
X171439463Y-52235506D01*
X171380498Y-52345820D01*
X171344188Y-52465518D01*
X171333555Y-52573483D01*
X171255799Y-52457114D01*
X171062886Y-52264201D01*
X171015000Y-52232205D01*
X171015000Y-51145867D01*
X172519433Y-49641436D01*
X172551291Y-49615291D01*
X172583545Y-49575990D01*
X172655636Y-49488146D01*
X172733172Y-49343087D01*
X172780918Y-49185688D01*
X172797040Y-49022000D01*
X172793000Y-48980982D01*
X172793000Y-48203873D01*
X172897110Y-48134309D01*
X173102309Y-47929110D01*
X173263533Y-47687822D01*
X173374586Y-47419717D01*
X173431200Y-47135098D01*
X173431200Y-46844902D01*
X173374586Y-46560283D01*
X173263533Y-46292178D01*
X173102309Y-46050890D01*
X172897110Y-45845691D01*
X172793000Y-45776127D01*
X172793000Y-44870000D01*
X185201928Y-44870000D01*
X185205000Y-45434250D01*
X185363750Y-45593000D01*
X186563000Y-45593000D01*
X186563000Y-44393750D01*
X186817000Y-44393750D01*
X186817000Y-45593000D01*
X186837000Y-45593000D01*
X186837000Y-45847000D01*
X186817000Y-45847000D01*
X186817000Y-47046250D01*
X186975750Y-47205000D01*
X187540000Y-47208072D01*
X187664482Y-47195812D01*
X187784180Y-47159502D01*
X187894494Y-47100537D01*
X187991185Y-47021185D01*
X188070537Y-46924494D01*
X188129502Y-46814180D01*
X188151513Y-46741620D01*
X188283368Y-46873475D01*
X188526589Y-47035990D01*
X188796842Y-47147932D01*
X189083740Y-47205000D01*
X189376260Y-47205000D01*
X189663158Y-47147932D01*
X189933411Y-47035990D01*
X190176632Y-46873475D01*
X190383475Y-46666632D01*
X190545990Y-46423411D01*
X190657932Y-46153158D01*
X190715000Y-45866260D01*
X190715000Y-45573740D01*
X190657932Y-45286842D01*
X190545990Y-45016589D01*
X190383475Y-44773368D01*
X190176632Y-44566525D01*
X189933411Y-44404010D01*
X189663158Y-44292068D01*
X189376260Y-44235000D01*
X189083740Y-44235000D01*
X188796842Y-44292068D01*
X188526589Y-44404010D01*
X188283368Y-44566525D01*
X188151513Y-44698380D01*
X188129502Y-44625820D01*
X188070537Y-44515506D01*
X187991185Y-44418815D01*
X187894494Y-44339463D01*
X187784180Y-44280498D01*
X187664482Y-44244188D01*
X187540000Y-44231928D01*
X186975750Y-44235000D01*
X186817000Y-44393750D01*
X186563000Y-44393750D01*
X186404250Y-44235000D01*
X185840000Y-44231928D01*
X185715518Y-44244188D01*
X185595820Y-44280498D01*
X185485506Y-44339463D01*
X185388815Y-44418815D01*
X185309463Y-44515506D01*
X185250498Y-44625820D01*
X185214188Y-44745518D01*
X185201928Y-44870000D01*
X172793000Y-44870000D01*
X172793000Y-41853873D01*
X172897110Y-41784309D01*
X173021444Y-41659975D01*
X180261630Y-41659975D01*
X180337838Y-41907844D01*
X180599865Y-42032563D01*
X180881189Y-42103768D01*
X181170999Y-42118719D01*
X181458157Y-42076845D01*
X181731628Y-41979754D01*
X181866162Y-41907844D01*
X181942370Y-41659975D01*
X181772395Y-41490000D01*
X185201928Y-41490000D01*
X185214188Y-41614482D01*
X185250498Y-41734180D01*
X185309463Y-41844494D01*
X185388815Y-41941185D01*
X185485506Y-42020537D01*
X185595820Y-42079502D01*
X185715518Y-42115812D01*
X185840000Y-42128072D01*
X186404250Y-42125000D01*
X186563000Y-41966250D01*
X186563000Y-40767000D01*
X185363750Y-40767000D01*
X185205000Y-40925750D01*
X185201928Y-41490000D01*
X181772395Y-41490000D01*
X181102000Y-40819605D01*
X180261630Y-41659975D01*
X173021444Y-41659975D01*
X173102309Y-41579110D01*
X173263533Y-41337822D01*
X173374586Y-41069717D01*
X173431200Y-40785098D01*
X173431200Y-40708999D01*
X179623281Y-40708999D01*
X179665155Y-40996157D01*
X179762246Y-41269628D01*
X179834156Y-41404162D01*
X180082025Y-41480370D01*
X180922395Y-40640000D01*
X181281605Y-40640000D01*
X182121975Y-41480370D01*
X182369844Y-41404162D01*
X182494563Y-41142135D01*
X182565768Y-40860811D01*
X182580719Y-40571001D01*
X182538845Y-40283843D01*
X182441754Y-40010372D01*
X182369844Y-39875838D01*
X182121975Y-39799630D01*
X181281605Y-40640000D01*
X180922395Y-40640000D01*
X180082025Y-39799630D01*
X179834156Y-39875838D01*
X179709437Y-40137865D01*
X179638232Y-40419189D01*
X179623281Y-40708999D01*
X173431200Y-40708999D01*
X173431200Y-40494902D01*
X173374586Y-40210283D01*
X173263533Y-39942178D01*
X173102309Y-39700890D01*
X173021444Y-39620025D01*
X180261630Y-39620025D01*
X181102000Y-40460395D01*
X181772395Y-39790000D01*
X185201928Y-39790000D01*
X185205000Y-40354250D01*
X185363750Y-40513000D01*
X186563000Y-40513000D01*
X186563000Y-39313750D01*
X186817000Y-39313750D01*
X186817000Y-40513000D01*
X186837000Y-40513000D01*
X186837000Y-40767000D01*
X186817000Y-40767000D01*
X186817000Y-41966250D01*
X186975750Y-42125000D01*
X187540000Y-42128072D01*
X187664482Y-42115812D01*
X187784180Y-42079502D01*
X187894494Y-42020537D01*
X187991185Y-41941185D01*
X188070537Y-41844494D01*
X188129502Y-41734180D01*
X188151513Y-41661620D01*
X188283368Y-41793475D01*
X188395001Y-41868066D01*
X188395001Y-41951019D01*
X188407083Y-42073689D01*
X188454829Y-42231087D01*
X188532365Y-42376146D01*
X188636710Y-42503291D01*
X188763855Y-42607636D01*
X188908914Y-42685172D01*
X189066312Y-42732918D01*
X189230000Y-42749040D01*
X189393689Y-42732918D01*
X189551087Y-42685172D01*
X189696146Y-42607636D01*
X189823291Y-42503291D01*
X189927636Y-42376146D01*
X190005172Y-42231087D01*
X190052918Y-42073689D01*
X190065000Y-41951019D01*
X190065000Y-41868065D01*
X190176632Y-41793475D01*
X190383475Y-41586632D01*
X190448042Y-41490000D01*
X197901928Y-41490000D01*
X197914188Y-41614482D01*
X197950498Y-41734180D01*
X198009463Y-41844494D01*
X198088815Y-41941185D01*
X198185506Y-42020537D01*
X198295820Y-42079502D01*
X198415518Y-42115812D01*
X198540000Y-42128072D01*
X199104250Y-42125000D01*
X199263000Y-41966250D01*
X199263000Y-40767000D01*
X199517000Y-40767000D01*
X199517000Y-41966250D01*
X199675750Y-42125000D01*
X200240000Y-42128072D01*
X200364482Y-42115812D01*
X200484180Y-42079502D01*
X200594494Y-42020537D01*
X200691185Y-41941185D01*
X200770537Y-41844494D01*
X200829502Y-41734180D01*
X200865812Y-41614482D01*
X200878072Y-41490000D01*
X200875000Y-40925750D01*
X200716250Y-40767000D01*
X199517000Y-40767000D01*
X199263000Y-40767000D01*
X198063750Y-40767000D01*
X197905000Y-40925750D01*
X197901928Y-41490000D01*
X190448042Y-41490000D01*
X190545990Y-41343411D01*
X190657932Y-41073158D01*
X190715000Y-40786260D01*
X190715000Y-40493740D01*
X190657932Y-40206842D01*
X190545990Y-39936589D01*
X190383475Y-39693368D01*
X190176632Y-39486525D01*
X189933411Y-39324010D01*
X189663158Y-39212068D01*
X189376260Y-39155000D01*
X189083740Y-39155000D01*
X188796842Y-39212068D01*
X188526589Y-39324010D01*
X188283368Y-39486525D01*
X188151513Y-39618380D01*
X188129502Y-39545820D01*
X188070537Y-39435506D01*
X187991185Y-39338815D01*
X187894494Y-39259463D01*
X187784180Y-39200498D01*
X187664482Y-39164188D01*
X187540000Y-39151928D01*
X186975750Y-39155000D01*
X186817000Y-39313750D01*
X186563000Y-39313750D01*
X186404250Y-39155000D01*
X185840000Y-39151928D01*
X185715518Y-39164188D01*
X185595820Y-39200498D01*
X185485506Y-39259463D01*
X185388815Y-39338815D01*
X185309463Y-39435506D01*
X185250498Y-39545820D01*
X185214188Y-39665518D01*
X185201928Y-39790000D01*
X181772395Y-39790000D01*
X181942370Y-39620025D01*
X181866162Y-39372156D01*
X181604135Y-39247437D01*
X181322811Y-39176232D01*
X181033001Y-39161281D01*
X180745843Y-39203155D01*
X180472372Y-39300246D01*
X180337838Y-39372156D01*
X180261630Y-39620025D01*
X173021444Y-39620025D01*
X172897110Y-39495691D01*
X172655822Y-39334467D01*
X172387717Y-39223414D01*
X172103098Y-39166800D01*
X171812902Y-39166800D01*
X171528283Y-39223414D01*
X171260178Y-39334467D01*
X171018890Y-39495691D01*
X170813691Y-39700890D01*
X170652467Y-39942178D01*
X170541414Y-40210283D01*
X170484800Y-40494902D01*
X170484800Y-40785098D01*
X170541414Y-41069717D01*
X170652467Y-41337822D01*
X170813691Y-41579110D01*
X171018890Y-41784309D01*
X171123000Y-41853873D01*
X171123001Y-45776126D01*
X171018890Y-45845691D01*
X170813691Y-46050890D01*
X170652467Y-46292178D01*
X170561000Y-46512998D01*
X170469533Y-46292178D01*
X170308309Y-46050890D01*
X170103110Y-45845691D01*
X169861822Y-45684467D01*
X169745000Y-45636078D01*
X169745000Y-39715867D01*
X170525868Y-38935000D01*
X176488982Y-38935000D01*
X176530000Y-38939040D01*
X176571018Y-38935000D01*
X176571019Y-38935000D01*
X176693689Y-38922918D01*
X176851087Y-38875172D01*
X176996146Y-38797636D01*
X177123291Y-38693291D01*
X177149446Y-38661421D01*
X178361428Y-37449440D01*
X178393291Y-37423291D01*
X178497636Y-37296146D01*
X178575172Y-37151087D01*
X178622918Y-36993689D01*
X178635000Y-36871019D01*
X178635000Y-36871017D01*
X178639040Y-36830001D01*
X178635000Y-36788985D01*
X178635000Y-36788065D01*
X178746632Y-36713475D01*
X178953475Y-36506632D01*
X179018042Y-36410000D01*
X185201928Y-36410000D01*
X185214188Y-36534482D01*
X185250498Y-36654180D01*
X185309463Y-36764494D01*
X185388815Y-36861185D01*
X185485506Y-36940537D01*
X185595820Y-36999502D01*
X185715518Y-37035812D01*
X185840000Y-37048072D01*
X186404250Y-37045000D01*
X186563000Y-36886250D01*
X186563000Y-35687000D01*
X185363750Y-35687000D01*
X185205000Y-35845750D01*
X185201928Y-36410000D01*
X179018042Y-36410000D01*
X179115990Y-36263411D01*
X179227932Y-35993158D01*
X179285000Y-35706260D01*
X179285000Y-35413740D01*
X179227932Y-35126842D01*
X179115990Y-34856589D01*
X179018043Y-34710000D01*
X185201928Y-34710000D01*
X185205000Y-35274250D01*
X185363750Y-35433000D01*
X186563000Y-35433000D01*
X186563000Y-34233750D01*
X186817000Y-34233750D01*
X186817000Y-35433000D01*
X186837000Y-35433000D01*
X186837000Y-35687000D01*
X186817000Y-35687000D01*
X186817000Y-36886250D01*
X186975750Y-37045000D01*
X187540000Y-37048072D01*
X187664482Y-37035812D01*
X187784180Y-36999502D01*
X187894494Y-36940537D01*
X187991185Y-36861185D01*
X188070537Y-36764494D01*
X188129502Y-36654180D01*
X188151513Y-36581620D01*
X188283368Y-36713475D01*
X188526589Y-36875990D01*
X188796842Y-36987932D01*
X189083740Y-37045000D01*
X189376260Y-37045000D01*
X189663158Y-36987932D01*
X189933411Y-36875990D01*
X190176632Y-36713475D01*
X190383475Y-36506632D01*
X190545990Y-36263411D01*
X190657932Y-35993158D01*
X190715000Y-35706260D01*
X190715000Y-35413740D01*
X190657932Y-35126842D01*
X190545990Y-34856589D01*
X190383475Y-34613368D01*
X190176632Y-34406525D01*
X189933411Y-34244010D01*
X189663158Y-34132068D01*
X189376260Y-34075000D01*
X189083740Y-34075000D01*
X188796842Y-34132068D01*
X188526589Y-34244010D01*
X188283368Y-34406525D01*
X188151513Y-34538380D01*
X188129502Y-34465820D01*
X188070537Y-34355506D01*
X187991185Y-34258815D01*
X187894494Y-34179463D01*
X187784180Y-34120498D01*
X187664482Y-34084188D01*
X187540000Y-34071928D01*
X186975750Y-34075000D01*
X186817000Y-34233750D01*
X186563000Y-34233750D01*
X186404250Y-34075000D01*
X185840000Y-34071928D01*
X185715518Y-34084188D01*
X185595820Y-34120498D01*
X185485506Y-34179463D01*
X185388815Y-34258815D01*
X185309463Y-34355506D01*
X185250498Y-34465820D01*
X185214188Y-34585518D01*
X185201928Y-34710000D01*
X179018043Y-34710000D01*
X178953475Y-34613368D01*
X178746632Y-34406525D01*
X178503411Y-34244010D01*
X178233158Y-34132068D01*
X177946260Y-34075000D01*
X177653740Y-34075000D01*
X177366842Y-34132068D01*
X177096589Y-34244010D01*
X176853368Y-34406525D01*
X176721513Y-34538380D01*
X176699502Y-34465820D01*
X176640537Y-34355506D01*
X176561185Y-34258815D01*
X176464494Y-34179463D01*
X176354180Y-34120498D01*
X176234482Y-34084188D01*
X176110000Y-34071928D01*
X175545750Y-34075000D01*
X175387000Y-34233750D01*
X175387000Y-35433000D01*
X175407000Y-35433000D01*
X175407000Y-35687000D01*
X175387000Y-35687000D01*
X175387000Y-36886250D01*
X175545750Y-37045000D01*
X176110000Y-37048072D01*
X176234482Y-37035812D01*
X176354180Y-36999502D01*
X176464494Y-36940537D01*
X176561185Y-36861185D01*
X176640537Y-36764494D01*
X176699502Y-36654180D01*
X176721513Y-36581620D01*
X176794513Y-36654620D01*
X176184133Y-37265000D01*
X170221015Y-37265000D01*
X170179999Y-37260960D01*
X170138983Y-37265000D01*
X167985868Y-37265000D01*
X167954110Y-37233243D01*
X167982030Y-37141204D01*
X168012681Y-36830000D01*
X167982030Y-36518796D01*
X167949028Y-36410000D01*
X173771928Y-36410000D01*
X173784188Y-36534482D01*
X173820498Y-36654180D01*
X173879463Y-36764494D01*
X173958815Y-36861185D01*
X174055506Y-36940537D01*
X174165820Y-36999502D01*
X174285518Y-37035812D01*
X174410000Y-37048072D01*
X174974250Y-37045000D01*
X175133000Y-36886250D01*
X175133000Y-35687000D01*
X173933750Y-35687000D01*
X173775000Y-35845750D01*
X173771928Y-36410000D01*
X167949028Y-36410000D01*
X167891255Y-36219551D01*
X167743845Y-35943765D01*
X167545463Y-35702037D01*
X167303735Y-35503655D01*
X167027949Y-35356245D01*
X166728704Y-35265470D01*
X166495486Y-35242500D01*
X166244514Y-35242500D01*
X166011296Y-35265470D01*
X165712051Y-35356245D01*
X165436265Y-35503655D01*
X165194537Y-35702037D01*
X164996155Y-35943765D01*
X164848745Y-36219551D01*
X164757970Y-36518796D01*
X164727319Y-36830000D01*
X164757970Y-37141204D01*
X164848745Y-37440449D01*
X164996155Y-37716235D01*
X165194537Y-37957963D01*
X165367609Y-38100000D01*
X165194537Y-38242037D01*
X164996155Y-38483765D01*
X164968769Y-38535000D01*
X164892148Y-38535000D01*
X164355120Y-37997973D01*
X164355120Y-34710000D01*
X173771928Y-34710000D01*
X173775000Y-35274250D01*
X173933750Y-35433000D01*
X175133000Y-35433000D01*
X175133000Y-34233750D01*
X174974250Y-34075000D01*
X174410000Y-34071928D01*
X174285518Y-34084188D01*
X174165820Y-34120498D01*
X174055506Y-34179463D01*
X173958815Y-34258815D01*
X173879463Y-34355506D01*
X173820498Y-34465820D01*
X173784188Y-34585518D01*
X173771928Y-34710000D01*
X164355120Y-34710000D01*
X164355120Y-34503787D01*
X166273908Y-32585000D01*
X195234133Y-32585000D01*
X197931193Y-35282061D01*
X197905000Y-35413740D01*
X197905000Y-35706260D01*
X197962068Y-35993158D01*
X198074010Y-36263411D01*
X198236525Y-36506632D01*
X198443368Y-36713475D01*
X198617760Y-36830000D01*
X198443368Y-36946525D01*
X198236525Y-37153368D01*
X198074010Y-37396589D01*
X197962068Y-37666842D01*
X197905000Y-37953740D01*
X197905000Y-38246260D01*
X197962068Y-38533158D01*
X198074010Y-38803411D01*
X198236525Y-39046632D01*
X198368380Y-39178487D01*
X198295820Y-39200498D01*
X198185506Y-39259463D01*
X198088815Y-39338815D01*
X198009463Y-39435506D01*
X197950498Y-39545820D01*
X197914188Y-39665518D01*
X197901928Y-39790000D01*
X197905000Y-40354250D01*
X198063750Y-40513000D01*
X199263000Y-40513000D01*
X199263000Y-40493000D01*
X199517000Y-40493000D01*
X199517000Y-40513000D01*
X200716250Y-40513000D01*
X200875000Y-40354250D01*
X200878072Y-39790000D01*
X200865812Y-39665518D01*
X200829502Y-39545820D01*
X200770537Y-39435506D01*
X200691185Y-39338815D01*
X200594494Y-39259463D01*
X200484180Y-39200498D01*
X200411620Y-39178487D01*
X200543475Y-39046632D01*
X200705990Y-38803411D01*
X200817932Y-38533158D01*
X200875000Y-38246260D01*
X200875000Y-37953740D01*
X200817932Y-37666842D01*
X200705990Y-37396589D01*
X200543475Y-37153368D01*
X200336632Y-36946525D01*
X200162240Y-36830000D01*
X200336632Y-36713475D01*
X200543475Y-36506632D01*
X200705990Y-36263411D01*
X200817932Y-35993158D01*
X200875000Y-35706260D01*
X200875000Y-35413740D01*
X200817932Y-35126842D01*
X200705990Y-34856589D01*
X200543475Y-34613368D01*
X200336632Y-34406525D01*
X200093411Y-34244010D01*
X199823158Y-34132068D01*
X199536260Y-34075000D01*
X199243740Y-34075000D01*
X199112061Y-34101193D01*
X196199446Y-31188579D01*
X196173291Y-31156709D01*
X196152931Y-31140000D01*
X201897721Y-31140000D01*
X202541222Y-31203096D01*
X203129164Y-31380606D01*
X203671436Y-31668937D01*
X204147364Y-32057094D01*
X204538845Y-32530314D01*
X204830951Y-33070552D01*
X205012563Y-33657244D01*
X205080000Y-34298879D01*
X205080001Y-109187711D01*
X205016904Y-109831221D01*
X204839394Y-110419164D01*
X204551063Y-110961436D01*
X204162906Y-111437364D01*
X203689686Y-111828845D01*
X203149449Y-112120950D01*
X202562756Y-112302563D01*
X201921130Y-112370000D01*
X137192279Y-112370000D01*
X136548779Y-112306904D01*
X135960836Y-112129394D01*
X135418564Y-111841063D01*
X134942636Y-111452906D01*
X134551155Y-110979686D01*
X134259050Y-110439449D01*
X134077437Y-109852756D01*
X134010000Y-109211130D01*
X134010000Y-95331899D01*
X139565064Y-95331899D01*
X139606086Y-95604607D01*
X139699522Y-95864072D01*
X139761894Y-95980760D01*
X140002293Y-96048102D01*
X140790395Y-95260000D01*
X141149605Y-95260000D01*
X141937707Y-96048102D01*
X142178106Y-95980760D01*
X142295506Y-95731220D01*
X142361967Y-95463573D01*
X142374936Y-95188101D01*
X142333914Y-94915393D01*
X142240478Y-94655928D01*
X142178106Y-94539240D01*
X141937707Y-94471898D01*
X141149605Y-95260000D01*
X140790395Y-95260000D01*
X140002293Y-94471898D01*
X139761894Y-94539240D01*
X139644494Y-94788780D01*
X139578033Y-95056427D01*
X139565064Y-95331899D01*
X134010000Y-95331899D01*
X134010000Y-85662931D01*
X134026709Y-85683291D01*
X134058579Y-85709446D01*
X137810561Y-89461430D01*
X137836709Y-89493291D01*
X137963854Y-89597636D01*
X138108913Y-89675172D01*
X138266311Y-89722918D01*
X138388981Y-89735000D01*
X138388982Y-89735000D01*
X138430000Y-89739040D01*
X138471018Y-89735000D01*
X139638976Y-89735000D01*
X139623801Y-89771635D01*
X139570000Y-90042112D01*
X139570000Y-90317888D01*
X139623801Y-90588365D01*
X139729336Y-90843149D01*
X139882549Y-91072448D01*
X140077552Y-91267451D01*
X140306851Y-91420664D01*
X140377674Y-91450000D01*
X140306851Y-91479336D01*
X140077552Y-91632549D01*
X139882549Y-91827552D01*
X139729336Y-92056851D01*
X139623801Y-92311635D01*
X139570000Y-92582112D01*
X139570000Y-92857888D01*
X139623801Y-93128365D01*
X139729336Y-93383149D01*
X139882549Y-93612448D01*
X140077552Y-93807451D01*
X140306851Y-93960664D01*
X140371594Y-93987482D01*
X140365928Y-93989522D01*
X140249240Y-94051894D01*
X140181898Y-94292293D01*
X140970000Y-95080395D01*
X141758102Y-94292293D01*
X141690760Y-94051894D01*
X141560664Y-93990688D01*
X141633149Y-93960664D01*
X141862448Y-93807451D01*
X142057451Y-93612448D01*
X142210664Y-93383149D01*
X142316199Y-93128365D01*
X142370000Y-92857888D01*
X142370000Y-92582112D01*
X142316199Y-92311635D01*
X142210664Y-92056851D01*
X142057451Y-91827552D01*
X141862448Y-91632549D01*
X141633149Y-91479336D01*
X141562326Y-91450000D01*
X141633149Y-91420664D01*
X141862448Y-91267451D01*
X142057451Y-91072448D01*
X142095837Y-91015000D01*
X149104132Y-91015000D01*
X143154133Y-96965000D01*
X142095837Y-96965000D01*
X142057451Y-96907552D01*
X141862448Y-96712549D01*
X141633149Y-96559336D01*
X141568406Y-96532518D01*
X141574072Y-96530478D01*
X141690760Y-96468106D01*
X141758102Y-96227707D01*
X140970000Y-95439605D01*
X140181898Y-96227707D01*
X140249240Y-96468106D01*
X140379336Y-96529312D01*
X140306851Y-96559336D01*
X140077552Y-96712549D01*
X139882549Y-96907552D01*
X139729336Y-97136851D01*
X139623801Y-97391635D01*
X139570000Y-97662112D01*
X139570000Y-97937888D01*
X139623801Y-98208365D01*
X139729336Y-98463149D01*
X139882549Y-98692448D01*
X140077552Y-98887451D01*
X140306851Y-99040664D01*
X140377674Y-99070000D01*
X140306851Y-99099336D01*
X140077552Y-99252549D01*
X139882549Y-99447552D01*
X139729336Y-99676851D01*
X139623801Y-99931635D01*
X139570000Y-100202112D01*
X139570000Y-100477888D01*
X139623801Y-100748365D01*
X139729336Y-101003149D01*
X139882549Y-101232448D01*
X140077552Y-101427451D01*
X140306851Y-101580664D01*
X140377674Y-101610000D01*
X140306851Y-101639336D01*
X140077552Y-101792549D01*
X139882549Y-101987552D01*
X139729336Y-102216851D01*
X139623801Y-102471635D01*
X139570000Y-102742112D01*
X139570000Y-103017888D01*
X139623801Y-103288365D01*
X139729336Y-103543149D01*
X139882549Y-103772448D01*
X140077552Y-103967451D01*
X140306851Y-104120664D01*
X140377674Y-104150000D01*
X140306851Y-104179336D01*
X140077552Y-104332549D01*
X139882549Y-104527552D01*
X139729336Y-104756851D01*
X139623801Y-105011635D01*
X139570000Y-105282112D01*
X139570000Y-105557888D01*
X139623801Y-105828365D01*
X139729336Y-106083149D01*
X139882549Y-106312448D01*
X140077552Y-106507451D01*
X140306851Y-106660664D01*
X140377674Y-106690000D01*
X140306851Y-106719336D01*
X140077552Y-106872549D01*
X139882549Y-107067552D01*
X139729336Y-107296851D01*
X139623801Y-107551635D01*
X139570000Y-107822112D01*
X139570000Y-108097888D01*
X139623801Y-108368365D01*
X139729336Y-108623149D01*
X139882549Y-108852448D01*
X140077552Y-109047451D01*
X140306851Y-109200664D01*
X140561635Y-109306199D01*
X140832112Y-109360000D01*
X141107888Y-109360000D01*
X141378365Y-109306199D01*
X141633149Y-109200664D01*
X141862448Y-109047451D01*
X142057451Y-108852448D01*
X142210664Y-108623149D01*
X142316199Y-108368365D01*
X142370000Y-108097888D01*
X142370000Y-107822112D01*
X142316199Y-107551635D01*
X142210664Y-107296851D01*
X142057451Y-107067552D01*
X141862448Y-106872549D01*
X141633149Y-106719336D01*
X141562326Y-106690000D01*
X141633149Y-106660664D01*
X141862448Y-106507451D01*
X142057451Y-106312448D01*
X142210664Y-106083149D01*
X142316199Y-105828365D01*
X142370000Y-105557888D01*
X142370000Y-105282112D01*
X142316199Y-105011635D01*
X142210664Y-104756851D01*
X142057451Y-104527552D01*
X141862448Y-104332549D01*
X141633149Y-104179336D01*
X141562326Y-104150000D01*
X141633149Y-104120664D01*
X141862448Y-103967451D01*
X142057451Y-103772448D01*
X142210664Y-103543149D01*
X142316199Y-103288365D01*
X142370000Y-103017888D01*
X142370000Y-102742112D01*
X142316199Y-102471635D01*
X142210664Y-102216851D01*
X142057451Y-101987552D01*
X141862448Y-101792549D01*
X141633149Y-101639336D01*
X141562326Y-101610000D01*
X141633149Y-101580664D01*
X141862448Y-101427451D01*
X142057451Y-101232448D01*
X142210664Y-101003149D01*
X142316199Y-100748365D01*
X142370000Y-100477888D01*
X142370000Y-100202112D01*
X142316199Y-99931635D01*
X142210664Y-99676851D01*
X142057451Y-99447552D01*
X141862448Y-99252549D01*
X141633149Y-99099336D01*
X141562326Y-99070000D01*
X141633149Y-99040664D01*
X141862448Y-98887451D01*
X142057451Y-98692448D01*
X142095837Y-98635000D01*
X143458982Y-98635000D01*
X143500000Y-98639040D01*
X143541018Y-98635000D01*
X143541019Y-98635000D01*
X143663689Y-98622918D01*
X143821087Y-98575172D01*
X143966146Y-98497636D01*
X144093291Y-98393291D01*
X144119446Y-98361421D01*
X152745869Y-89735000D01*
X165038976Y-89735000D01*
X165023801Y-89771635D01*
X164970000Y-90042112D01*
X164970000Y-90317888D01*
X165023801Y-90588365D01*
X165129336Y-90843149D01*
X165282549Y-91072448D01*
X165477552Y-91267451D01*
X165706851Y-91420664D01*
X165777674Y-91450000D01*
X165706851Y-91479336D01*
X165477552Y-91632549D01*
X165282549Y-91827552D01*
X165129336Y-92056851D01*
X165023801Y-92311635D01*
X164970000Y-92582112D01*
X164970000Y-92857888D01*
X165023801Y-93128365D01*
X165129336Y-93383149D01*
X165282549Y-93612448D01*
X165477552Y-93807451D01*
X165706851Y-93960664D01*
X165777674Y-93990000D01*
X165706851Y-94019336D01*
X165477552Y-94172549D01*
X165282549Y-94367552D01*
X165129336Y-94596851D01*
X165023801Y-94851635D01*
X164970000Y-95122112D01*
X164970000Y-95397888D01*
X165023801Y-95668365D01*
X165129336Y-95923149D01*
X165282549Y-96152448D01*
X165477552Y-96347451D01*
X165706851Y-96500664D01*
X165777674Y-96530000D01*
X165706851Y-96559336D01*
X165477552Y-96712549D01*
X165282549Y-96907552D01*
X165129336Y-97136851D01*
X165023801Y-97391635D01*
X164970000Y-97662112D01*
X164970000Y-97937888D01*
X165023801Y-98208365D01*
X165129336Y-98463149D01*
X165282549Y-98692448D01*
X165477552Y-98887451D01*
X165706851Y-99040664D01*
X165777674Y-99070000D01*
X165706851Y-99099336D01*
X165477552Y-99252549D01*
X165282549Y-99447552D01*
X165129336Y-99676851D01*
X165023801Y-99931635D01*
X164970000Y-100202112D01*
X164970000Y-100477888D01*
X165023801Y-100748365D01*
X165129336Y-101003149D01*
X165282549Y-101232448D01*
X165477552Y-101427451D01*
X165706851Y-101580664D01*
X165777674Y-101610000D01*
X165706851Y-101639336D01*
X165477552Y-101792549D01*
X165282549Y-101987552D01*
X165129336Y-102216851D01*
X165023801Y-102471635D01*
X164970000Y-102742112D01*
X164970000Y-103017888D01*
X165023801Y-103288365D01*
X165129336Y-103543149D01*
X165282549Y-103772448D01*
X165477552Y-103967451D01*
X165706851Y-104120664D01*
X165777674Y-104150000D01*
X165706851Y-104179336D01*
X165477552Y-104332549D01*
X165282549Y-104527552D01*
X165129336Y-104756851D01*
X165023801Y-105011635D01*
X164970000Y-105282112D01*
X164970000Y-105557888D01*
X165023801Y-105828365D01*
X165129336Y-106083149D01*
X165282549Y-106312448D01*
X165477552Y-106507451D01*
X165706851Y-106660664D01*
X165777674Y-106690000D01*
X165706851Y-106719336D01*
X165477552Y-106872549D01*
X165282549Y-107067552D01*
X165129336Y-107296851D01*
X165023801Y-107551635D01*
X164970000Y-107822112D01*
X164970000Y-108097888D01*
X165023801Y-108368365D01*
X165129336Y-108623149D01*
X165282549Y-108852448D01*
X165477552Y-109047451D01*
X165706851Y-109200664D01*
X165961635Y-109306199D01*
X166232112Y-109360000D01*
X166507888Y-109360000D01*
X166778365Y-109306199D01*
X167033149Y-109200664D01*
X167262448Y-109047451D01*
X167457451Y-108852448D01*
X167610664Y-108623149D01*
X167716199Y-108368365D01*
X167718647Y-108356058D01*
X198069080Y-108356058D01*
X198069080Y-109042542D01*
X198203007Y-109715837D01*
X198465713Y-110350066D01*
X198847104Y-110920858D01*
X199332522Y-111406276D01*
X199903314Y-111787667D01*
X200537543Y-112050373D01*
X201210838Y-112184300D01*
X201897322Y-112184300D01*
X202570617Y-112050373D01*
X203204846Y-111787667D01*
X203775638Y-111406276D01*
X204261056Y-110920858D01*
X204642447Y-110350066D01*
X204905153Y-109715837D01*
X205039080Y-109042542D01*
X205039080Y-108356058D01*
X204905153Y-107682763D01*
X204642447Y-107048534D01*
X204261056Y-106477742D01*
X203775638Y-105992324D01*
X203204846Y-105610933D01*
X202570617Y-105348227D01*
X201897322Y-105214300D01*
X201210838Y-105214300D01*
X200537543Y-105348227D01*
X199903314Y-105610933D01*
X199332522Y-105992324D01*
X198847104Y-106477742D01*
X198465713Y-107048534D01*
X198203007Y-107682763D01*
X198069080Y-108356058D01*
X167718647Y-108356058D01*
X167770000Y-108097888D01*
X167770000Y-107822112D01*
X167716199Y-107551635D01*
X167610664Y-107296851D01*
X167457451Y-107067552D01*
X167262448Y-106872549D01*
X167033149Y-106719336D01*
X166962326Y-106690000D01*
X167033149Y-106660664D01*
X167262448Y-106507451D01*
X167457451Y-106312448D01*
X167610664Y-106083149D01*
X167716199Y-105828365D01*
X167770000Y-105557888D01*
X167770000Y-105282112D01*
X167716199Y-105011635D01*
X167610664Y-104756851D01*
X167457451Y-104527552D01*
X167262448Y-104332549D01*
X167033149Y-104179336D01*
X166962326Y-104150000D01*
X167033149Y-104120664D01*
X167262448Y-103967451D01*
X167457451Y-103772448D01*
X167610664Y-103543149D01*
X167716199Y-103288365D01*
X167770000Y-103017888D01*
X167770000Y-102742112D01*
X167716199Y-102471635D01*
X167610664Y-102216851D01*
X167457451Y-101987552D01*
X167262448Y-101792549D01*
X167033149Y-101639336D01*
X166962326Y-101610000D01*
X167033149Y-101580664D01*
X167262448Y-101427451D01*
X167457451Y-101232448D01*
X167610664Y-101003149D01*
X167716199Y-100748365D01*
X167770000Y-100477888D01*
X167770000Y-100202112D01*
X167716199Y-99931635D01*
X167610664Y-99676851D01*
X167457451Y-99447552D01*
X167262448Y-99252549D01*
X167033149Y-99099336D01*
X166962326Y-99070000D01*
X167033149Y-99040664D01*
X167262448Y-98887451D01*
X167457451Y-98692448D01*
X167610664Y-98463149D01*
X167716199Y-98208365D01*
X167770000Y-97937888D01*
X167770000Y-97662112D01*
X167716199Y-97391635D01*
X167610664Y-97136851D01*
X167457451Y-96907552D01*
X167262448Y-96712549D01*
X167033149Y-96559336D01*
X166962326Y-96530000D01*
X167033149Y-96500664D01*
X167262448Y-96347451D01*
X167457451Y-96152448D01*
X167610664Y-95923149D01*
X167716199Y-95668365D01*
X167770000Y-95397888D01*
X167770000Y-95122112D01*
X167716199Y-94851635D01*
X167610664Y-94596851D01*
X167457451Y-94367552D01*
X167262448Y-94172549D01*
X167033149Y-94019336D01*
X166962326Y-93990000D01*
X167033149Y-93960664D01*
X167262448Y-93807451D01*
X167457451Y-93612448D01*
X167610664Y-93383149D01*
X167716199Y-93128365D01*
X167770000Y-92857888D01*
X167770000Y-92582112D01*
X167716199Y-92311635D01*
X167610664Y-92056851D01*
X167457451Y-91827552D01*
X167262448Y-91632549D01*
X167033149Y-91479336D01*
X166962326Y-91450000D01*
X167033149Y-91420664D01*
X167262448Y-91267451D01*
X167457451Y-91072448D01*
X167495837Y-91015000D01*
X177748982Y-91015000D01*
X177790000Y-91019040D01*
X177831018Y-91015000D01*
X177831019Y-91015000D01*
X177953689Y-91002918D01*
X178111087Y-90955172D01*
X178256146Y-90877636D01*
X178383291Y-90773291D01*
X178409446Y-90741421D01*
X185981428Y-83169440D01*
X186013291Y-83143291D01*
X186117636Y-83016146D01*
X186195172Y-82871087D01*
X186242918Y-82713689D01*
X186255000Y-82591019D01*
X186255000Y-82591009D01*
X186259039Y-82550001D01*
X186255000Y-82508993D01*
X186255000Y-69808065D01*
X186366632Y-69733475D01*
X186573475Y-69526632D01*
X186690000Y-69352240D01*
X186806525Y-69526632D01*
X187013368Y-69733475D01*
X187256589Y-69895990D01*
X187526842Y-70007932D01*
X187813740Y-70065000D01*
X188106260Y-70065000D01*
X188393158Y-70007932D01*
X188663411Y-69895990D01*
X188906632Y-69733475D01*
X189038487Y-69601620D01*
X189060498Y-69674180D01*
X189119463Y-69784494D01*
X189198815Y-69881185D01*
X189295506Y-69960537D01*
X189405820Y-70019502D01*
X189525518Y-70055812D01*
X189650000Y-70068072D01*
X190214250Y-70065000D01*
X190373000Y-69906250D01*
X190373000Y-68707000D01*
X190627000Y-68707000D01*
X190627000Y-69906250D01*
X190785750Y-70065000D01*
X191350000Y-70068072D01*
X191474482Y-70055812D01*
X191594180Y-70019502D01*
X191704494Y-69960537D01*
X191801185Y-69881185D01*
X191880537Y-69784494D01*
X191939502Y-69674180D01*
X191975812Y-69554482D01*
X191988072Y-69430000D01*
X191985000Y-68865750D01*
X191826250Y-68707000D01*
X190627000Y-68707000D01*
X190373000Y-68707000D01*
X190353000Y-68707000D01*
X190353000Y-68453000D01*
X190373000Y-68453000D01*
X190373000Y-67253750D01*
X190627000Y-67253750D01*
X190627000Y-68453000D01*
X191826250Y-68453000D01*
X191985000Y-68294250D01*
X191988072Y-67730000D01*
X191975812Y-67605518D01*
X191939502Y-67485820D01*
X191880537Y-67375506D01*
X191801185Y-67278815D01*
X191704494Y-67199463D01*
X191594180Y-67140498D01*
X191474482Y-67104188D01*
X191350000Y-67091928D01*
X190785750Y-67095000D01*
X190627000Y-67253750D01*
X190373000Y-67253750D01*
X190214250Y-67095000D01*
X189650000Y-67091928D01*
X189525518Y-67104188D01*
X189405820Y-67140498D01*
X189295506Y-67199463D01*
X189198815Y-67278815D01*
X189119463Y-67375506D01*
X189060498Y-67485820D01*
X189038487Y-67558380D01*
X188906632Y-67426525D01*
X188663411Y-67264010D01*
X188393158Y-67152068D01*
X188106260Y-67095000D01*
X187813740Y-67095000D01*
X187526842Y-67152068D01*
X187256589Y-67264010D01*
X187013368Y-67426525D01*
X186806525Y-67633368D01*
X186690000Y-67807760D01*
X186573475Y-67633368D01*
X186366632Y-67426525D01*
X186123411Y-67264010D01*
X185853158Y-67152068D01*
X185566260Y-67095000D01*
X185273740Y-67095000D01*
X184986842Y-67152068D01*
X184716589Y-67264010D01*
X184473368Y-67426525D01*
X184266525Y-67633368D01*
X184150000Y-67807760D01*
X184033475Y-67633368D01*
X183826632Y-67426525D01*
X183583411Y-67264010D01*
X183313158Y-67152068D01*
X183026260Y-67095000D01*
X182733740Y-67095000D01*
X182446842Y-67152068D01*
X182176589Y-67264010D01*
X181933368Y-67426525D01*
X181726525Y-67633368D01*
X181610000Y-67807760D01*
X181493475Y-67633368D01*
X181286632Y-67426525D01*
X181043411Y-67264010D01*
X180773158Y-67152068D01*
X180486260Y-67095000D01*
X180193740Y-67095000D01*
X179906842Y-67152068D01*
X179636589Y-67264010D01*
X179393368Y-67426525D01*
X179186525Y-67633368D01*
X179070000Y-67807760D01*
X178953475Y-67633368D01*
X178746632Y-67426525D01*
X178503411Y-67264010D01*
X178233158Y-67152068D01*
X177946260Y-67095000D01*
X177653740Y-67095000D01*
X177366842Y-67152068D01*
X177096589Y-67264010D01*
X176853368Y-67426525D01*
X176646525Y-67633368D01*
X176484010Y-67876589D01*
X176372068Y-68146842D01*
X176315000Y-68433740D01*
X176315000Y-68726260D01*
X176372068Y-69013158D01*
X176484010Y-69283411D01*
X176646525Y-69526632D01*
X176853368Y-69733475D01*
X177096589Y-69895990D01*
X177366842Y-70007932D01*
X177653740Y-70065000D01*
X177946260Y-70065000D01*
X178233158Y-70007932D01*
X178503411Y-69895990D01*
X178746632Y-69733475D01*
X178953475Y-69526632D01*
X179070000Y-69352240D01*
X179186525Y-69526632D01*
X179393368Y-69733475D01*
X179636589Y-69895990D01*
X179906842Y-70007932D01*
X180193740Y-70065000D01*
X180486260Y-70065000D01*
X180617940Y-70038807D01*
X182045001Y-71465869D01*
X182045000Y-82204131D01*
X178724133Y-85525000D01*
X167709309Y-85525000D01*
X167716199Y-85508365D01*
X167770000Y-85237888D01*
X167770000Y-84962112D01*
X167716199Y-84691635D01*
X167700240Y-84653107D01*
X167803689Y-84642918D01*
X167961087Y-84595172D01*
X168106146Y-84517636D01*
X168233291Y-84413291D01*
X168259446Y-84381421D01*
X170741427Y-81899441D01*
X170773291Y-81873291D01*
X170877636Y-81746146D01*
X170955172Y-81601087D01*
X171002918Y-81443689D01*
X171015000Y-81321019D01*
X171015000Y-81321009D01*
X171019039Y-81280001D01*
X171015000Y-81238993D01*
X171015000Y-72060093D01*
X171148102Y-72115226D01*
X171293225Y-72144093D01*
X172100558Y-72951426D01*
X172126709Y-72983291D01*
X172253854Y-73087636D01*
X172398913Y-73165172D01*
X172556311Y-73212918D01*
X172678981Y-73225000D01*
X172678983Y-73225000D01*
X172719999Y-73229040D01*
X172761015Y-73225000D01*
X179726715Y-73225000D01*
X179849744Y-73307205D01*
X180038102Y-73385226D01*
X180238061Y-73425000D01*
X180441939Y-73425000D01*
X180641898Y-73385226D01*
X180830256Y-73307205D01*
X180999774Y-73193937D01*
X181143937Y-73049774D01*
X181257205Y-72880256D01*
X181335226Y-72691898D01*
X181375000Y-72491939D01*
X181375000Y-72288061D01*
X181335226Y-72088102D01*
X181257205Y-71899744D01*
X181143937Y-71730226D01*
X180999774Y-71586063D01*
X180830256Y-71472795D01*
X180641898Y-71394774D01*
X180441939Y-71355000D01*
X180238061Y-71355000D01*
X180038102Y-71394774D01*
X179849744Y-71472795D01*
X179726715Y-71555000D01*
X173065868Y-71555000D01*
X172474093Y-70963225D01*
X172445226Y-70818102D01*
X172367205Y-70629744D01*
X172253937Y-70460226D01*
X172109774Y-70316063D01*
X171940256Y-70202795D01*
X171751898Y-70124774D01*
X171551939Y-70085000D01*
X171348061Y-70085000D01*
X171148102Y-70124774D01*
X171015000Y-70179907D01*
X171015000Y-67655867D01*
X171795868Y-66875000D01*
X185378982Y-66875000D01*
X185420000Y-66879040D01*
X185461018Y-66875000D01*
X185461019Y-66875000D01*
X185583689Y-66862918D01*
X185741087Y-66815172D01*
X185886146Y-66737636D01*
X186013291Y-66633291D01*
X186039446Y-66601421D01*
X195925869Y-56715000D01*
X198161935Y-56715000D01*
X198236525Y-56826632D01*
X198443368Y-57033475D01*
X198617760Y-57150000D01*
X198443368Y-57266525D01*
X198236525Y-57473368D01*
X198074010Y-57716589D01*
X197962068Y-57986842D01*
X197905000Y-58273740D01*
X197905000Y-58566260D01*
X197962068Y-58853158D01*
X198074010Y-59123411D01*
X198236525Y-59366632D01*
X198443368Y-59573475D01*
X198625534Y-59695195D01*
X198508645Y-59764822D01*
X198292412Y-59959731D01*
X198118359Y-60193080D01*
X197993175Y-60455901D01*
X197948524Y-60603110D01*
X198069845Y-60833000D01*
X199263000Y-60833000D01*
X199263000Y-60813000D01*
X199517000Y-60813000D01*
X199517000Y-60833000D01*
X200710155Y-60833000D01*
X200831476Y-60603110D01*
X200786825Y-60455901D01*
X200661641Y-60193080D01*
X200487588Y-59959731D01*
X200271355Y-59764822D01*
X200154466Y-59695195D01*
X200336632Y-59573475D01*
X200543475Y-59366632D01*
X200705990Y-59123411D01*
X200817932Y-58853158D01*
X200875000Y-58566260D01*
X200875000Y-58273740D01*
X200817932Y-57986842D01*
X200705990Y-57716589D01*
X200543475Y-57473368D01*
X200336632Y-57266525D01*
X200162240Y-57150000D01*
X200336632Y-57033475D01*
X200543475Y-56826632D01*
X200705990Y-56583411D01*
X200817932Y-56313158D01*
X200875000Y-56026260D01*
X200875000Y-55733740D01*
X200817932Y-55446842D01*
X200705990Y-55176589D01*
X200657240Y-55103629D01*
X201095000Y-54665870D01*
X201095001Y-64424131D01*
X200731362Y-64787771D01*
X200691185Y-64738815D01*
X200594494Y-64659463D01*
X200484180Y-64600498D01*
X200411620Y-64578487D01*
X200543475Y-64446632D01*
X200705990Y-64203411D01*
X200817932Y-63933158D01*
X200875000Y-63646260D01*
X200875000Y-63353740D01*
X200817932Y-63066842D01*
X200705990Y-62796589D01*
X200543475Y-62553368D01*
X200336632Y-62346525D01*
X200154466Y-62224805D01*
X200271355Y-62155178D01*
X200487588Y-61960269D01*
X200661641Y-61726920D01*
X200786825Y-61464099D01*
X200831476Y-61316890D01*
X200710155Y-61087000D01*
X199517000Y-61087000D01*
X199517000Y-61107000D01*
X199263000Y-61107000D01*
X199263000Y-61087000D01*
X198069845Y-61087000D01*
X197948524Y-61316890D01*
X197993175Y-61464099D01*
X198118359Y-61726920D01*
X198292412Y-61960269D01*
X198508645Y-62155178D01*
X198625534Y-62224805D01*
X198443368Y-62346525D01*
X198236525Y-62553368D01*
X198074010Y-62796589D01*
X197962068Y-63066842D01*
X197905000Y-63353740D01*
X197905000Y-63646260D01*
X197962068Y-63933158D01*
X198074010Y-64203411D01*
X198236525Y-64446632D01*
X198368380Y-64578487D01*
X198295820Y-64600498D01*
X198185506Y-64659463D01*
X198088815Y-64738815D01*
X198009463Y-64835506D01*
X197950498Y-64945820D01*
X197914188Y-65065518D01*
X197901928Y-65190000D01*
X197901928Y-66890000D01*
X197914188Y-67014482D01*
X197950498Y-67134180D01*
X198009463Y-67244494D01*
X198088815Y-67341185D01*
X198185506Y-67420537D01*
X198295820Y-67479502D01*
X198415518Y-67515812D01*
X198540000Y-67528072D01*
X200240000Y-67528072D01*
X200364482Y-67515812D01*
X200484180Y-67479502D01*
X200594494Y-67420537D01*
X200691185Y-67341185D01*
X200770537Y-67244494D01*
X200829502Y-67134180D01*
X200865812Y-67014482D01*
X200878072Y-66890000D01*
X200878072Y-66846421D01*
X200981087Y-66815172D01*
X201126146Y-66737636D01*
X201253291Y-66633291D01*
X201279446Y-66601421D01*
X202491426Y-65389442D01*
X202523291Y-65363291D01*
X202627636Y-65236146D01*
X202705172Y-65091087D01*
X202752918Y-64933689D01*
X202765000Y-64811019D01*
X202765000Y-64811017D01*
X202769040Y-64770001D01*
X202765000Y-64728981D01*
X202765000Y-47031015D01*
X202769040Y-46989999D01*
X202757563Y-46873475D01*
X202752918Y-46826311D01*
X202705172Y-46668913D01*
X202627636Y-46523854D01*
X202523291Y-46396709D01*
X202491428Y-46370560D01*
X201279446Y-45158579D01*
X201253291Y-45126709D01*
X201126146Y-45022364D01*
X200981087Y-44944828D01*
X200823689Y-44897082D01*
X200701019Y-44885000D01*
X200701018Y-44885000D01*
X200660000Y-44880960D01*
X200618982Y-44885000D01*
X198161007Y-44885000D01*
X198119999Y-44880961D01*
X198078991Y-44885000D01*
X198078981Y-44885000D01*
X197956311Y-44897082D01*
X197798913Y-44944828D01*
X197653854Y-45022364D01*
X197526709Y-45126709D01*
X197500561Y-45158571D01*
X195234133Y-47425000D01*
X182717868Y-47425000D01*
X182550772Y-47257905D01*
X182575200Y-47135098D01*
X182575200Y-46844902D01*
X182520519Y-46570000D01*
X185201928Y-46570000D01*
X185214188Y-46694482D01*
X185250498Y-46814180D01*
X185309463Y-46924494D01*
X185388815Y-47021185D01*
X185485506Y-47100537D01*
X185595820Y-47159502D01*
X185715518Y-47195812D01*
X185840000Y-47208072D01*
X186404250Y-47205000D01*
X186563000Y-47046250D01*
X186563000Y-45847000D01*
X185363750Y-45847000D01*
X185205000Y-46005750D01*
X185201928Y-46570000D01*
X182520519Y-46570000D01*
X182518586Y-46560283D01*
X182407533Y-46292178D01*
X182246309Y-46050890D01*
X182041110Y-45845691D01*
X181799822Y-45684467D01*
X181531717Y-45573414D01*
X181247098Y-45516800D01*
X180956902Y-45516800D01*
X180672283Y-45573414D01*
X180404178Y-45684467D01*
X180162890Y-45845691D01*
X179957691Y-46050890D01*
X179796467Y-46292178D01*
X179685414Y-46560283D01*
X179628800Y-46844902D01*
X179628800Y-47135098D01*
X179685414Y-47419717D01*
X179796467Y-47687822D01*
X179957691Y-47929110D01*
X180162890Y-48134309D01*
X180404178Y-48295533D01*
X180672283Y-48406586D01*
X180956902Y-48463200D01*
X181247098Y-48463200D01*
X181369905Y-48438772D01*
X181752558Y-48821426D01*
X181778709Y-48853291D01*
X181905854Y-48957636D01*
X182050913Y-49035172D01*
X182208311Y-49082918D01*
X182330981Y-49095000D01*
X182330983Y-49095000D01*
X182371999Y-49099040D01*
X182413015Y-49095000D01*
X195538982Y-49095000D01*
X195580000Y-49099040D01*
X195621018Y-49095000D01*
X195621019Y-49095000D01*
X195743689Y-49082918D01*
X195901087Y-49035172D01*
X196046146Y-48957636D01*
X196173291Y-48853291D01*
X196199446Y-48821421D01*
X198465868Y-46555000D01*
X200314133Y-46555000D01*
X201095000Y-47335868D01*
X201095000Y-51324132D01*
X200848807Y-51077939D01*
X200875000Y-50946260D01*
X200875000Y-50653740D01*
X200817932Y-50366842D01*
X200705990Y-50096589D01*
X200543475Y-49853368D01*
X200336632Y-49646525D01*
X200162240Y-49530000D01*
X200336632Y-49413475D01*
X200543475Y-49206632D01*
X200705990Y-48963411D01*
X200817932Y-48693158D01*
X200875000Y-48406260D01*
X200875000Y-48113740D01*
X200817932Y-47826842D01*
X200705990Y-47556589D01*
X200543475Y-47313368D01*
X200336632Y-47106525D01*
X200093411Y-46944010D01*
X199823158Y-46832068D01*
X199536260Y-46775000D01*
X199243740Y-46775000D01*
X198956842Y-46832068D01*
X198686589Y-46944010D01*
X198443368Y-47106525D01*
X198236525Y-47313368D01*
X198074010Y-47556589D01*
X197962068Y-47826842D01*
X197905000Y-48113740D01*
X197905000Y-48406260D01*
X197931193Y-48537939D01*
X193875000Y-52594132D01*
X193875000Y-52111015D01*
X193879040Y-52069999D01*
X193873030Y-52008982D01*
X193862918Y-51906311D01*
X193815172Y-51748913D01*
X193737636Y-51603854D01*
X193633291Y-51476709D01*
X193601428Y-51450560D01*
X192389446Y-50238579D01*
X192363291Y-50206709D01*
X192236146Y-50102364D01*
X192091087Y-50024828D01*
X191933689Y-49977082D01*
X191811019Y-49965000D01*
X191811018Y-49965000D01*
X191770000Y-49960960D01*
X191728982Y-49965000D01*
X185461007Y-49965000D01*
X185419999Y-49960961D01*
X185378991Y-49965000D01*
X185378981Y-49965000D01*
X185256311Y-49977082D01*
X185098913Y-50024828D01*
X184953854Y-50102364D01*
X184826709Y-50206709D01*
X184800561Y-50238571D01*
X183157940Y-51881193D01*
X183026260Y-51855000D01*
X182733740Y-51855000D01*
X182446842Y-51912068D01*
X182176589Y-52024010D01*
X181933368Y-52186525D01*
X181801513Y-52318380D01*
X181779502Y-52245820D01*
X181720537Y-52135506D01*
X181641185Y-52038815D01*
X181544494Y-51959463D01*
X181434180Y-51900498D01*
X181314482Y-51864188D01*
X181190000Y-51851928D01*
X180625750Y-51855000D01*
X180467000Y-52013750D01*
X180467000Y-53213000D01*
X180487000Y-53213000D01*
X180487000Y-53467000D01*
X180467000Y-53467000D01*
X180467000Y-54666250D01*
X180625750Y-54825000D01*
X181190000Y-54828072D01*
X181314482Y-54815812D01*
X181434180Y-54779502D01*
X181544494Y-54720537D01*
X181641185Y-54641185D01*
X181720537Y-54544494D01*
X181779502Y-54434180D01*
X181801513Y-54361620D01*
X181933368Y-54493475D01*
X182176589Y-54655990D01*
X182446842Y-54767932D01*
X182733740Y-54825000D01*
X182754132Y-54825000D01*
X181264133Y-56315000D01*
X144821015Y-56315000D01*
X144779999Y-56310960D01*
X144738983Y-56315000D01*
X144738981Y-56315000D01*
X144616311Y-56327082D01*
X144458913Y-56374828D01*
X144313854Y-56452364D01*
X144186709Y-56556709D01*
X144160561Y-56588571D01*
X142948579Y-57800554D01*
X142916709Y-57826709D01*
X142812365Y-57953854D01*
X142812364Y-57953855D01*
X142734828Y-58098914D01*
X142687082Y-58256312D01*
X142670960Y-58420000D01*
X142675000Y-58461019D01*
X142675001Y-69514131D01*
X142370000Y-69819132D01*
X142370000Y-69722112D01*
X142316199Y-69451635D01*
X142210664Y-69196851D01*
X142057451Y-68967552D01*
X141862448Y-68772549D01*
X141633149Y-68619336D01*
X141562326Y-68590000D01*
X141633149Y-68560664D01*
X141862448Y-68407451D01*
X142057451Y-68212448D01*
X142210664Y-67983149D01*
X142316199Y-67728365D01*
X142370000Y-67457888D01*
X142370000Y-67182112D01*
X142316199Y-66911635D01*
X142210664Y-66656851D01*
X142057451Y-66427552D01*
X141862448Y-66232549D01*
X141633149Y-66079336D01*
X141562326Y-66050000D01*
X141633149Y-66020664D01*
X141862448Y-65867451D01*
X142057451Y-65672448D01*
X142210664Y-65443149D01*
X142316199Y-65188365D01*
X142370000Y-64917888D01*
X142370000Y-64642112D01*
X142316199Y-64371635D01*
X142210664Y-64116851D01*
X142057451Y-63887552D01*
X141862448Y-63692549D01*
X141781541Y-63638488D01*
X141859482Y-63630812D01*
X141979180Y-63594502D01*
X142089494Y-63535537D01*
X142186185Y-63456185D01*
X142265537Y-63359494D01*
X142324502Y-63249180D01*
X142360812Y-63129482D01*
X142373072Y-63005000D01*
X142373072Y-61475000D01*
X142360812Y-61350518D01*
X142324502Y-61230820D01*
X142265537Y-61120506D01*
X142186185Y-61023815D01*
X142089494Y-60944463D01*
X141979180Y-60885498D01*
X141859482Y-60849188D01*
X141735000Y-60836928D01*
X140205000Y-60836928D01*
X140080518Y-60849188D01*
X139960820Y-60885498D01*
X139850506Y-60944463D01*
X139753815Y-61023815D01*
X139674463Y-61120506D01*
X139615498Y-61230820D01*
X139579188Y-61350518D01*
X139566928Y-61475000D01*
X139566928Y-62462204D01*
X137995000Y-64034133D01*
X137995000Y-54296993D01*
X166862612Y-54296993D01*
X166928137Y-54535860D01*
X167175116Y-54651760D01*
X167439960Y-54717250D01*
X167712492Y-54729812D01*
X167982238Y-54688965D01*
X168238832Y-54596277D01*
X168351863Y-54535860D01*
X168417388Y-54296993D01*
X167640000Y-53519605D01*
X166862612Y-54296993D01*
X137995000Y-54296993D01*
X137995000Y-53412492D01*
X166250188Y-53412492D01*
X166291035Y-53682238D01*
X166383723Y-53938832D01*
X166444140Y-54051863D01*
X166683007Y-54117388D01*
X167460395Y-53340000D01*
X166683007Y-52562612D01*
X166444140Y-52628137D01*
X166328240Y-52875116D01*
X166262750Y-53139960D01*
X166250188Y-53412492D01*
X137995000Y-53412492D01*
X137995000Y-52383007D01*
X166862612Y-52383007D01*
X167640000Y-53160395D01*
X168417388Y-52383007D01*
X168351863Y-52144140D01*
X168104884Y-52028240D01*
X167840040Y-51962750D01*
X167567508Y-51950188D01*
X167297762Y-51991035D01*
X167041168Y-52083723D01*
X166928137Y-52144140D01*
X166862612Y-52383007D01*
X137995000Y-52383007D01*
X137995000Y-51613227D01*
X138557975Y-51050253D01*
X138612565Y-51131952D01*
X138819408Y-51338795D01*
X139062629Y-51501310D01*
X139332882Y-51613252D01*
X139619780Y-51670320D01*
X139912300Y-51670320D01*
X140199198Y-51613252D01*
X140469451Y-51501310D01*
X140712672Y-51338795D01*
X140919515Y-51131952D01*
X141036040Y-50957560D01*
X141152565Y-51131952D01*
X141359408Y-51338795D01*
X141602629Y-51501310D01*
X141872882Y-51613252D01*
X142159780Y-51670320D01*
X142452300Y-51670320D01*
X142739198Y-51613252D01*
X143009451Y-51501310D01*
X143252672Y-51338795D01*
X143459515Y-51131952D01*
X143576040Y-50957560D01*
X143692565Y-51131952D01*
X143899408Y-51338795D01*
X144142629Y-51501310D01*
X144412882Y-51613252D01*
X144699780Y-51670320D01*
X144992300Y-51670320D01*
X145279198Y-51613252D01*
X145549451Y-51501310D01*
X145792672Y-51338795D01*
X145999515Y-51131952D01*
X146116040Y-50957560D01*
X146232565Y-51131952D01*
X146439408Y-51338795D01*
X146682629Y-51501310D01*
X146952882Y-51613252D01*
X147239780Y-51670320D01*
X147532300Y-51670320D01*
X147819198Y-51613252D01*
X148089451Y-51501310D01*
X148332672Y-51338795D01*
X148539515Y-51131952D01*
X148656040Y-50957560D01*
X148772565Y-51131952D01*
X148979408Y-51338795D01*
X149222629Y-51501310D01*
X149492882Y-51613252D01*
X149779780Y-51670320D01*
X150072300Y-51670320D01*
X150359198Y-51613252D01*
X150629451Y-51501310D01*
X150872672Y-51338795D01*
X151079515Y-51131952D01*
X151201235Y-50949786D01*
X151270862Y-51066675D01*
X151465771Y-51282908D01*
X151699120Y-51456961D01*
X151961941Y-51582145D01*
X152109150Y-51626796D01*
X152339040Y-51505475D01*
X152339040Y-50312320D01*
X152319040Y-50312320D01*
X152319040Y-50058320D01*
X152339040Y-50058320D01*
X152339040Y-48865165D01*
X152593040Y-48865165D01*
X152593040Y-50058320D01*
X152613040Y-50058320D01*
X152613040Y-50312320D01*
X152593040Y-50312320D01*
X152593040Y-51505475D01*
X152822930Y-51626796D01*
X152970139Y-51582145D01*
X153232960Y-51456961D01*
X153466309Y-51282908D01*
X153542074Y-51198854D01*
X153566538Y-51279500D01*
X153625503Y-51389814D01*
X153704855Y-51486505D01*
X153801546Y-51565857D01*
X153911860Y-51624822D01*
X154031558Y-51661132D01*
X154156040Y-51673392D01*
X155856040Y-51673392D01*
X155980522Y-51661132D01*
X156100220Y-51624822D01*
X156210534Y-51565857D01*
X156307225Y-51486505D01*
X156386577Y-51389814D01*
X156445542Y-51279500D01*
X156481852Y-51159802D01*
X156494112Y-51035320D01*
X156494112Y-49335320D01*
X156481852Y-49210838D01*
X156445542Y-49091140D01*
X156386577Y-48980826D01*
X156307225Y-48884135D01*
X156210534Y-48804783D01*
X156100220Y-48745818D01*
X155980522Y-48709508D01*
X155856040Y-48697248D01*
X154156040Y-48697248D01*
X154031558Y-48709508D01*
X153911860Y-48745818D01*
X153801546Y-48804783D01*
X153704855Y-48884135D01*
X153625503Y-48980826D01*
X153566538Y-49091140D01*
X153542074Y-49171786D01*
X153466309Y-49087732D01*
X153232960Y-48913679D01*
X152970139Y-48788495D01*
X152822930Y-48743844D01*
X152593040Y-48865165D01*
X152339040Y-48865165D01*
X152109150Y-48743844D01*
X151961941Y-48788495D01*
X151699120Y-48913679D01*
X151465771Y-49087732D01*
X151270862Y-49303965D01*
X151201235Y-49420854D01*
X151079515Y-49238688D01*
X150872672Y-49031845D01*
X150629451Y-48869330D01*
X150359198Y-48757388D01*
X150072300Y-48700320D01*
X149779780Y-48700320D01*
X149492882Y-48757388D01*
X149222629Y-48869330D01*
X148979408Y-49031845D01*
X148772565Y-49238688D01*
X148656040Y-49413080D01*
X148539515Y-49238688D01*
X148332672Y-49031845D01*
X148089451Y-48869330D01*
X147819198Y-48757388D01*
X147532300Y-48700320D01*
X147239780Y-48700320D01*
X146952882Y-48757388D01*
X146682629Y-48869330D01*
X146439408Y-49031845D01*
X146232565Y-49238688D01*
X146116040Y-49413080D01*
X145999515Y-49238688D01*
X145792672Y-49031845D01*
X145681040Y-48957255D01*
X145681040Y-47566958D01*
X145685080Y-47525940D01*
X145672831Y-47401570D01*
X145668958Y-47362251D01*
X145621212Y-47204853D01*
X145543676Y-47059794D01*
X145520060Y-47031018D01*
X145465479Y-46964510D01*
X145465477Y-46964508D01*
X145439331Y-46932649D01*
X145407473Y-46906504D01*
X144779685Y-46278718D01*
X144753531Y-46246849D01*
X144626386Y-46142504D01*
X144481327Y-46064968D01*
X144323929Y-46017222D01*
X144201259Y-46005140D01*
X144201258Y-46005140D01*
X144160240Y-46001100D01*
X144119222Y-46005140D01*
X136141838Y-46005140D01*
X136100820Y-46001100D01*
X136059802Y-46005140D01*
X136059801Y-46005140D01*
X135937131Y-46017222D01*
X135826142Y-46050890D01*
X135779733Y-46064968D01*
X135634674Y-46142504D01*
X135546547Y-46214828D01*
X135507529Y-46246849D01*
X135481383Y-46278708D01*
X134058574Y-47701519D01*
X134026710Y-47727669D01*
X134010000Y-47748030D01*
X134010000Y-34497938D01*
X134094100Y-34497938D01*
X134094100Y-35184422D01*
X134228027Y-35857717D01*
X134490733Y-36491946D01*
X134872124Y-37062738D01*
X135357542Y-37548156D01*
X135928334Y-37929547D01*
X136562563Y-38192253D01*
X137235858Y-38326180D01*
X137922342Y-38326180D01*
X138595637Y-38192253D01*
X139229866Y-37929547D01*
X139800658Y-37548156D01*
X140286076Y-37062738D01*
X140667467Y-36491946D01*
X140930173Y-35857717D01*
X141064100Y-35184422D01*
X141064100Y-34497938D01*
X140930173Y-33824643D01*
X140667467Y-33190414D01*
X140286076Y-32619622D01*
X139800658Y-32134204D01*
X139229866Y-31752813D01*
X138595637Y-31490107D01*
X137922342Y-31356180D01*
X137235858Y-31356180D01*
X136562563Y-31490107D01*
X135928334Y-31752813D01*
X135357542Y-32134204D01*
X134872124Y-32619622D01*
X134490733Y-33190414D01*
X134228027Y-33824643D01*
X134094100Y-34497938D01*
X134010000Y-34497938D01*
X134010000Y-34322279D01*
X134073096Y-33678778D01*
X134250606Y-33090836D01*
X134538937Y-32548564D01*
X134927094Y-32072636D01*
X135400314Y-31681155D01*
X135940552Y-31389049D01*
X136527244Y-31207437D01*
X137168879Y-31140000D01*
X165355109Y-31140000D01*
X165334749Y-31156709D01*
%TA.AperFunction,Conductor*%
D23*
G36*
X165334749Y-31156709D02*
G01*
X165308599Y-31188573D01*
X162958699Y-33538474D01*
X162926829Y-33564629D01*
X162822485Y-33691774D01*
X162822484Y-33691775D01*
X162744948Y-33836834D01*
X162697202Y-33994232D01*
X162681080Y-34157920D01*
X162685120Y-34198939D01*
X162685121Y-38302812D01*
X162681080Y-38343840D01*
X162697202Y-38507528D01*
X162744948Y-38664926D01*
X162822484Y-38809985D01*
X162822485Y-38809986D01*
X162926830Y-38937131D01*
X162958694Y-38963281D01*
X163926838Y-39931426D01*
X163952989Y-39963291D01*
X164080134Y-40067636D01*
X164225193Y-40145172D01*
X164382591Y-40192918D01*
X164505261Y-40205000D01*
X164505271Y-40205000D01*
X164546279Y-40209039D01*
X164587287Y-40205000D01*
X164968769Y-40205000D01*
X164996155Y-40256235D01*
X165099446Y-40382095D01*
X165015506Y-40426963D01*
X164918815Y-40506315D01*
X164839463Y-40603006D01*
X164780498Y-40713320D01*
X164744188Y-40833018D01*
X164731928Y-40957500D01*
X164731928Y-41075000D01*
X163871018Y-41075000D01*
X163830000Y-41070960D01*
X163788982Y-41075000D01*
X163788981Y-41075000D01*
X163666311Y-41087082D01*
X163508913Y-41134828D01*
X163363854Y-41212364D01*
X163236709Y-41316709D01*
X163210563Y-41348568D01*
X159458574Y-45100559D01*
X159426710Y-45126709D01*
X159400562Y-45158571D01*
X159322364Y-45253855D01*
X159244828Y-45398914D01*
X159197082Y-45556312D01*
X159180960Y-45720000D01*
X159185001Y-45761028D01*
X159185001Y-45776126D01*
X159080890Y-45845691D01*
X158875691Y-46050890D01*
X158714467Y-46292178D01*
X158603414Y-46560283D01*
X158546800Y-46844902D01*
X158546800Y-47135098D01*
X158603414Y-47419717D01*
X158714467Y-47687822D01*
X158875691Y-47929110D01*
X159080890Y-48134309D01*
X159322178Y-48295533D01*
X159590283Y-48406586D01*
X159874902Y-48463200D01*
X160165098Y-48463200D01*
X160449717Y-48406586D01*
X160717822Y-48295533D01*
X160959110Y-48134309D01*
X161164309Y-47929110D01*
X161325533Y-47687822D01*
X161436586Y-47419717D01*
X161493200Y-47135098D01*
X161493200Y-46844902D01*
X161436586Y-46560283D01*
X161325533Y-46292178D01*
X161164309Y-46050890D01*
X161017143Y-45903724D01*
X164175869Y-42745000D01*
X164731928Y-42745000D01*
X164731928Y-42862500D01*
X164744188Y-42986982D01*
X164780498Y-43106680D01*
X164839463Y-43216994D01*
X164918815Y-43313685D01*
X165015506Y-43393037D01*
X165125820Y-43452002D01*
X165245518Y-43488312D01*
X165370000Y-43500572D01*
X167370000Y-43500572D01*
X167494482Y-43488312D01*
X167614180Y-43452002D01*
X167724494Y-43393037D01*
X167821185Y-43313685D01*
X167900537Y-43216994D01*
X167959502Y-43106680D01*
X167995812Y-42986982D01*
X168008072Y-42862500D01*
X168008072Y-40957500D01*
X167995812Y-40833018D01*
X167959502Y-40713320D01*
X167900537Y-40603006D01*
X167821185Y-40506315D01*
X167724494Y-40426963D01*
X167640554Y-40382095D01*
X167743845Y-40256235D01*
X167891255Y-39980449D01*
X167982030Y-39681204D01*
X168012681Y-39370000D01*
X167982030Y-39058796D01*
X167944477Y-38935000D01*
X168195717Y-38935000D01*
X168134828Y-39048914D01*
X168087082Y-39206312D01*
X168070960Y-39370000D01*
X168075000Y-39411019D01*
X168075001Y-45995580D01*
X168019691Y-46050890D01*
X167858467Y-46292178D01*
X167747414Y-46560283D01*
X167690800Y-46844902D01*
X167690800Y-47135098D01*
X167747414Y-47419717D01*
X167858467Y-47687822D01*
X168019691Y-47929110D01*
X168224890Y-48134309D01*
X168466178Y-48295533D01*
X168734283Y-48406586D01*
X169018902Y-48463200D01*
X169309098Y-48463200D01*
X169593717Y-48406586D01*
X169861822Y-48295533D01*
X170103110Y-48134309D01*
X170308309Y-47929110D01*
X170469533Y-47687822D01*
X170561000Y-47467002D01*
X170652467Y-47687822D01*
X170813691Y-47929110D01*
X171018890Y-48134309D01*
X171123000Y-48203874D01*
X171123000Y-48676131D01*
X169618574Y-50180559D01*
X169586710Y-50206709D01*
X169560562Y-50238571D01*
X169482364Y-50333855D01*
X169404828Y-50478914D01*
X169357082Y-50636312D01*
X169340960Y-50800000D01*
X169345001Y-50841028D01*
X169345000Y-52232204D01*
X169297114Y-52264201D01*
X169104201Y-52457114D01*
X168952629Y-52683957D01*
X168911489Y-52783279D01*
X168896277Y-52741168D01*
X168835860Y-52628137D01*
X168596993Y-52562612D01*
X167819605Y-53340000D01*
X168596993Y-54117388D01*
X168835860Y-54051863D01*
X168910164Y-53893523D01*
X168952629Y-53996043D01*
X169104201Y-54222886D01*
X169297114Y-54415799D01*
X169523957Y-54567371D01*
X169776011Y-54671775D01*
X170043589Y-54725000D01*
X170316411Y-54725000D01*
X170583989Y-54671775D01*
X170836043Y-54567371D01*
X171062886Y-54415799D01*
X171255799Y-54222886D01*
X171333555Y-54106517D01*
X171344188Y-54214482D01*
X171380498Y-54334180D01*
X171439463Y-54444494D01*
X171518815Y-54541185D01*
X171615506Y-54620537D01*
X171725820Y-54679502D01*
X171845518Y-54715812D01*
X171970000Y-54728072D01*
X173470000Y-54728072D01*
X173594482Y-54715812D01*
X173714180Y-54679502D01*
X173824494Y-54620537D01*
X173921185Y-54541185D01*
X174000537Y-54444494D01*
X174059502Y-54334180D01*
X174095812Y-54214482D01*
X174098223Y-54190000D01*
X178851928Y-54190000D01*
X178864188Y-54314482D01*
X178900498Y-54434180D01*
X178959463Y-54544494D01*
X179038815Y-54641185D01*
X179135506Y-54720537D01*
X179245820Y-54779502D01*
X179365518Y-54815812D01*
X179490000Y-54828072D01*
X180054250Y-54825000D01*
X180213000Y-54666250D01*
X180213000Y-53467000D01*
X179013750Y-53467000D01*
X178855000Y-53625750D01*
X178851928Y-54190000D01*
X174098223Y-54190000D01*
X174108072Y-54090000D01*
X174108072Y-52590000D01*
X174098224Y-52490000D01*
X178851928Y-52490000D01*
X178855000Y-53054250D01*
X179013750Y-53213000D01*
X180213000Y-53213000D01*
X180213000Y-52013750D01*
X180054250Y-51855000D01*
X179490000Y-51851928D01*
X179365518Y-51864188D01*
X179245820Y-51900498D01*
X179135506Y-51959463D01*
X179038815Y-52038815D01*
X178959463Y-52135506D01*
X178900498Y-52245820D01*
X178864188Y-52365518D01*
X178851928Y-52490000D01*
X174098224Y-52490000D01*
X174095812Y-52465518D01*
X174059502Y-52345820D01*
X174000537Y-52235506D01*
X173921185Y-52138815D01*
X173824494Y-52059463D01*
X173714180Y-52000498D01*
X173594482Y-51964188D01*
X173470000Y-51951928D01*
X171970000Y-51951928D01*
X171845518Y-51964188D01*
X171725820Y-52000498D01*
X171615506Y-52059463D01*
X171518815Y-52138815D01*
X171439463Y-52235506D01*
X171380498Y-52345820D01*
X171344188Y-52465518D01*
X171333555Y-52573483D01*
X171255799Y-52457114D01*
X171062886Y-52264201D01*
X171015000Y-52232205D01*
X171015000Y-51145867D01*
X172519433Y-49641436D01*
X172551291Y-49615291D01*
X172583545Y-49575990D01*
X172655636Y-49488146D01*
X172733172Y-49343087D01*
X172780918Y-49185688D01*
X172797040Y-49022000D01*
X172793000Y-48980982D01*
X172793000Y-48203873D01*
X172897110Y-48134309D01*
X173102309Y-47929110D01*
X173263533Y-47687822D01*
X173374586Y-47419717D01*
X173431200Y-47135098D01*
X173431200Y-46844902D01*
X173374586Y-46560283D01*
X173263533Y-46292178D01*
X173102309Y-46050890D01*
X172897110Y-45845691D01*
X172793000Y-45776127D01*
X172793000Y-44870000D01*
X185201928Y-44870000D01*
X185205000Y-45434250D01*
X185363750Y-45593000D01*
X186563000Y-45593000D01*
X186563000Y-44393750D01*
X186817000Y-44393750D01*
X186817000Y-45593000D01*
X186837000Y-45593000D01*
X186837000Y-45847000D01*
X186817000Y-45847000D01*
X186817000Y-47046250D01*
X186975750Y-47205000D01*
X187540000Y-47208072D01*
X187664482Y-47195812D01*
X187784180Y-47159502D01*
X187894494Y-47100537D01*
X187991185Y-47021185D01*
X188070537Y-46924494D01*
X188129502Y-46814180D01*
X188151513Y-46741620D01*
X188283368Y-46873475D01*
X188526589Y-47035990D01*
X188796842Y-47147932D01*
X189083740Y-47205000D01*
X189376260Y-47205000D01*
X189663158Y-47147932D01*
X189933411Y-47035990D01*
X190176632Y-46873475D01*
X190383475Y-46666632D01*
X190545990Y-46423411D01*
X190657932Y-46153158D01*
X190715000Y-45866260D01*
X190715000Y-45573740D01*
X190657932Y-45286842D01*
X190545990Y-45016589D01*
X190383475Y-44773368D01*
X190176632Y-44566525D01*
X189933411Y-44404010D01*
X189663158Y-44292068D01*
X189376260Y-44235000D01*
X189083740Y-44235000D01*
X188796842Y-44292068D01*
X188526589Y-44404010D01*
X188283368Y-44566525D01*
X188151513Y-44698380D01*
X188129502Y-44625820D01*
X188070537Y-44515506D01*
X187991185Y-44418815D01*
X187894494Y-44339463D01*
X187784180Y-44280498D01*
X187664482Y-44244188D01*
X187540000Y-44231928D01*
X186975750Y-44235000D01*
X186817000Y-44393750D01*
X186563000Y-44393750D01*
X186404250Y-44235000D01*
X185840000Y-44231928D01*
X185715518Y-44244188D01*
X185595820Y-44280498D01*
X185485506Y-44339463D01*
X185388815Y-44418815D01*
X185309463Y-44515506D01*
X185250498Y-44625820D01*
X185214188Y-44745518D01*
X185201928Y-44870000D01*
X172793000Y-44870000D01*
X172793000Y-41853873D01*
X172897110Y-41784309D01*
X173021444Y-41659975D01*
X180261630Y-41659975D01*
X180337838Y-41907844D01*
X180599865Y-42032563D01*
X180881189Y-42103768D01*
X181170999Y-42118719D01*
X181458157Y-42076845D01*
X181731628Y-41979754D01*
X181866162Y-41907844D01*
X181942370Y-41659975D01*
X181772395Y-41490000D01*
X185201928Y-41490000D01*
X185214188Y-41614482D01*
X185250498Y-41734180D01*
X185309463Y-41844494D01*
X185388815Y-41941185D01*
X185485506Y-42020537D01*
X185595820Y-42079502D01*
X185715518Y-42115812D01*
X185840000Y-42128072D01*
X186404250Y-42125000D01*
X186563000Y-41966250D01*
X186563000Y-40767000D01*
X185363750Y-40767000D01*
X185205000Y-40925750D01*
X185201928Y-41490000D01*
X181772395Y-41490000D01*
X181102000Y-40819605D01*
X180261630Y-41659975D01*
X173021444Y-41659975D01*
X173102309Y-41579110D01*
X173263533Y-41337822D01*
X173374586Y-41069717D01*
X173431200Y-40785098D01*
X173431200Y-40708999D01*
X179623281Y-40708999D01*
X179665155Y-40996157D01*
X179762246Y-41269628D01*
X179834156Y-41404162D01*
X180082025Y-41480370D01*
X180922395Y-40640000D01*
X181281605Y-40640000D01*
X182121975Y-41480370D01*
X182369844Y-41404162D01*
X182494563Y-41142135D01*
X182565768Y-40860811D01*
X182580719Y-40571001D01*
X182538845Y-40283843D01*
X182441754Y-40010372D01*
X182369844Y-39875838D01*
X182121975Y-39799630D01*
X181281605Y-40640000D01*
X180922395Y-40640000D01*
X180082025Y-39799630D01*
X179834156Y-39875838D01*
X179709437Y-40137865D01*
X179638232Y-40419189D01*
X179623281Y-40708999D01*
X173431200Y-40708999D01*
X173431200Y-40494902D01*
X173374586Y-40210283D01*
X173263533Y-39942178D01*
X173102309Y-39700890D01*
X173021444Y-39620025D01*
X180261630Y-39620025D01*
X181102000Y-40460395D01*
X181772395Y-39790000D01*
X185201928Y-39790000D01*
X185205000Y-40354250D01*
X185363750Y-40513000D01*
X186563000Y-40513000D01*
X186563000Y-39313750D01*
X186817000Y-39313750D01*
X186817000Y-40513000D01*
X186837000Y-40513000D01*
X186837000Y-40767000D01*
X186817000Y-40767000D01*
X186817000Y-41966250D01*
X186975750Y-42125000D01*
X187540000Y-42128072D01*
X187664482Y-42115812D01*
X187784180Y-42079502D01*
X187894494Y-42020537D01*
X187991185Y-41941185D01*
X188070537Y-41844494D01*
X188129502Y-41734180D01*
X188151513Y-41661620D01*
X188283368Y-41793475D01*
X188395001Y-41868066D01*
X188395001Y-41951019D01*
X188407083Y-42073689D01*
X188454829Y-42231087D01*
X188532365Y-42376146D01*
X188636710Y-42503291D01*
X188763855Y-42607636D01*
X188908914Y-42685172D01*
X189066312Y-42732918D01*
X189230000Y-42749040D01*
X189393689Y-42732918D01*
X189551087Y-42685172D01*
X189696146Y-42607636D01*
X189823291Y-42503291D01*
X189927636Y-42376146D01*
X190005172Y-42231087D01*
X190052918Y-42073689D01*
X190065000Y-41951019D01*
X190065000Y-41868065D01*
X190176632Y-41793475D01*
X190383475Y-41586632D01*
X190448042Y-41490000D01*
X197901928Y-41490000D01*
X197914188Y-41614482D01*
X197950498Y-41734180D01*
X198009463Y-41844494D01*
X198088815Y-41941185D01*
X198185506Y-42020537D01*
X198295820Y-42079502D01*
X198415518Y-42115812D01*
X198540000Y-42128072D01*
X199104250Y-42125000D01*
X199263000Y-41966250D01*
X199263000Y-40767000D01*
X199517000Y-40767000D01*
X199517000Y-41966250D01*
X199675750Y-42125000D01*
X200240000Y-42128072D01*
X200364482Y-42115812D01*
X200484180Y-42079502D01*
X200594494Y-42020537D01*
X200691185Y-41941185D01*
X200770537Y-41844494D01*
X200829502Y-41734180D01*
X200865812Y-41614482D01*
X200878072Y-41490000D01*
X200875000Y-40925750D01*
X200716250Y-40767000D01*
X199517000Y-40767000D01*
X199263000Y-40767000D01*
X198063750Y-40767000D01*
X197905000Y-40925750D01*
X197901928Y-41490000D01*
X190448042Y-41490000D01*
X190545990Y-41343411D01*
X190657932Y-41073158D01*
X190715000Y-40786260D01*
X190715000Y-40493740D01*
X190657932Y-40206842D01*
X190545990Y-39936589D01*
X190383475Y-39693368D01*
X190176632Y-39486525D01*
X189933411Y-39324010D01*
X189663158Y-39212068D01*
X189376260Y-39155000D01*
X189083740Y-39155000D01*
X188796842Y-39212068D01*
X188526589Y-39324010D01*
X188283368Y-39486525D01*
X188151513Y-39618380D01*
X188129502Y-39545820D01*
X188070537Y-39435506D01*
X187991185Y-39338815D01*
X187894494Y-39259463D01*
X187784180Y-39200498D01*
X187664482Y-39164188D01*
X187540000Y-39151928D01*
X186975750Y-39155000D01*
X186817000Y-39313750D01*
X186563000Y-39313750D01*
X186404250Y-39155000D01*
X185840000Y-39151928D01*
X185715518Y-39164188D01*
X185595820Y-39200498D01*
X185485506Y-39259463D01*
X185388815Y-39338815D01*
X185309463Y-39435506D01*
X185250498Y-39545820D01*
X185214188Y-39665518D01*
X185201928Y-39790000D01*
X181772395Y-39790000D01*
X181942370Y-39620025D01*
X181866162Y-39372156D01*
X181604135Y-39247437D01*
X181322811Y-39176232D01*
X181033001Y-39161281D01*
X180745843Y-39203155D01*
X180472372Y-39300246D01*
X180337838Y-39372156D01*
X180261630Y-39620025D01*
X173021444Y-39620025D01*
X172897110Y-39495691D01*
X172655822Y-39334467D01*
X172387717Y-39223414D01*
X172103098Y-39166800D01*
X171812902Y-39166800D01*
X171528283Y-39223414D01*
X171260178Y-39334467D01*
X171018890Y-39495691D01*
X170813691Y-39700890D01*
X170652467Y-39942178D01*
X170541414Y-40210283D01*
X170484800Y-40494902D01*
X170484800Y-40785098D01*
X170541414Y-41069717D01*
X170652467Y-41337822D01*
X170813691Y-41579110D01*
X171018890Y-41784309D01*
X171123000Y-41853873D01*
X171123001Y-45776126D01*
X171018890Y-45845691D01*
X170813691Y-46050890D01*
X170652467Y-46292178D01*
X170561000Y-46512998D01*
X170469533Y-46292178D01*
X170308309Y-46050890D01*
X170103110Y-45845691D01*
X169861822Y-45684467D01*
X169745000Y-45636078D01*
X169745000Y-39715867D01*
X170525868Y-38935000D01*
X176488982Y-38935000D01*
X176530000Y-38939040D01*
X176571018Y-38935000D01*
X176571019Y-38935000D01*
X176693689Y-38922918D01*
X176851087Y-38875172D01*
X176996146Y-38797636D01*
X177123291Y-38693291D01*
X177149446Y-38661421D01*
X178361428Y-37449440D01*
X178393291Y-37423291D01*
X178497636Y-37296146D01*
X178575172Y-37151087D01*
X178622918Y-36993689D01*
X178635000Y-36871019D01*
X178635000Y-36871017D01*
X178639040Y-36830001D01*
X178635000Y-36788985D01*
X178635000Y-36788065D01*
X178746632Y-36713475D01*
X178953475Y-36506632D01*
X179018042Y-36410000D01*
X185201928Y-36410000D01*
X185214188Y-36534482D01*
X185250498Y-36654180D01*
X185309463Y-36764494D01*
X185388815Y-36861185D01*
X185485506Y-36940537D01*
X185595820Y-36999502D01*
X185715518Y-37035812D01*
X185840000Y-37048072D01*
X186404250Y-37045000D01*
X186563000Y-36886250D01*
X186563000Y-35687000D01*
X185363750Y-35687000D01*
X185205000Y-35845750D01*
X185201928Y-36410000D01*
X179018042Y-36410000D01*
X179115990Y-36263411D01*
X179227932Y-35993158D01*
X179285000Y-35706260D01*
X179285000Y-35413740D01*
X179227932Y-35126842D01*
X179115990Y-34856589D01*
X179018043Y-34710000D01*
X185201928Y-34710000D01*
X185205000Y-35274250D01*
X185363750Y-35433000D01*
X186563000Y-35433000D01*
X186563000Y-34233750D01*
X186817000Y-34233750D01*
X186817000Y-35433000D01*
X186837000Y-35433000D01*
X186837000Y-35687000D01*
X186817000Y-35687000D01*
X186817000Y-36886250D01*
X186975750Y-37045000D01*
X187540000Y-37048072D01*
X187664482Y-37035812D01*
X187784180Y-36999502D01*
X187894494Y-36940537D01*
X187991185Y-36861185D01*
X188070537Y-36764494D01*
X188129502Y-36654180D01*
X188151513Y-36581620D01*
X188283368Y-36713475D01*
X188526589Y-36875990D01*
X188796842Y-36987932D01*
X189083740Y-37045000D01*
X189376260Y-37045000D01*
X189663158Y-36987932D01*
X189933411Y-36875990D01*
X190176632Y-36713475D01*
X190383475Y-36506632D01*
X190545990Y-36263411D01*
X190657932Y-35993158D01*
X190715000Y-35706260D01*
X190715000Y-35413740D01*
X190657932Y-35126842D01*
X190545990Y-34856589D01*
X190383475Y-34613368D01*
X190176632Y-34406525D01*
X189933411Y-34244010D01*
X189663158Y-34132068D01*
X189376260Y-34075000D01*
X189083740Y-34075000D01*
X188796842Y-34132068D01*
X188526589Y-34244010D01*
X188283368Y-34406525D01*
X188151513Y-34538380D01*
X188129502Y-34465820D01*
X188070537Y-34355506D01*
X187991185Y-34258815D01*
X187894494Y-34179463D01*
X187784180Y-34120498D01*
X187664482Y-34084188D01*
X187540000Y-34071928D01*
X186975750Y-34075000D01*
X186817000Y-34233750D01*
X186563000Y-34233750D01*
X186404250Y-34075000D01*
X185840000Y-34071928D01*
X185715518Y-34084188D01*
X185595820Y-34120498D01*
X185485506Y-34179463D01*
X185388815Y-34258815D01*
X185309463Y-34355506D01*
X185250498Y-34465820D01*
X185214188Y-34585518D01*
X185201928Y-34710000D01*
X179018043Y-34710000D01*
X178953475Y-34613368D01*
X178746632Y-34406525D01*
X178503411Y-34244010D01*
X178233158Y-34132068D01*
X177946260Y-34075000D01*
X177653740Y-34075000D01*
X177366842Y-34132068D01*
X177096589Y-34244010D01*
X176853368Y-34406525D01*
X176721513Y-34538380D01*
X176699502Y-34465820D01*
X176640537Y-34355506D01*
X176561185Y-34258815D01*
X176464494Y-34179463D01*
X176354180Y-34120498D01*
X176234482Y-34084188D01*
X176110000Y-34071928D01*
X175545750Y-34075000D01*
X175387000Y-34233750D01*
X175387000Y-35433000D01*
X175407000Y-35433000D01*
X175407000Y-35687000D01*
X175387000Y-35687000D01*
X175387000Y-36886250D01*
X175545750Y-37045000D01*
X176110000Y-37048072D01*
X176234482Y-37035812D01*
X176354180Y-36999502D01*
X176464494Y-36940537D01*
X176561185Y-36861185D01*
X176640537Y-36764494D01*
X176699502Y-36654180D01*
X176721513Y-36581620D01*
X176794513Y-36654620D01*
X176184133Y-37265000D01*
X170221015Y-37265000D01*
X170179999Y-37260960D01*
X170138983Y-37265000D01*
X167985868Y-37265000D01*
X167954110Y-37233243D01*
X167982030Y-37141204D01*
X168012681Y-36830000D01*
X167982030Y-36518796D01*
X167949028Y-36410000D01*
X173771928Y-36410000D01*
X173784188Y-36534482D01*
X173820498Y-36654180D01*
X173879463Y-36764494D01*
X173958815Y-36861185D01*
X174055506Y-36940537D01*
X174165820Y-36999502D01*
X174285518Y-37035812D01*
X174410000Y-37048072D01*
X174974250Y-37045000D01*
X175133000Y-36886250D01*
X175133000Y-35687000D01*
X173933750Y-35687000D01*
X173775000Y-35845750D01*
X173771928Y-36410000D01*
X167949028Y-36410000D01*
X167891255Y-36219551D01*
X167743845Y-35943765D01*
X167545463Y-35702037D01*
X167303735Y-35503655D01*
X167027949Y-35356245D01*
X166728704Y-35265470D01*
X166495486Y-35242500D01*
X166244514Y-35242500D01*
X166011296Y-35265470D01*
X165712051Y-35356245D01*
X165436265Y-35503655D01*
X165194537Y-35702037D01*
X164996155Y-35943765D01*
X164848745Y-36219551D01*
X164757970Y-36518796D01*
X164727319Y-36830000D01*
X164757970Y-37141204D01*
X164848745Y-37440449D01*
X164996155Y-37716235D01*
X165194537Y-37957963D01*
X165367609Y-38100000D01*
X165194537Y-38242037D01*
X164996155Y-38483765D01*
X164968769Y-38535000D01*
X164892148Y-38535000D01*
X164355120Y-37997973D01*
X164355120Y-34710000D01*
X173771928Y-34710000D01*
X173775000Y-35274250D01*
X173933750Y-35433000D01*
X175133000Y-35433000D01*
X175133000Y-34233750D01*
X174974250Y-34075000D01*
X174410000Y-34071928D01*
X174285518Y-34084188D01*
X174165820Y-34120498D01*
X174055506Y-34179463D01*
X173958815Y-34258815D01*
X173879463Y-34355506D01*
X173820498Y-34465820D01*
X173784188Y-34585518D01*
X173771928Y-34710000D01*
X164355120Y-34710000D01*
X164355120Y-34503787D01*
X166273908Y-32585000D01*
X195234133Y-32585000D01*
X197931193Y-35282061D01*
X197905000Y-35413740D01*
X197905000Y-35706260D01*
X197962068Y-35993158D01*
X198074010Y-36263411D01*
X198236525Y-36506632D01*
X198443368Y-36713475D01*
X198617760Y-36830000D01*
X198443368Y-36946525D01*
X198236525Y-37153368D01*
X198074010Y-37396589D01*
X197962068Y-37666842D01*
X197905000Y-37953740D01*
X197905000Y-38246260D01*
X197962068Y-38533158D01*
X198074010Y-38803411D01*
X198236525Y-39046632D01*
X198368380Y-39178487D01*
X198295820Y-39200498D01*
X198185506Y-39259463D01*
X198088815Y-39338815D01*
X198009463Y-39435506D01*
X197950498Y-39545820D01*
X197914188Y-39665518D01*
X197901928Y-39790000D01*
X197905000Y-40354250D01*
X198063750Y-40513000D01*
X199263000Y-40513000D01*
X199263000Y-40493000D01*
X199517000Y-40493000D01*
X199517000Y-40513000D01*
X200716250Y-40513000D01*
X200875000Y-40354250D01*
X200878072Y-39790000D01*
X200865812Y-39665518D01*
X200829502Y-39545820D01*
X200770537Y-39435506D01*
X200691185Y-39338815D01*
X200594494Y-39259463D01*
X200484180Y-39200498D01*
X200411620Y-39178487D01*
X200543475Y-39046632D01*
X200705990Y-38803411D01*
X200817932Y-38533158D01*
X200875000Y-38246260D01*
X200875000Y-37953740D01*
X200817932Y-37666842D01*
X200705990Y-37396589D01*
X200543475Y-37153368D01*
X200336632Y-36946525D01*
X200162240Y-36830000D01*
X200336632Y-36713475D01*
X200543475Y-36506632D01*
X200705990Y-36263411D01*
X200817932Y-35993158D01*
X200875000Y-35706260D01*
X200875000Y-35413740D01*
X200817932Y-35126842D01*
X200705990Y-34856589D01*
X200543475Y-34613368D01*
X200336632Y-34406525D01*
X200093411Y-34244010D01*
X199823158Y-34132068D01*
X199536260Y-34075000D01*
X199243740Y-34075000D01*
X199112061Y-34101193D01*
X196199446Y-31188579D01*
X196173291Y-31156709D01*
X196152931Y-31140000D01*
X201897721Y-31140000D01*
X202541222Y-31203096D01*
X203129164Y-31380606D01*
X203671436Y-31668937D01*
X204147364Y-32057094D01*
X204538845Y-32530314D01*
X204830951Y-33070552D01*
X205012563Y-33657244D01*
X205080000Y-34298879D01*
X205080001Y-109187711D01*
X205016904Y-109831221D01*
X204839394Y-110419164D01*
X204551063Y-110961436D01*
X204162906Y-111437364D01*
X203689686Y-111828845D01*
X203149449Y-112120950D01*
X202562756Y-112302563D01*
X201921130Y-112370000D01*
X137192279Y-112370000D01*
X136548779Y-112306904D01*
X135960836Y-112129394D01*
X135418564Y-111841063D01*
X134942636Y-111452906D01*
X134551155Y-110979686D01*
X134259050Y-110439449D01*
X134077437Y-109852756D01*
X134010000Y-109211130D01*
X134010000Y-95331899D01*
X139565064Y-95331899D01*
X139606086Y-95604607D01*
X139699522Y-95864072D01*
X139761894Y-95980760D01*
X140002293Y-96048102D01*
X140790395Y-95260000D01*
X141149605Y-95260000D01*
X141937707Y-96048102D01*
X142178106Y-95980760D01*
X142295506Y-95731220D01*
X142361967Y-95463573D01*
X142374936Y-95188101D01*
X142333914Y-94915393D01*
X142240478Y-94655928D01*
X142178106Y-94539240D01*
X141937707Y-94471898D01*
X141149605Y-95260000D01*
X140790395Y-95260000D01*
X140002293Y-94471898D01*
X139761894Y-94539240D01*
X139644494Y-94788780D01*
X139578033Y-95056427D01*
X139565064Y-95331899D01*
X134010000Y-95331899D01*
X134010000Y-85662931D01*
X134026709Y-85683291D01*
X134058579Y-85709446D01*
X137810561Y-89461430D01*
X137836709Y-89493291D01*
X137963854Y-89597636D01*
X138108913Y-89675172D01*
X138266311Y-89722918D01*
X138388981Y-89735000D01*
X138388982Y-89735000D01*
X138430000Y-89739040D01*
X138471018Y-89735000D01*
X139638976Y-89735000D01*
X139623801Y-89771635D01*
X139570000Y-90042112D01*
X139570000Y-90317888D01*
X139623801Y-90588365D01*
X139729336Y-90843149D01*
X139882549Y-91072448D01*
X140077552Y-91267451D01*
X140306851Y-91420664D01*
X140377674Y-91450000D01*
X140306851Y-91479336D01*
X140077552Y-91632549D01*
X139882549Y-91827552D01*
X139729336Y-92056851D01*
X139623801Y-92311635D01*
X139570000Y-92582112D01*
X139570000Y-92857888D01*
X139623801Y-93128365D01*
X139729336Y-93383149D01*
X139882549Y-93612448D01*
X140077552Y-93807451D01*
X140306851Y-93960664D01*
X140371594Y-93987482D01*
X140365928Y-93989522D01*
X140249240Y-94051894D01*
X140181898Y-94292293D01*
X140970000Y-95080395D01*
X141758102Y-94292293D01*
X141690760Y-94051894D01*
X141560664Y-93990688D01*
X141633149Y-93960664D01*
X141862448Y-93807451D01*
X142057451Y-93612448D01*
X142210664Y-93383149D01*
X142316199Y-93128365D01*
X142370000Y-92857888D01*
X142370000Y-92582112D01*
X142316199Y-92311635D01*
X142210664Y-92056851D01*
X142057451Y-91827552D01*
X141862448Y-91632549D01*
X141633149Y-91479336D01*
X141562326Y-91450000D01*
X141633149Y-91420664D01*
X141862448Y-91267451D01*
X142057451Y-91072448D01*
X142095837Y-91015000D01*
X149104132Y-91015000D01*
X143154133Y-96965000D01*
X142095837Y-96965000D01*
X142057451Y-96907552D01*
X141862448Y-96712549D01*
X141633149Y-96559336D01*
X141568406Y-96532518D01*
X141574072Y-96530478D01*
X141690760Y-96468106D01*
X141758102Y-96227707D01*
X140970000Y-95439605D01*
X140181898Y-96227707D01*
X140249240Y-96468106D01*
X140379336Y-96529312D01*
X140306851Y-96559336D01*
X140077552Y-96712549D01*
X139882549Y-96907552D01*
X139729336Y-97136851D01*
X139623801Y-97391635D01*
X139570000Y-97662112D01*
X139570000Y-97937888D01*
X139623801Y-98208365D01*
X139729336Y-98463149D01*
X139882549Y-98692448D01*
X140077552Y-98887451D01*
X140306851Y-99040664D01*
X140377674Y-99070000D01*
X140306851Y-99099336D01*
X140077552Y-99252549D01*
X139882549Y-99447552D01*
X139729336Y-99676851D01*
X139623801Y-99931635D01*
X139570000Y-100202112D01*
X139570000Y-100477888D01*
X139623801Y-100748365D01*
X139729336Y-101003149D01*
X139882549Y-101232448D01*
X140077552Y-101427451D01*
X140306851Y-101580664D01*
X140377674Y-101610000D01*
X140306851Y-101639336D01*
X140077552Y-101792549D01*
X139882549Y-101987552D01*
X139729336Y-102216851D01*
X139623801Y-102471635D01*
X139570000Y-102742112D01*
X139570000Y-103017888D01*
X139623801Y-103288365D01*
X139729336Y-103543149D01*
X139882549Y-103772448D01*
X140077552Y-103967451D01*
X140306851Y-104120664D01*
X140377674Y-104150000D01*
X140306851Y-104179336D01*
X140077552Y-104332549D01*
X139882549Y-104527552D01*
X139729336Y-104756851D01*
X139623801Y-105011635D01*
X139570000Y-105282112D01*
X139570000Y-105557888D01*
X139623801Y-105828365D01*
X139729336Y-106083149D01*
X139882549Y-106312448D01*
X140077552Y-106507451D01*
X140306851Y-106660664D01*
X140377674Y-106690000D01*
X140306851Y-106719336D01*
X140077552Y-106872549D01*
X139882549Y-107067552D01*
X139729336Y-107296851D01*
X139623801Y-107551635D01*
X139570000Y-107822112D01*
X139570000Y-108097888D01*
X139623801Y-108368365D01*
X139729336Y-108623149D01*
X139882549Y-108852448D01*
X140077552Y-109047451D01*
X140306851Y-109200664D01*
X140561635Y-109306199D01*
X140832112Y-109360000D01*
X141107888Y-109360000D01*
X141378365Y-109306199D01*
X141633149Y-109200664D01*
X141862448Y-109047451D01*
X142057451Y-108852448D01*
X142210664Y-108623149D01*
X142316199Y-108368365D01*
X142370000Y-108097888D01*
X142370000Y-107822112D01*
X142316199Y-107551635D01*
X142210664Y-107296851D01*
X142057451Y-107067552D01*
X141862448Y-106872549D01*
X141633149Y-106719336D01*
X141562326Y-106690000D01*
X141633149Y-106660664D01*
X141862448Y-106507451D01*
X142057451Y-106312448D01*
X142210664Y-106083149D01*
X142316199Y-105828365D01*
X142370000Y-105557888D01*
X142370000Y-105282112D01*
X142316199Y-105011635D01*
X142210664Y-104756851D01*
X142057451Y-104527552D01*
X141862448Y-104332549D01*
X141633149Y-104179336D01*
X141562326Y-104150000D01*
X141633149Y-104120664D01*
X141862448Y-103967451D01*
X142057451Y-103772448D01*
X142210664Y-103543149D01*
X142316199Y-103288365D01*
X142370000Y-103017888D01*
X142370000Y-102742112D01*
X142316199Y-102471635D01*
X142210664Y-102216851D01*
X142057451Y-101987552D01*
X141862448Y-101792549D01*
X141633149Y-101639336D01*
X141562326Y-101610000D01*
X141633149Y-101580664D01*
X141862448Y-101427451D01*
X142057451Y-101232448D01*
X142210664Y-101003149D01*
X142316199Y-100748365D01*
X142370000Y-100477888D01*
X142370000Y-100202112D01*
X142316199Y-99931635D01*
X142210664Y-99676851D01*
X142057451Y-99447552D01*
X141862448Y-99252549D01*
X141633149Y-99099336D01*
X141562326Y-99070000D01*
X141633149Y-99040664D01*
X141862448Y-98887451D01*
X142057451Y-98692448D01*
X142095837Y-98635000D01*
X143458982Y-98635000D01*
X143500000Y-98639040D01*
X143541018Y-98635000D01*
X143541019Y-98635000D01*
X143663689Y-98622918D01*
X143821087Y-98575172D01*
X143966146Y-98497636D01*
X144093291Y-98393291D01*
X144119446Y-98361421D01*
X152745869Y-89735000D01*
X165038976Y-89735000D01*
X165023801Y-89771635D01*
X164970000Y-90042112D01*
X164970000Y-90317888D01*
X165023801Y-90588365D01*
X165129336Y-90843149D01*
X165282549Y-91072448D01*
X165477552Y-91267451D01*
X165706851Y-91420664D01*
X165777674Y-91450000D01*
X165706851Y-91479336D01*
X165477552Y-91632549D01*
X165282549Y-91827552D01*
X165129336Y-92056851D01*
X165023801Y-92311635D01*
X164970000Y-92582112D01*
X164970000Y-92857888D01*
X165023801Y-93128365D01*
X165129336Y-93383149D01*
X165282549Y-93612448D01*
X165477552Y-93807451D01*
X165706851Y-93960664D01*
X165777674Y-93990000D01*
X165706851Y-94019336D01*
X165477552Y-94172549D01*
X165282549Y-94367552D01*
X165129336Y-94596851D01*
X165023801Y-94851635D01*
X164970000Y-95122112D01*
X164970000Y-95397888D01*
X165023801Y-95668365D01*
X165129336Y-95923149D01*
X165282549Y-96152448D01*
X165477552Y-96347451D01*
X165706851Y-96500664D01*
X165777674Y-96530000D01*
X165706851Y-96559336D01*
X165477552Y-96712549D01*
X165282549Y-96907552D01*
X165129336Y-97136851D01*
X165023801Y-97391635D01*
X164970000Y-97662112D01*
X164970000Y-97937888D01*
X165023801Y-98208365D01*
X165129336Y-98463149D01*
X165282549Y-98692448D01*
X165477552Y-98887451D01*
X165706851Y-99040664D01*
X165777674Y-99070000D01*
X165706851Y-99099336D01*
X165477552Y-99252549D01*
X165282549Y-99447552D01*
X165129336Y-99676851D01*
X165023801Y-99931635D01*
X164970000Y-100202112D01*
X164970000Y-100477888D01*
X165023801Y-100748365D01*
X165129336Y-101003149D01*
X165282549Y-101232448D01*
X165477552Y-101427451D01*
X165706851Y-101580664D01*
X165777674Y-101610000D01*
X165706851Y-101639336D01*
X165477552Y-101792549D01*
X165282549Y-101987552D01*
X165129336Y-102216851D01*
X165023801Y-102471635D01*
X164970000Y-102742112D01*
X164970000Y-103017888D01*
X165023801Y-103288365D01*
X165129336Y-103543149D01*
X165282549Y-103772448D01*
X165477552Y-103967451D01*
X165706851Y-104120664D01*
X165777674Y-104150000D01*
X165706851Y-104179336D01*
X165477552Y-104332549D01*
X165282549Y-104527552D01*
X165129336Y-104756851D01*
X165023801Y-105011635D01*
X164970000Y-105282112D01*
X164970000Y-105557888D01*
X165023801Y-105828365D01*
X165129336Y-106083149D01*
X165282549Y-106312448D01*
X165477552Y-106507451D01*
X165706851Y-106660664D01*
X165777674Y-106690000D01*
X165706851Y-106719336D01*
X165477552Y-106872549D01*
X165282549Y-107067552D01*
X165129336Y-107296851D01*
X165023801Y-107551635D01*
X164970000Y-107822112D01*
X164970000Y-108097888D01*
X165023801Y-108368365D01*
X165129336Y-108623149D01*
X165282549Y-108852448D01*
X165477552Y-109047451D01*
X165706851Y-109200664D01*
X165961635Y-109306199D01*
X166232112Y-109360000D01*
X166507888Y-109360000D01*
X166778365Y-109306199D01*
X167033149Y-109200664D01*
X167262448Y-109047451D01*
X167457451Y-108852448D01*
X167610664Y-108623149D01*
X167716199Y-108368365D01*
X167718647Y-108356058D01*
X198069080Y-108356058D01*
X198069080Y-109042542D01*
X198203007Y-109715837D01*
X198465713Y-110350066D01*
X198847104Y-110920858D01*
X199332522Y-111406276D01*
X199903314Y-111787667D01*
X200537543Y-112050373D01*
X201210838Y-112184300D01*
X201897322Y-112184300D01*
X202570617Y-112050373D01*
X203204846Y-111787667D01*
X203775638Y-111406276D01*
X204261056Y-110920858D01*
X204642447Y-110350066D01*
X204905153Y-109715837D01*
X205039080Y-109042542D01*
X205039080Y-108356058D01*
X204905153Y-107682763D01*
X204642447Y-107048534D01*
X204261056Y-106477742D01*
X203775638Y-105992324D01*
X203204846Y-105610933D01*
X202570617Y-105348227D01*
X201897322Y-105214300D01*
X201210838Y-105214300D01*
X200537543Y-105348227D01*
X199903314Y-105610933D01*
X199332522Y-105992324D01*
X198847104Y-106477742D01*
X198465713Y-107048534D01*
X198203007Y-107682763D01*
X198069080Y-108356058D01*
X167718647Y-108356058D01*
X167770000Y-108097888D01*
X167770000Y-107822112D01*
X167716199Y-107551635D01*
X167610664Y-107296851D01*
X167457451Y-107067552D01*
X167262448Y-106872549D01*
X167033149Y-106719336D01*
X166962326Y-106690000D01*
X167033149Y-106660664D01*
X167262448Y-106507451D01*
X167457451Y-106312448D01*
X167610664Y-106083149D01*
X167716199Y-105828365D01*
X167770000Y-105557888D01*
X167770000Y-105282112D01*
X167716199Y-105011635D01*
X167610664Y-104756851D01*
X167457451Y-104527552D01*
X167262448Y-104332549D01*
X167033149Y-104179336D01*
X166962326Y-104150000D01*
X167033149Y-104120664D01*
X167262448Y-103967451D01*
X167457451Y-103772448D01*
X167610664Y-103543149D01*
X167716199Y-103288365D01*
X167770000Y-103017888D01*
X167770000Y-102742112D01*
X167716199Y-102471635D01*
X167610664Y-102216851D01*
X167457451Y-101987552D01*
X167262448Y-101792549D01*
X167033149Y-101639336D01*
X166962326Y-101610000D01*
X167033149Y-101580664D01*
X167262448Y-101427451D01*
X167457451Y-101232448D01*
X167610664Y-101003149D01*
X167716199Y-100748365D01*
X167770000Y-100477888D01*
X167770000Y-100202112D01*
X167716199Y-99931635D01*
X167610664Y-99676851D01*
X167457451Y-99447552D01*
X167262448Y-99252549D01*
X167033149Y-99099336D01*
X166962326Y-99070000D01*
X167033149Y-99040664D01*
X167262448Y-98887451D01*
X167457451Y-98692448D01*
X167610664Y-98463149D01*
X167716199Y-98208365D01*
X167770000Y-97937888D01*
X167770000Y-97662112D01*
X167716199Y-97391635D01*
X167610664Y-97136851D01*
X167457451Y-96907552D01*
X167262448Y-96712549D01*
X167033149Y-96559336D01*
X166962326Y-96530000D01*
X167033149Y-96500664D01*
X167262448Y-96347451D01*
X167457451Y-96152448D01*
X167610664Y-95923149D01*
X167716199Y-95668365D01*
X167770000Y-95397888D01*
X167770000Y-95122112D01*
X167716199Y-94851635D01*
X167610664Y-94596851D01*
X167457451Y-94367552D01*
X167262448Y-94172549D01*
X167033149Y-94019336D01*
X166962326Y-93990000D01*
X167033149Y-93960664D01*
X167262448Y-93807451D01*
X167457451Y-93612448D01*
X167610664Y-93383149D01*
X167716199Y-93128365D01*
X167770000Y-92857888D01*
X167770000Y-92582112D01*
X167716199Y-92311635D01*
X167610664Y-92056851D01*
X167457451Y-91827552D01*
X167262448Y-91632549D01*
X167033149Y-91479336D01*
X166962326Y-91450000D01*
X167033149Y-91420664D01*
X167262448Y-91267451D01*
X167457451Y-91072448D01*
X167495837Y-91015000D01*
X177748982Y-91015000D01*
X177790000Y-91019040D01*
X177831018Y-91015000D01*
X177831019Y-91015000D01*
X177953689Y-91002918D01*
X178111087Y-90955172D01*
X178256146Y-90877636D01*
X178383291Y-90773291D01*
X178409446Y-90741421D01*
X185981428Y-83169440D01*
X186013291Y-83143291D01*
X186117636Y-83016146D01*
X186195172Y-82871087D01*
X186242918Y-82713689D01*
X186255000Y-82591019D01*
X186255000Y-82591009D01*
X186259039Y-82550001D01*
X186255000Y-82508993D01*
X186255000Y-69808065D01*
X186366632Y-69733475D01*
X186573475Y-69526632D01*
X186690000Y-69352240D01*
X186806525Y-69526632D01*
X187013368Y-69733475D01*
X187256589Y-69895990D01*
X187526842Y-70007932D01*
X187813740Y-70065000D01*
X188106260Y-70065000D01*
X188393158Y-70007932D01*
X188663411Y-69895990D01*
X188906632Y-69733475D01*
X189038487Y-69601620D01*
X189060498Y-69674180D01*
X189119463Y-69784494D01*
X189198815Y-69881185D01*
X189295506Y-69960537D01*
X189405820Y-70019502D01*
X189525518Y-70055812D01*
X189650000Y-70068072D01*
X190214250Y-70065000D01*
X190373000Y-69906250D01*
X190373000Y-68707000D01*
X190627000Y-68707000D01*
X190627000Y-69906250D01*
X190785750Y-70065000D01*
X191350000Y-70068072D01*
X191474482Y-70055812D01*
X191594180Y-70019502D01*
X191704494Y-69960537D01*
X191801185Y-69881185D01*
X191880537Y-69784494D01*
X191939502Y-69674180D01*
X191975812Y-69554482D01*
X191988072Y-69430000D01*
X191985000Y-68865750D01*
X191826250Y-68707000D01*
X190627000Y-68707000D01*
X190373000Y-68707000D01*
X190353000Y-68707000D01*
X190353000Y-68453000D01*
X190373000Y-68453000D01*
X190373000Y-67253750D01*
X190627000Y-67253750D01*
X190627000Y-68453000D01*
X191826250Y-68453000D01*
X191985000Y-68294250D01*
X191988072Y-67730000D01*
X191975812Y-67605518D01*
X191939502Y-67485820D01*
X191880537Y-67375506D01*
X191801185Y-67278815D01*
X191704494Y-67199463D01*
X191594180Y-67140498D01*
X191474482Y-67104188D01*
X191350000Y-67091928D01*
X190785750Y-67095000D01*
X190627000Y-67253750D01*
X190373000Y-67253750D01*
X190214250Y-67095000D01*
X189650000Y-67091928D01*
X189525518Y-67104188D01*
X189405820Y-67140498D01*
X189295506Y-67199463D01*
X189198815Y-67278815D01*
X189119463Y-67375506D01*
X189060498Y-67485820D01*
X189038487Y-67558380D01*
X188906632Y-67426525D01*
X188663411Y-67264010D01*
X188393158Y-67152068D01*
X188106260Y-67095000D01*
X187813740Y-67095000D01*
X187526842Y-67152068D01*
X187256589Y-67264010D01*
X187013368Y-67426525D01*
X186806525Y-67633368D01*
X186690000Y-67807760D01*
X186573475Y-67633368D01*
X186366632Y-67426525D01*
X186123411Y-67264010D01*
X185853158Y-67152068D01*
X185566260Y-67095000D01*
X185273740Y-67095000D01*
X184986842Y-67152068D01*
X184716589Y-67264010D01*
X184473368Y-67426525D01*
X184266525Y-67633368D01*
X184150000Y-67807760D01*
X184033475Y-67633368D01*
X183826632Y-67426525D01*
X183583411Y-67264010D01*
X183313158Y-67152068D01*
X183026260Y-67095000D01*
X182733740Y-67095000D01*
X182446842Y-67152068D01*
X182176589Y-67264010D01*
X181933368Y-67426525D01*
X181726525Y-67633368D01*
X181610000Y-67807760D01*
X181493475Y-67633368D01*
X181286632Y-67426525D01*
X181043411Y-67264010D01*
X180773158Y-67152068D01*
X180486260Y-67095000D01*
X180193740Y-67095000D01*
X179906842Y-67152068D01*
X179636589Y-67264010D01*
X179393368Y-67426525D01*
X179186525Y-67633368D01*
X179070000Y-67807760D01*
X178953475Y-67633368D01*
X178746632Y-67426525D01*
X178503411Y-67264010D01*
X178233158Y-67152068D01*
X177946260Y-67095000D01*
X177653740Y-67095000D01*
X177366842Y-67152068D01*
X177096589Y-67264010D01*
X176853368Y-67426525D01*
X176646525Y-67633368D01*
X176484010Y-67876589D01*
X176372068Y-68146842D01*
X176315000Y-68433740D01*
X176315000Y-68726260D01*
X176372068Y-69013158D01*
X176484010Y-69283411D01*
X176646525Y-69526632D01*
X176853368Y-69733475D01*
X177096589Y-69895990D01*
X177366842Y-70007932D01*
X177653740Y-70065000D01*
X177946260Y-70065000D01*
X178233158Y-70007932D01*
X178503411Y-69895990D01*
X178746632Y-69733475D01*
X178953475Y-69526632D01*
X179070000Y-69352240D01*
X179186525Y-69526632D01*
X179393368Y-69733475D01*
X179636589Y-69895990D01*
X179906842Y-70007932D01*
X180193740Y-70065000D01*
X180486260Y-70065000D01*
X180617940Y-70038807D01*
X182045001Y-71465869D01*
X182045000Y-82204131D01*
X178724133Y-85525000D01*
X167709309Y-85525000D01*
X167716199Y-85508365D01*
X167770000Y-85237888D01*
X167770000Y-84962112D01*
X167716199Y-84691635D01*
X167700240Y-84653107D01*
X167803689Y-84642918D01*
X167961087Y-84595172D01*
X168106146Y-84517636D01*
X168233291Y-84413291D01*
X168259446Y-84381421D01*
X170741427Y-81899441D01*
X170773291Y-81873291D01*
X170877636Y-81746146D01*
X170955172Y-81601087D01*
X171002918Y-81443689D01*
X171015000Y-81321019D01*
X171015000Y-81321009D01*
X171019039Y-81280001D01*
X171015000Y-81238993D01*
X171015000Y-72060093D01*
X171148102Y-72115226D01*
X171293225Y-72144093D01*
X172100558Y-72951426D01*
X172126709Y-72983291D01*
X172253854Y-73087636D01*
X172398913Y-73165172D01*
X172556311Y-73212918D01*
X172678981Y-73225000D01*
X172678983Y-73225000D01*
X172719999Y-73229040D01*
X172761015Y-73225000D01*
X179726715Y-73225000D01*
X179849744Y-73307205D01*
X180038102Y-73385226D01*
X180238061Y-73425000D01*
X180441939Y-73425000D01*
X180641898Y-73385226D01*
X180830256Y-73307205D01*
X180999774Y-73193937D01*
X181143937Y-73049774D01*
X181257205Y-72880256D01*
X181335226Y-72691898D01*
X181375000Y-72491939D01*
X181375000Y-72288061D01*
X181335226Y-72088102D01*
X181257205Y-71899744D01*
X181143937Y-71730226D01*
X180999774Y-71586063D01*
X180830256Y-71472795D01*
X180641898Y-71394774D01*
X180441939Y-71355000D01*
X180238061Y-71355000D01*
X180038102Y-71394774D01*
X179849744Y-71472795D01*
X179726715Y-71555000D01*
X173065868Y-71555000D01*
X172474093Y-70963225D01*
X172445226Y-70818102D01*
X172367205Y-70629744D01*
X172253937Y-70460226D01*
X172109774Y-70316063D01*
X171940256Y-70202795D01*
X171751898Y-70124774D01*
X171551939Y-70085000D01*
X171348061Y-70085000D01*
X171148102Y-70124774D01*
X171015000Y-70179907D01*
X171015000Y-67655867D01*
X171795868Y-66875000D01*
X185378982Y-66875000D01*
X185420000Y-66879040D01*
X185461018Y-66875000D01*
X185461019Y-66875000D01*
X185583689Y-66862918D01*
X185741087Y-66815172D01*
X185886146Y-66737636D01*
X186013291Y-66633291D01*
X186039446Y-66601421D01*
X195925869Y-56715000D01*
X198161935Y-56715000D01*
X198236525Y-56826632D01*
X198443368Y-57033475D01*
X198617760Y-57150000D01*
X198443368Y-57266525D01*
X198236525Y-57473368D01*
X198074010Y-57716589D01*
X197962068Y-57986842D01*
X197905000Y-58273740D01*
X197905000Y-58566260D01*
X197962068Y-58853158D01*
X198074010Y-59123411D01*
X198236525Y-59366632D01*
X198443368Y-59573475D01*
X198625534Y-59695195D01*
X198508645Y-59764822D01*
X198292412Y-59959731D01*
X198118359Y-60193080D01*
X197993175Y-60455901D01*
X197948524Y-60603110D01*
X198069845Y-60833000D01*
X199263000Y-60833000D01*
X199263000Y-60813000D01*
X199517000Y-60813000D01*
X199517000Y-60833000D01*
X200710155Y-60833000D01*
X200831476Y-60603110D01*
X200786825Y-60455901D01*
X200661641Y-60193080D01*
X200487588Y-59959731D01*
X200271355Y-59764822D01*
X200154466Y-59695195D01*
X200336632Y-59573475D01*
X200543475Y-59366632D01*
X200705990Y-59123411D01*
X200817932Y-58853158D01*
X200875000Y-58566260D01*
X200875000Y-58273740D01*
X200817932Y-57986842D01*
X200705990Y-57716589D01*
X200543475Y-57473368D01*
X200336632Y-57266525D01*
X200162240Y-57150000D01*
X200336632Y-57033475D01*
X200543475Y-56826632D01*
X200705990Y-56583411D01*
X200817932Y-56313158D01*
X200875000Y-56026260D01*
X200875000Y-55733740D01*
X200817932Y-55446842D01*
X200705990Y-55176589D01*
X200657240Y-55103629D01*
X201095000Y-54665870D01*
X201095001Y-64424131D01*
X200731362Y-64787771D01*
X200691185Y-64738815D01*
X200594494Y-64659463D01*
X200484180Y-64600498D01*
X200411620Y-64578487D01*
X200543475Y-64446632D01*
X200705990Y-64203411D01*
X200817932Y-63933158D01*
X200875000Y-63646260D01*
X200875000Y-63353740D01*
X200817932Y-63066842D01*
X200705990Y-62796589D01*
X200543475Y-62553368D01*
X200336632Y-62346525D01*
X200154466Y-62224805D01*
X200271355Y-62155178D01*
X200487588Y-61960269D01*
X200661641Y-61726920D01*
X200786825Y-61464099D01*
X200831476Y-61316890D01*
X200710155Y-61087000D01*
X199517000Y-61087000D01*
X199517000Y-61107000D01*
X199263000Y-61107000D01*
X199263000Y-61087000D01*
X198069845Y-61087000D01*
X197948524Y-61316890D01*
X197993175Y-61464099D01*
X198118359Y-61726920D01*
X198292412Y-61960269D01*
X198508645Y-62155178D01*
X198625534Y-62224805D01*
X198443368Y-62346525D01*
X198236525Y-62553368D01*
X198074010Y-62796589D01*
X197962068Y-63066842D01*
X197905000Y-63353740D01*
X197905000Y-63646260D01*
X197962068Y-63933158D01*
X198074010Y-64203411D01*
X198236525Y-64446632D01*
X198368380Y-64578487D01*
X198295820Y-64600498D01*
X198185506Y-64659463D01*
X198088815Y-64738815D01*
X198009463Y-64835506D01*
X197950498Y-64945820D01*
X197914188Y-65065518D01*
X197901928Y-65190000D01*
X197901928Y-66890000D01*
X197914188Y-67014482D01*
X197950498Y-67134180D01*
X198009463Y-67244494D01*
X198088815Y-67341185D01*
X198185506Y-67420537D01*
X198295820Y-67479502D01*
X198415518Y-67515812D01*
X198540000Y-67528072D01*
X200240000Y-67528072D01*
X200364482Y-67515812D01*
X200484180Y-67479502D01*
X200594494Y-67420537D01*
X200691185Y-67341185D01*
X200770537Y-67244494D01*
X200829502Y-67134180D01*
X200865812Y-67014482D01*
X200878072Y-66890000D01*
X200878072Y-66846421D01*
X200981087Y-66815172D01*
X201126146Y-66737636D01*
X201253291Y-66633291D01*
X201279446Y-66601421D01*
X202491426Y-65389442D01*
X202523291Y-65363291D01*
X202627636Y-65236146D01*
X202705172Y-65091087D01*
X202752918Y-64933689D01*
X202765000Y-64811019D01*
X202765000Y-64811017D01*
X202769040Y-64770001D01*
X202765000Y-64728981D01*
X202765000Y-47031015D01*
X202769040Y-46989999D01*
X202757563Y-46873475D01*
X202752918Y-46826311D01*
X202705172Y-46668913D01*
X202627636Y-46523854D01*
X202523291Y-46396709D01*
X202491428Y-46370560D01*
X201279446Y-45158579D01*
X201253291Y-45126709D01*
X201126146Y-45022364D01*
X200981087Y-44944828D01*
X200823689Y-44897082D01*
X200701019Y-44885000D01*
X200701018Y-44885000D01*
X200660000Y-44880960D01*
X200618982Y-44885000D01*
X198161007Y-44885000D01*
X198119999Y-44880961D01*
X198078991Y-44885000D01*
X198078981Y-44885000D01*
X197956311Y-44897082D01*
X197798913Y-44944828D01*
X197653854Y-45022364D01*
X197526709Y-45126709D01*
X197500561Y-45158571D01*
X195234133Y-47425000D01*
X182717868Y-47425000D01*
X182550772Y-47257905D01*
X182575200Y-47135098D01*
X182575200Y-46844902D01*
X182520519Y-46570000D01*
X185201928Y-46570000D01*
X185214188Y-46694482D01*
X185250498Y-46814180D01*
X185309463Y-46924494D01*
X185388815Y-47021185D01*
X185485506Y-47100537D01*
X185595820Y-47159502D01*
X185715518Y-47195812D01*
X185840000Y-47208072D01*
X186404250Y-47205000D01*
X186563000Y-47046250D01*
X186563000Y-45847000D01*
X185363750Y-45847000D01*
X185205000Y-46005750D01*
X185201928Y-46570000D01*
X182520519Y-46570000D01*
X182518586Y-46560283D01*
X182407533Y-46292178D01*
X182246309Y-46050890D01*
X182041110Y-45845691D01*
X181799822Y-45684467D01*
X181531717Y-45573414D01*
X181247098Y-45516800D01*
X180956902Y-45516800D01*
X180672283Y-45573414D01*
X180404178Y-45684467D01*
X180162890Y-45845691D01*
X179957691Y-46050890D01*
X179796467Y-46292178D01*
X179685414Y-46560283D01*
X179628800Y-46844902D01*
X179628800Y-47135098D01*
X179685414Y-47419717D01*
X179796467Y-47687822D01*
X179957691Y-47929110D01*
X180162890Y-48134309D01*
X180404178Y-48295533D01*
X180672283Y-48406586D01*
X180956902Y-48463200D01*
X181247098Y-48463200D01*
X181369905Y-48438772D01*
X181752558Y-48821426D01*
X181778709Y-48853291D01*
X181905854Y-48957636D01*
X182050913Y-49035172D01*
X182208311Y-49082918D01*
X182330981Y-49095000D01*
X182330983Y-49095000D01*
X182371999Y-49099040D01*
X182413015Y-49095000D01*
X195538982Y-49095000D01*
X195580000Y-49099040D01*
X195621018Y-49095000D01*
X195621019Y-49095000D01*
X195743689Y-49082918D01*
X195901087Y-49035172D01*
X196046146Y-48957636D01*
X196173291Y-48853291D01*
X196199446Y-48821421D01*
X198465868Y-46555000D01*
X200314133Y-46555000D01*
X201095000Y-47335868D01*
X201095000Y-51324132D01*
X200848807Y-51077939D01*
X200875000Y-50946260D01*
X200875000Y-50653740D01*
X200817932Y-50366842D01*
X200705990Y-50096589D01*
X200543475Y-49853368D01*
X200336632Y-49646525D01*
X200162240Y-49530000D01*
X200336632Y-49413475D01*
X200543475Y-49206632D01*
X200705990Y-48963411D01*
X200817932Y-48693158D01*
X200875000Y-48406260D01*
X200875000Y-48113740D01*
X200817932Y-47826842D01*
X200705990Y-47556589D01*
X200543475Y-47313368D01*
X200336632Y-47106525D01*
X200093411Y-46944010D01*
X199823158Y-46832068D01*
X199536260Y-46775000D01*
X199243740Y-46775000D01*
X198956842Y-46832068D01*
X198686589Y-46944010D01*
X198443368Y-47106525D01*
X198236525Y-47313368D01*
X198074010Y-47556589D01*
X197962068Y-47826842D01*
X197905000Y-48113740D01*
X197905000Y-48406260D01*
X197931193Y-48537939D01*
X193875000Y-52594132D01*
X193875000Y-52111015D01*
X193879040Y-52069999D01*
X193873030Y-52008982D01*
X193862918Y-51906311D01*
X193815172Y-51748913D01*
X193737636Y-51603854D01*
X193633291Y-51476709D01*
X193601428Y-51450560D01*
X192389446Y-50238579D01*
X192363291Y-50206709D01*
X192236146Y-50102364D01*
X192091087Y-50024828D01*
X191933689Y-49977082D01*
X191811019Y-49965000D01*
X191811018Y-49965000D01*
X191770000Y-49960960D01*
X191728982Y-49965000D01*
X185461007Y-49965000D01*
X185419999Y-49960961D01*
X185378991Y-49965000D01*
X185378981Y-49965000D01*
X185256311Y-49977082D01*
X185098913Y-50024828D01*
X184953854Y-50102364D01*
X184826709Y-50206709D01*
X184800561Y-50238571D01*
X183157940Y-51881193D01*
X183026260Y-51855000D01*
X182733740Y-51855000D01*
X182446842Y-51912068D01*
X182176589Y-52024010D01*
X181933368Y-52186525D01*
X181801513Y-52318380D01*
X181779502Y-52245820D01*
X181720537Y-52135506D01*
X181641185Y-52038815D01*
X181544494Y-51959463D01*
X181434180Y-51900498D01*
X181314482Y-51864188D01*
X181190000Y-51851928D01*
X180625750Y-51855000D01*
X180467000Y-52013750D01*
X180467000Y-53213000D01*
X180487000Y-53213000D01*
X180487000Y-53467000D01*
X180467000Y-53467000D01*
X180467000Y-54666250D01*
X180625750Y-54825000D01*
X181190000Y-54828072D01*
X181314482Y-54815812D01*
X181434180Y-54779502D01*
X181544494Y-54720537D01*
X181641185Y-54641185D01*
X181720537Y-54544494D01*
X181779502Y-54434180D01*
X181801513Y-54361620D01*
X181933368Y-54493475D01*
X182176589Y-54655990D01*
X182446842Y-54767932D01*
X182733740Y-54825000D01*
X182754132Y-54825000D01*
X181264133Y-56315000D01*
X144821015Y-56315000D01*
X144779999Y-56310960D01*
X144738983Y-56315000D01*
X144738981Y-56315000D01*
X144616311Y-56327082D01*
X144458913Y-56374828D01*
X144313854Y-56452364D01*
X144186709Y-56556709D01*
X144160561Y-56588571D01*
X142948579Y-57800554D01*
X142916709Y-57826709D01*
X142812365Y-57953854D01*
X142812364Y-57953855D01*
X142734828Y-58098914D01*
X142687082Y-58256312D01*
X142670960Y-58420000D01*
X142675000Y-58461019D01*
X142675001Y-69514131D01*
X142370000Y-69819132D01*
X142370000Y-69722112D01*
X142316199Y-69451635D01*
X142210664Y-69196851D01*
X142057451Y-68967552D01*
X141862448Y-68772549D01*
X141633149Y-68619336D01*
X141562326Y-68590000D01*
X141633149Y-68560664D01*
X141862448Y-68407451D01*
X142057451Y-68212448D01*
X142210664Y-67983149D01*
X142316199Y-67728365D01*
X142370000Y-67457888D01*
X142370000Y-67182112D01*
X142316199Y-66911635D01*
X142210664Y-66656851D01*
X142057451Y-66427552D01*
X141862448Y-66232549D01*
X141633149Y-66079336D01*
X141562326Y-66050000D01*
X141633149Y-66020664D01*
X141862448Y-65867451D01*
X142057451Y-65672448D01*
X142210664Y-65443149D01*
X142316199Y-65188365D01*
X142370000Y-64917888D01*
X142370000Y-64642112D01*
X142316199Y-64371635D01*
X142210664Y-64116851D01*
X142057451Y-63887552D01*
X141862448Y-63692549D01*
X141781541Y-63638488D01*
X141859482Y-63630812D01*
X141979180Y-63594502D01*
X142089494Y-63535537D01*
X142186185Y-63456185D01*
X142265537Y-63359494D01*
X142324502Y-63249180D01*
X142360812Y-63129482D01*
X142373072Y-63005000D01*
X142373072Y-61475000D01*
X142360812Y-61350518D01*
X142324502Y-61230820D01*
X142265537Y-61120506D01*
X142186185Y-61023815D01*
X142089494Y-60944463D01*
X141979180Y-60885498D01*
X141859482Y-60849188D01*
X141735000Y-60836928D01*
X140205000Y-60836928D01*
X140080518Y-60849188D01*
X139960820Y-60885498D01*
X139850506Y-60944463D01*
X139753815Y-61023815D01*
X139674463Y-61120506D01*
X139615498Y-61230820D01*
X139579188Y-61350518D01*
X139566928Y-61475000D01*
X139566928Y-62462204D01*
X137995000Y-64034133D01*
X137995000Y-54296993D01*
X166862612Y-54296993D01*
X166928137Y-54535860D01*
X167175116Y-54651760D01*
X167439960Y-54717250D01*
X167712492Y-54729812D01*
X167982238Y-54688965D01*
X168238832Y-54596277D01*
X168351863Y-54535860D01*
X168417388Y-54296993D01*
X167640000Y-53519605D01*
X166862612Y-54296993D01*
X137995000Y-54296993D01*
X137995000Y-53412492D01*
X166250188Y-53412492D01*
X166291035Y-53682238D01*
X166383723Y-53938832D01*
X166444140Y-54051863D01*
X166683007Y-54117388D01*
X167460395Y-53340000D01*
X166683007Y-52562612D01*
X166444140Y-52628137D01*
X166328240Y-52875116D01*
X166262750Y-53139960D01*
X166250188Y-53412492D01*
X137995000Y-53412492D01*
X137995000Y-52383007D01*
X166862612Y-52383007D01*
X167640000Y-53160395D01*
X168417388Y-52383007D01*
X168351863Y-52144140D01*
X168104884Y-52028240D01*
X167840040Y-51962750D01*
X167567508Y-51950188D01*
X167297762Y-51991035D01*
X167041168Y-52083723D01*
X166928137Y-52144140D01*
X166862612Y-52383007D01*
X137995000Y-52383007D01*
X137995000Y-51613227D01*
X138557975Y-51050253D01*
X138612565Y-51131952D01*
X138819408Y-51338795D01*
X139062629Y-51501310D01*
X139332882Y-51613252D01*
X139619780Y-51670320D01*
X139912300Y-51670320D01*
X140199198Y-51613252D01*
X140469451Y-51501310D01*
X140712672Y-51338795D01*
X140919515Y-51131952D01*
X141036040Y-50957560D01*
X141152565Y-51131952D01*
X141359408Y-51338795D01*
X141602629Y-51501310D01*
X141872882Y-51613252D01*
X142159780Y-51670320D01*
X142452300Y-51670320D01*
X142739198Y-51613252D01*
X143009451Y-51501310D01*
X143252672Y-51338795D01*
X143459515Y-51131952D01*
X143576040Y-50957560D01*
X143692565Y-51131952D01*
X143899408Y-51338795D01*
X144142629Y-51501310D01*
X144412882Y-51613252D01*
X144699780Y-51670320D01*
X144992300Y-51670320D01*
X145279198Y-51613252D01*
X145549451Y-51501310D01*
X145792672Y-51338795D01*
X145999515Y-51131952D01*
X146116040Y-50957560D01*
X146232565Y-51131952D01*
X146439408Y-51338795D01*
X146682629Y-51501310D01*
X146952882Y-51613252D01*
X147239780Y-51670320D01*
X147532300Y-51670320D01*
X147819198Y-51613252D01*
X148089451Y-51501310D01*
X148332672Y-51338795D01*
X148539515Y-51131952D01*
X148656040Y-50957560D01*
X148772565Y-51131952D01*
X148979408Y-51338795D01*
X149222629Y-51501310D01*
X149492882Y-51613252D01*
X149779780Y-51670320D01*
X150072300Y-51670320D01*
X150359198Y-51613252D01*
X150629451Y-51501310D01*
X150872672Y-51338795D01*
X151079515Y-51131952D01*
X151201235Y-50949786D01*
X151270862Y-51066675D01*
X151465771Y-51282908D01*
X151699120Y-51456961D01*
X151961941Y-51582145D01*
X152109150Y-51626796D01*
X152339040Y-51505475D01*
X152339040Y-50312320D01*
X152319040Y-50312320D01*
X152319040Y-50058320D01*
X152339040Y-50058320D01*
X152339040Y-48865165D01*
X152593040Y-48865165D01*
X152593040Y-50058320D01*
X152613040Y-50058320D01*
X152613040Y-50312320D01*
X152593040Y-50312320D01*
X152593040Y-51505475D01*
X152822930Y-51626796D01*
X152970139Y-51582145D01*
X153232960Y-51456961D01*
X153466309Y-51282908D01*
X153542074Y-51198854D01*
X153566538Y-51279500D01*
X153625503Y-51389814D01*
X153704855Y-51486505D01*
X153801546Y-51565857D01*
X153911860Y-51624822D01*
X154031558Y-51661132D01*
X154156040Y-51673392D01*
X155856040Y-51673392D01*
X155980522Y-51661132D01*
X156100220Y-51624822D01*
X156210534Y-51565857D01*
X156307225Y-51486505D01*
X156386577Y-51389814D01*
X156445542Y-51279500D01*
X156481852Y-51159802D01*
X156494112Y-51035320D01*
X156494112Y-49335320D01*
X156481852Y-49210838D01*
X156445542Y-49091140D01*
X156386577Y-48980826D01*
X156307225Y-48884135D01*
X156210534Y-48804783D01*
X156100220Y-48745818D01*
X155980522Y-48709508D01*
X155856040Y-48697248D01*
X154156040Y-48697248D01*
X154031558Y-48709508D01*
X153911860Y-48745818D01*
X153801546Y-48804783D01*
X153704855Y-48884135D01*
X153625503Y-48980826D01*
X153566538Y-49091140D01*
X153542074Y-49171786D01*
X153466309Y-49087732D01*
X153232960Y-48913679D01*
X152970139Y-48788495D01*
X152822930Y-48743844D01*
X152593040Y-48865165D01*
X152339040Y-48865165D01*
X152109150Y-48743844D01*
X151961941Y-48788495D01*
X151699120Y-48913679D01*
X151465771Y-49087732D01*
X151270862Y-49303965D01*
X151201235Y-49420854D01*
X151079515Y-49238688D01*
X150872672Y-49031845D01*
X150629451Y-48869330D01*
X150359198Y-48757388D01*
X150072300Y-48700320D01*
X149779780Y-48700320D01*
X149492882Y-48757388D01*
X149222629Y-48869330D01*
X148979408Y-49031845D01*
X148772565Y-49238688D01*
X148656040Y-49413080D01*
X148539515Y-49238688D01*
X148332672Y-49031845D01*
X148089451Y-48869330D01*
X147819198Y-48757388D01*
X147532300Y-48700320D01*
X147239780Y-48700320D01*
X146952882Y-48757388D01*
X146682629Y-48869330D01*
X146439408Y-49031845D01*
X146232565Y-49238688D01*
X146116040Y-49413080D01*
X145999515Y-49238688D01*
X145792672Y-49031845D01*
X145681040Y-48957255D01*
X145681040Y-47566958D01*
X145685080Y-47525940D01*
X145672831Y-47401570D01*
X145668958Y-47362251D01*
X145621212Y-47204853D01*
X145543676Y-47059794D01*
X145520060Y-47031018D01*
X145465479Y-46964510D01*
X145465477Y-46964508D01*
X145439331Y-46932649D01*
X145407473Y-46906504D01*
X144779685Y-46278718D01*
X144753531Y-46246849D01*
X144626386Y-46142504D01*
X144481327Y-46064968D01*
X144323929Y-46017222D01*
X144201259Y-46005140D01*
X144201258Y-46005140D01*
X144160240Y-46001100D01*
X144119222Y-46005140D01*
X136141838Y-46005140D01*
X136100820Y-46001100D01*
X136059802Y-46005140D01*
X136059801Y-46005140D01*
X135937131Y-46017222D01*
X135826142Y-46050890D01*
X135779733Y-46064968D01*
X135634674Y-46142504D01*
X135546547Y-46214828D01*
X135507529Y-46246849D01*
X135481383Y-46278708D01*
X134058574Y-47701519D01*
X134026710Y-47727669D01*
X134010000Y-47748030D01*
X134010000Y-34497938D01*
X134094100Y-34497938D01*
X134094100Y-35184422D01*
X134228027Y-35857717D01*
X134490733Y-36491946D01*
X134872124Y-37062738D01*
X135357542Y-37548156D01*
X135928334Y-37929547D01*
X136562563Y-38192253D01*
X137235858Y-38326180D01*
X137922342Y-38326180D01*
X138595637Y-38192253D01*
X139229866Y-37929547D01*
X139800658Y-37548156D01*
X140286076Y-37062738D01*
X140667467Y-36491946D01*
X140930173Y-35857717D01*
X141064100Y-35184422D01*
X141064100Y-34497938D01*
X140930173Y-33824643D01*
X140667467Y-33190414D01*
X140286076Y-32619622D01*
X139800658Y-32134204D01*
X139229866Y-31752813D01*
X138595637Y-31490107D01*
X137922342Y-31356180D01*
X137235858Y-31356180D01*
X136562563Y-31490107D01*
X135928334Y-31752813D01*
X135357542Y-32134204D01*
X134872124Y-32619622D01*
X134490733Y-33190414D01*
X134228027Y-33824643D01*
X134094100Y-34497938D01*
X134010000Y-34497938D01*
X134010000Y-34322279D01*
X134073096Y-33678778D01*
X134250606Y-33090836D01*
X134538937Y-32548564D01*
X134927094Y-32072636D01*
X135400314Y-31681155D01*
X135940552Y-31389049D01*
X136527244Y-31207437D01*
X137168879Y-31140000D01*
X165355109Y-31140000D01*
X165334749Y-31156709D01*
G37*
%TD.AperFunction*%
D22*
X164978033Y-62036427D02*
X164965064Y-62311899D01*
X165006086Y-62584607D01*
X165035857Y-62667278D01*
X164936311Y-62677082D01*
X164778913Y-62724828D01*
X164633854Y-62802364D01*
X164506709Y-62906709D01*
X164480561Y-62938571D01*
X163268579Y-64150554D01*
X163236709Y-64176709D01*
X163132365Y-64303854D01*
X163132364Y-64303855D01*
X163054828Y-64448914D01*
X163007082Y-64606312D01*
X162990960Y-64770000D01*
X162995000Y-64811019D01*
X162995001Y-73618971D01*
X162990960Y-73660000D01*
X163007082Y-73823688D01*
X163054828Y-73981086D01*
X163054829Y-73981087D01*
X163132365Y-74126146D01*
X163236710Y-74253291D01*
X163268574Y-74279441D01*
X164490558Y-75501426D01*
X164516709Y-75533291D01*
X164643854Y-75637636D01*
X164788913Y-75715172D01*
X164946311Y-75762918D01*
X165068981Y-75775000D01*
X165068991Y-75775000D01*
X165109999Y-75779039D01*
X165151007Y-75775000D01*
X165244163Y-75775000D01*
X165282549Y-75832448D01*
X165477552Y-76027451D01*
X165706851Y-76180664D01*
X165771594Y-76207482D01*
X165765928Y-76209522D01*
X165649240Y-76271894D01*
X165581898Y-76512293D01*
X166370000Y-77300395D01*
X167158102Y-76512293D01*
X167090760Y-76271894D01*
X166960664Y-76210688D01*
X167033149Y-76180664D01*
X167262448Y-76027451D01*
X167457451Y-75832448D01*
X167610664Y-75603149D01*
X167716199Y-75348365D01*
X167770000Y-75077888D01*
X167770000Y-74802112D01*
X167716199Y-74531635D01*
X167610664Y-74276851D01*
X167457451Y-74047552D01*
X167262448Y-73852549D01*
X167033149Y-73699336D01*
X166962326Y-73670000D01*
X167033149Y-73640664D01*
X167262448Y-73487451D01*
X167457451Y-73292448D01*
X167610664Y-73063149D01*
X167716199Y-72808365D01*
X167770000Y-72537888D01*
X167770000Y-72262112D01*
X167716199Y-71991635D01*
X167610664Y-71736851D01*
X167457451Y-71507552D01*
X167262448Y-71312549D01*
X167033149Y-71159336D01*
X166962326Y-71130000D01*
X167033149Y-71100664D01*
X167262448Y-70947451D01*
X167457451Y-70752448D01*
X167610664Y-70523149D01*
X167716199Y-70268365D01*
X167770000Y-69997888D01*
X167770000Y-69722112D01*
X167716199Y-69451635D01*
X167610664Y-69196851D01*
X167457451Y-68967552D01*
X167262448Y-68772549D01*
X167033149Y-68619336D01*
X166962326Y-68590000D01*
X167033149Y-68560664D01*
X167262448Y-68407451D01*
X167457451Y-68212448D01*
X167610664Y-67983149D01*
X167716199Y-67728365D01*
X167770000Y-67457888D01*
X167770000Y-67182112D01*
X167716199Y-66911635D01*
X167610664Y-66656851D01*
X167457451Y-66427552D01*
X167262448Y-66232549D01*
X167033149Y-66079336D01*
X166962326Y-66050000D01*
X167033149Y-66020664D01*
X167262448Y-65867451D01*
X167457451Y-65672448D01*
X167495837Y-65615000D01*
X167588982Y-65615000D01*
X167630000Y-65619040D01*
X167671018Y-65615000D01*
X167671019Y-65615000D01*
X167793689Y-65602918D01*
X167951087Y-65555172D01*
X168096146Y-65477636D01*
X168223291Y-65373291D01*
X168249446Y-65341421D01*
X169255868Y-64335000D01*
X169434132Y-64335000D01*
X168348579Y-65420554D01*
X168316709Y-65446709D01*
X168227697Y-65555172D01*
X168212364Y-65573855D01*
X168134828Y-65718914D01*
X168087082Y-65876312D01*
X168070960Y-66040000D01*
X168075000Y-66081019D01*
X168075001Y-80934131D01*
X167399516Y-81609617D01*
X167262448Y-81472549D01*
X167033149Y-81319336D01*
X166962326Y-81290000D01*
X167033149Y-81260664D01*
X167262448Y-81107451D01*
X167457451Y-80912448D01*
X167610664Y-80683149D01*
X167716199Y-80428365D01*
X167770000Y-80157888D01*
X167770000Y-79882112D01*
X167716199Y-79611635D01*
X167610664Y-79356851D01*
X167457451Y-79127552D01*
X167262448Y-78932549D01*
X167033149Y-78779336D01*
X166968406Y-78752518D01*
X166974072Y-78750478D01*
X167090760Y-78688106D01*
X167158102Y-78447707D01*
X166370000Y-77659605D01*
X165581898Y-78447707D01*
X165649240Y-78688106D01*
X165779336Y-78749312D01*
X165706851Y-78779336D01*
X165477552Y-78932549D01*
X165282549Y-79127552D01*
X165244163Y-79185000D01*
X165131018Y-79185000D01*
X165089999Y-79180960D01*
X165048981Y-79185000D01*
X164926311Y-79197082D01*
X164768913Y-79244828D01*
X164623854Y-79322364D01*
X164496709Y-79426709D01*
X164470558Y-79458574D01*
X163268574Y-80660559D01*
X163236710Y-80686709D01*
X163210562Y-80718571D01*
X163132364Y-80813855D01*
X163054828Y-80958914D01*
X163007082Y-81116312D01*
X162990960Y-81280000D01*
X162995001Y-81321028D01*
X162995000Y-82508981D01*
X162990960Y-82550000D01*
X162995000Y-82591018D01*
X163007082Y-82713688D01*
X163054828Y-82871086D01*
X163132364Y-83016145D01*
X163236709Y-83143291D01*
X163268579Y-83169446D01*
X164480558Y-84381426D01*
X164506709Y-84413291D01*
X164633854Y-84517636D01*
X164778913Y-84595172D01*
X164936311Y-84642918D01*
X165039760Y-84653107D01*
X165023801Y-84691635D01*
X164970000Y-84962112D01*
X164970000Y-85237888D01*
X165023801Y-85508365D01*
X165030691Y-85525000D01*
X163500093Y-85525000D01*
X163555226Y-85391898D01*
X163595000Y-85191939D01*
X163595000Y-84988061D01*
X163555226Y-84788102D01*
X163477205Y-84599744D01*
X163363937Y-84430226D01*
X163219774Y-84286063D01*
X163050256Y-84172795D01*
X162861898Y-84094774D01*
X162716777Y-84065908D01*
X158315000Y-79664133D01*
X158315000Y-79353285D01*
X158397205Y-79230256D01*
X158475226Y-79041898D01*
X158515000Y-78841939D01*
X158515000Y-78638061D01*
X158475226Y-78438102D01*
X158397205Y-78249744D01*
X158283937Y-78080226D01*
X158139774Y-77936063D01*
X157970256Y-77822795D01*
X157781898Y-77744774D01*
X157581939Y-77705000D01*
X157378061Y-77705000D01*
X157178102Y-77744774D01*
X156989744Y-77822795D01*
X156820226Y-77936063D01*
X156676063Y-78080226D01*
X156562795Y-78249744D01*
X156484774Y-78438102D01*
X156445000Y-78638061D01*
X156445000Y-78841939D01*
X156484774Y-79041898D01*
X156562795Y-79230256D01*
X156645000Y-79353286D01*
X156645001Y-79968972D01*
X156640960Y-80010000D01*
X156657082Y-80173688D01*
X156704828Y-80331086D01*
X156782364Y-80476145D01*
X156782365Y-80476146D01*
X156886710Y-80603291D01*
X156918574Y-80629441D01*
X161535908Y-85246777D01*
X161564774Y-85391898D01*
X161619907Y-85525000D01*
X153711018Y-85525000D01*
X153670000Y-85520960D01*
X153506311Y-85537082D01*
X153348913Y-85584828D01*
X153203854Y-85662364D01*
X153134308Y-85719439D01*
X153076709Y-85766709D01*
X153050563Y-85798568D01*
X149504133Y-89345000D01*
X142975867Y-89345000D01*
X144071426Y-88249442D01*
X144103291Y-88223291D01*
X144207636Y-88096146D01*
X144285172Y-87951087D01*
X144332918Y-87793689D01*
X144345000Y-87671019D01*
X144345000Y-87671017D01*
X144349040Y-87630001D01*
X144345000Y-87588985D01*
X144345000Y-83861015D01*
X144349040Y-83819999D01*
X144342520Y-83753801D01*
X144332918Y-83656311D01*
X144285172Y-83498913D01*
X144207636Y-83353854D01*
X144103291Y-83226709D01*
X144071428Y-83200560D01*
X142859437Y-81988570D01*
X142833290Y-81956710D01*
X142763505Y-81899438D01*
X142706145Y-81852364D01*
X142561086Y-81774828D01*
X142403688Y-81727082D01*
X142240000Y-81710960D01*
X142239999Y-81710960D01*
X142097451Y-81725000D01*
X142095837Y-81725000D01*
X142057451Y-81667552D01*
X141862448Y-81472549D01*
X141633149Y-81319336D01*
X141562326Y-81290000D01*
X141633149Y-81260664D01*
X141862448Y-81107451D01*
X142057451Y-80912448D01*
X142210664Y-80683149D01*
X142316199Y-80428365D01*
X142370000Y-80157888D01*
X142370000Y-79882112D01*
X142316199Y-79611635D01*
X142300240Y-79573107D01*
X142403689Y-79562918D01*
X142561087Y-79515172D01*
X142706146Y-79437636D01*
X142833291Y-79333291D01*
X142859446Y-79301421D01*
X144608968Y-77551899D01*
X164965064Y-77551899D01*
X165006086Y-77824607D01*
X165099522Y-78084072D01*
X165161894Y-78200760D01*
X165402293Y-78268102D01*
X166190395Y-77480000D01*
X166549605Y-77480000D01*
X167337707Y-78268102D01*
X167578106Y-78200760D01*
X167695506Y-77951220D01*
X167761967Y-77683573D01*
X167774936Y-77408101D01*
X167733914Y-77135393D01*
X167640478Y-76875928D01*
X167578106Y-76759240D01*
X167337707Y-76691898D01*
X166549605Y-77480000D01*
X166190395Y-77480000D01*
X165402293Y-76691898D01*
X165161894Y-76759240D01*
X165044494Y-77008780D01*
X164978033Y-77276427D01*
X164965064Y-77551899D01*
X144608968Y-77551899D01*
X147881432Y-74279437D01*
X147913291Y-74253291D01*
X147939440Y-74221429D01*
X148017636Y-74126146D01*
X148095172Y-73981087D01*
X148142918Y-73823689D01*
X148159040Y-73660000D01*
X148155000Y-73618982D01*
X148155000Y-62575867D01*
X148935868Y-61795000D01*
X165037983Y-61795000D01*
X164978033Y-62036427D01*
%TA.AperFunction,Conductor*%
D23*
G36*
X164978033Y-62036427D02*
G01*
X164965064Y-62311899D01*
X165006086Y-62584607D01*
X165035857Y-62667278D01*
X164936311Y-62677082D01*
X164778913Y-62724828D01*
X164633854Y-62802364D01*
X164506709Y-62906709D01*
X164480561Y-62938571D01*
X163268579Y-64150554D01*
X163236709Y-64176709D01*
X163132365Y-64303854D01*
X163132364Y-64303855D01*
X163054828Y-64448914D01*
X163007082Y-64606312D01*
X162990960Y-64770000D01*
X162995000Y-64811019D01*
X162995001Y-73618971D01*
X162990960Y-73660000D01*
X163007082Y-73823688D01*
X163054828Y-73981086D01*
X163054829Y-73981087D01*
X163132365Y-74126146D01*
X163236710Y-74253291D01*
X163268574Y-74279441D01*
X164490558Y-75501426D01*
X164516709Y-75533291D01*
X164643854Y-75637636D01*
X164788913Y-75715172D01*
X164946311Y-75762918D01*
X165068981Y-75775000D01*
X165068991Y-75775000D01*
X165109999Y-75779039D01*
X165151007Y-75775000D01*
X165244163Y-75775000D01*
X165282549Y-75832448D01*
X165477552Y-76027451D01*
X165706851Y-76180664D01*
X165771594Y-76207482D01*
X165765928Y-76209522D01*
X165649240Y-76271894D01*
X165581898Y-76512293D01*
X166370000Y-77300395D01*
X167158102Y-76512293D01*
X167090760Y-76271894D01*
X166960664Y-76210688D01*
X167033149Y-76180664D01*
X167262448Y-76027451D01*
X167457451Y-75832448D01*
X167610664Y-75603149D01*
X167716199Y-75348365D01*
X167770000Y-75077888D01*
X167770000Y-74802112D01*
X167716199Y-74531635D01*
X167610664Y-74276851D01*
X167457451Y-74047552D01*
X167262448Y-73852549D01*
X167033149Y-73699336D01*
X166962326Y-73670000D01*
X167033149Y-73640664D01*
X167262448Y-73487451D01*
X167457451Y-73292448D01*
X167610664Y-73063149D01*
X167716199Y-72808365D01*
X167770000Y-72537888D01*
X167770000Y-72262112D01*
X167716199Y-71991635D01*
X167610664Y-71736851D01*
X167457451Y-71507552D01*
X167262448Y-71312549D01*
X167033149Y-71159336D01*
X166962326Y-71130000D01*
X167033149Y-71100664D01*
X167262448Y-70947451D01*
X167457451Y-70752448D01*
X167610664Y-70523149D01*
X167716199Y-70268365D01*
X167770000Y-69997888D01*
X167770000Y-69722112D01*
X167716199Y-69451635D01*
X167610664Y-69196851D01*
X167457451Y-68967552D01*
X167262448Y-68772549D01*
X167033149Y-68619336D01*
X166962326Y-68590000D01*
X167033149Y-68560664D01*
X167262448Y-68407451D01*
X167457451Y-68212448D01*
X167610664Y-67983149D01*
X167716199Y-67728365D01*
X167770000Y-67457888D01*
X167770000Y-67182112D01*
X167716199Y-66911635D01*
X167610664Y-66656851D01*
X167457451Y-66427552D01*
X167262448Y-66232549D01*
X167033149Y-66079336D01*
X166962326Y-66050000D01*
X167033149Y-66020664D01*
X167262448Y-65867451D01*
X167457451Y-65672448D01*
X167495837Y-65615000D01*
X167588982Y-65615000D01*
X167630000Y-65619040D01*
X167671018Y-65615000D01*
X167671019Y-65615000D01*
X167793689Y-65602918D01*
X167951087Y-65555172D01*
X168096146Y-65477636D01*
X168223291Y-65373291D01*
X168249446Y-65341421D01*
X169255868Y-64335000D01*
X169434132Y-64335000D01*
X168348579Y-65420554D01*
X168316709Y-65446709D01*
X168227697Y-65555172D01*
X168212364Y-65573855D01*
X168134828Y-65718914D01*
X168087082Y-65876312D01*
X168070960Y-66040000D01*
X168075000Y-66081019D01*
X168075001Y-80934131D01*
X167399516Y-81609617D01*
X167262448Y-81472549D01*
X167033149Y-81319336D01*
X166962326Y-81290000D01*
X167033149Y-81260664D01*
X167262448Y-81107451D01*
X167457451Y-80912448D01*
X167610664Y-80683149D01*
X167716199Y-80428365D01*
X167770000Y-80157888D01*
X167770000Y-79882112D01*
X167716199Y-79611635D01*
X167610664Y-79356851D01*
X167457451Y-79127552D01*
X167262448Y-78932549D01*
X167033149Y-78779336D01*
X166968406Y-78752518D01*
X166974072Y-78750478D01*
X167090760Y-78688106D01*
X167158102Y-78447707D01*
X166370000Y-77659605D01*
X165581898Y-78447707D01*
X165649240Y-78688106D01*
X165779336Y-78749312D01*
X165706851Y-78779336D01*
X165477552Y-78932549D01*
X165282549Y-79127552D01*
X165244163Y-79185000D01*
X165131018Y-79185000D01*
X165089999Y-79180960D01*
X165048981Y-79185000D01*
X164926311Y-79197082D01*
X164768913Y-79244828D01*
X164623854Y-79322364D01*
X164496709Y-79426709D01*
X164470558Y-79458574D01*
X163268574Y-80660559D01*
X163236710Y-80686709D01*
X163210562Y-80718571D01*
X163132364Y-80813855D01*
X163054828Y-80958914D01*
X163007082Y-81116312D01*
X162990960Y-81280000D01*
X162995001Y-81321028D01*
X162995000Y-82508981D01*
X162990960Y-82550000D01*
X162995000Y-82591018D01*
X163007082Y-82713688D01*
X163054828Y-82871086D01*
X163132364Y-83016145D01*
X163236709Y-83143291D01*
X163268579Y-83169446D01*
X164480558Y-84381426D01*
X164506709Y-84413291D01*
X164633854Y-84517636D01*
X164778913Y-84595172D01*
X164936311Y-84642918D01*
X165039760Y-84653107D01*
X165023801Y-84691635D01*
X164970000Y-84962112D01*
X164970000Y-85237888D01*
X165023801Y-85508365D01*
X165030691Y-85525000D01*
X163500093Y-85525000D01*
X163555226Y-85391898D01*
X163595000Y-85191939D01*
X163595000Y-84988061D01*
X163555226Y-84788102D01*
X163477205Y-84599744D01*
X163363937Y-84430226D01*
X163219774Y-84286063D01*
X163050256Y-84172795D01*
X162861898Y-84094774D01*
X162716777Y-84065908D01*
X158315000Y-79664133D01*
X158315000Y-79353285D01*
X158397205Y-79230256D01*
X158475226Y-79041898D01*
X158515000Y-78841939D01*
X158515000Y-78638061D01*
X158475226Y-78438102D01*
X158397205Y-78249744D01*
X158283937Y-78080226D01*
X158139774Y-77936063D01*
X157970256Y-77822795D01*
X157781898Y-77744774D01*
X157581939Y-77705000D01*
X157378061Y-77705000D01*
X157178102Y-77744774D01*
X156989744Y-77822795D01*
X156820226Y-77936063D01*
X156676063Y-78080226D01*
X156562795Y-78249744D01*
X156484774Y-78438102D01*
X156445000Y-78638061D01*
X156445000Y-78841939D01*
X156484774Y-79041898D01*
X156562795Y-79230256D01*
X156645000Y-79353286D01*
X156645001Y-79968972D01*
X156640960Y-80010000D01*
X156657082Y-80173688D01*
X156704828Y-80331086D01*
X156782364Y-80476145D01*
X156782365Y-80476146D01*
X156886710Y-80603291D01*
X156918574Y-80629441D01*
X161535908Y-85246777D01*
X161564774Y-85391898D01*
X161619907Y-85525000D01*
X153711018Y-85525000D01*
X153670000Y-85520960D01*
X153506311Y-85537082D01*
X153348913Y-85584828D01*
X153203854Y-85662364D01*
X153134308Y-85719439D01*
X153076709Y-85766709D01*
X153050563Y-85798568D01*
X149504133Y-89345000D01*
X142975867Y-89345000D01*
X144071426Y-88249442D01*
X144103291Y-88223291D01*
X144207636Y-88096146D01*
X144285172Y-87951087D01*
X144332918Y-87793689D01*
X144345000Y-87671019D01*
X144345000Y-87671017D01*
X144349040Y-87630001D01*
X144345000Y-87588985D01*
X144345000Y-83861015D01*
X144349040Y-83819999D01*
X144342520Y-83753801D01*
X144332918Y-83656311D01*
X144285172Y-83498913D01*
X144207636Y-83353854D01*
X144103291Y-83226709D01*
X144071428Y-83200560D01*
X142859437Y-81988570D01*
X142833290Y-81956710D01*
X142763505Y-81899438D01*
X142706145Y-81852364D01*
X142561086Y-81774828D01*
X142403688Y-81727082D01*
X142240000Y-81710960D01*
X142239999Y-81710960D01*
X142097451Y-81725000D01*
X142095837Y-81725000D01*
X142057451Y-81667552D01*
X141862448Y-81472549D01*
X141633149Y-81319336D01*
X141562326Y-81290000D01*
X141633149Y-81260664D01*
X141862448Y-81107451D01*
X142057451Y-80912448D01*
X142210664Y-80683149D01*
X142316199Y-80428365D01*
X142370000Y-80157888D01*
X142370000Y-79882112D01*
X142316199Y-79611635D01*
X142300240Y-79573107D01*
X142403689Y-79562918D01*
X142561087Y-79515172D01*
X142706146Y-79437636D01*
X142833291Y-79333291D01*
X142859446Y-79301421D01*
X144608968Y-77551899D01*
X164965064Y-77551899D01*
X165006086Y-77824607D01*
X165099522Y-78084072D01*
X165161894Y-78200760D01*
X165402293Y-78268102D01*
X166190395Y-77480000D01*
X166549605Y-77480000D01*
X167337707Y-78268102D01*
X167578106Y-78200760D01*
X167695506Y-77951220D01*
X167761967Y-77683573D01*
X167774936Y-77408101D01*
X167733914Y-77135393D01*
X167640478Y-76875928D01*
X167578106Y-76759240D01*
X167337707Y-76691898D01*
X166549605Y-77480000D01*
X166190395Y-77480000D01*
X165402293Y-76691898D01*
X165161894Y-76759240D01*
X165044494Y-77008780D01*
X164978033Y-77276427D01*
X164965064Y-77551899D01*
X144608968Y-77551899D01*
X147881432Y-74279437D01*
X147913291Y-74253291D01*
X147939440Y-74221429D01*
X148017636Y-74126146D01*
X148095172Y-73981087D01*
X148142918Y-73823689D01*
X148159040Y-73660000D01*
X148155000Y-73618982D01*
X148155000Y-62575867D01*
X148935868Y-61795000D01*
X165037983Y-61795000D01*
X164978033Y-62036427D01*
G37*
%TD.AperFunction*%
D22*
X166563748Y-62225858D02*
X166549605Y-62240000D01*
X166563748Y-62254143D01*
X166384143Y-62433748D01*
X166370000Y-62419605D01*
X166355858Y-62433748D01*
X166176253Y-62254143D01*
X166190395Y-62240000D01*
X166176253Y-62225858D01*
X166355858Y-62046253D01*
X166370000Y-62060395D01*
X166384143Y-62046253D01*
X166563748Y-62225858D01*
%TA.AperFunction,Conductor*%
D23*
G36*
X166563748Y-62225858D02*
G01*
X166549605Y-62240000D01*
X166563748Y-62254143D01*
X166384143Y-62433748D01*
X166370000Y-62419605D01*
X166355858Y-62433748D01*
X166176253Y-62254143D01*
X166190395Y-62240000D01*
X166176253Y-62225858D01*
X166355858Y-62046253D01*
X166370000Y-62060395D01*
X166384143Y-62046253D01*
X166563748Y-62225858D01*
G37*
%TD.AperFunction*%
%TD*%
M02*
